<svg width="89" height="77" viewBox="0 0 89 77" fill="none" xmlns="http://www.w3.org/2000/svg">
<path d="M86.0288 16.6246C81.935 12.1903 72.8133 10.9495 60.886 13.1676C60.6293 12.6687 60.3642 12.1787 60.0909 11.7013C61.0557 10.855 61.6344 9.76502 61.731 8.61216C61.8276 7.45931 61.4363 6.31279 60.622 5.36266C59.8077 4.41253 58.6192 3.71587 57.2537 3.38817C55.8883 3.06047 54.4277 3.12141 53.1142 3.56089C50.4352 1.61904 47.5661 0.629465 44.5709 0.623822C41.1307 0.617341 37.867 1.90076 34.8705 4.43842C32.3602 6.564 30.1541 9.47796 28.2988 13.1061C16.3638 10.8433 7.24646 12.0497 3.16847 16.4683C-1.47015 21.4936 1.2028 29.7173 10.2996 38.5948C9.80505 39.0772 9.32632 39.5608 8.86338 40.0454C7.54563 39.7446 6.14438 39.8038 4.87533 40.2137C3.60627 40.6237 2.53976 41.3617 1.83995 42.3142C1.14014 43.2667 0.845835 44.3809 1.00233 45.4852C1.15882 46.5895 1.75744 47.6228 2.70605 48.426C0.226099 53.3891 0.405466 57.6168 3.24518 60.6935C5.99912 63.6764 11.0265 65.2147 17.6541 65.2271C20.8787 65.2331 24.4836 64.8765 28.3876 64.1504C30.2551 67.7856 32.4718 70.708 34.9894 72.8431C37.9948 75.393 41.263 76.6887 44.7031 76.6952C48.1433 76.7017 51.407 75.4183 54.4035 72.8806C56.9134 70.7552 59.1197 67.8417 60.9746 64.214C61.8095 64.3723 62.634 64.514 63.4481 64.639C63.6224 65.8329 64.3125 66.9393 65.3955 67.761C66.4785 68.5827 67.884 69.0662 69.3614 69.1255C70.8388 69.1847 72.2921 68.8157 73.4622 68.0843C74.6323 67.3529 75.4433 66.3067 75.7505 65.1321C80.4108 64.6264 83.9773 63.1588 86.1055 60.8507C90.744 55.8256 88.0718 47.6019 78.9748 38.7242C88.0406 29.8806 90.6846 21.667 86.0288 16.6246ZM83.5351 18.1413C87.157 22.064 84.6027 29.1324 76.8914 36.7811C73.4447 33.7296 69.689 30.9184 65.6642 28.3772C64.9232 23.762 63.6738 19.3735 62.0188 15.5624C72.3342 13.7117 80.31 14.648 83.5351 18.1414L83.5351 18.1413ZM59.0557 61.1998C55.3848 60.3608 51.7907 59.3115 48.3006 58.0598C51.6731 56.6505 54.9533 55.1007 58.1283 53.4166C59.497 52.6911 60.8407 51.944 62.1592 51.1753C61.4925 54.586 60.4542 57.9407 59.0565 61.1999L59.0557 61.1998ZM30.295 61.1456C28.886 57.881 27.8359 54.5224 27.1571 51.1092C28.4753 51.8803 29.8216 52.6325 31.196 53.3657C34.3768 55.0619 37.6625 56.6241 41.0398 58.0461C37.5541 59.2847 33.9638 60.3205 30.2958 61.1457L30.295 61.1456ZM30.2167 16.1189C33.8877 16.9579 37.4817 18.0072 40.9718 19.2589C37.5994 20.6682 34.3191 22.218 31.1442 23.9021C29.7753 24.6276 28.4316 25.3747 27.1133 26.1434C27.7805 22.7328 28.8193 19.3782 30.2175 16.1191L30.2167 16.1189ZM32.8994 51.2466C30.7099 50.0802 28.5773 48.8519 26.5483 47.5915C25.7121 41.6313 25.7016 35.6161 26.5171 29.659C28.5417 28.4062 30.6703 27.1858 32.8555 26.0276C36.6263 24.026 40.5509 22.2221 44.6056 20.6268C48.6658 22.2375 52.5964 24.0563 56.3738 26.0722C58.5633 27.2386 60.696 28.4669 62.7249 29.7273C63.1443 32.705 63.3563 35.6989 63.3599 38.6948C63.3668 41.6906 63.1652 44.6838 62.7561 47.6599C60.7315 48.9127 58.6029 50.1331 56.4177 51.2913C52.6472 53.2929 48.7228 55.0968 44.6684 56.6922C40.6082 55.0816 36.6776 53.2627 32.9002 51.2468L32.8994 51.2466ZM23.1445 45.3821C20.0448 43.2935 17.1321 41.0279 14.429 38.6026C17.1242 36.1873 20.0293 33.9323 23.122 31.855C22.9016 34.0801 22.7897 36.3438 22.7936 38.6183C22.7976 40.8929 22.9174 43.1562 23.1453 45.3822L23.1445 45.3821ZM58.9782 16.1733C60.3873 19.4378 61.4374 22.7964 62.1161 26.2096C60.798 25.4385 59.4517 24.6864 58.0773 23.9532C54.8964 22.257 51.6108 20.6948 48.2334 19.2727C51.7193 18.0342 55.31 16.9984 58.9782 16.1733V16.1733ZM66.1287 31.9368C69.2287 34.0254 72.1416 36.291 74.845 38.7164C72.1498 41.1317 69.2447 43.3867 66.152 45.464C66.3724 43.2389 66.4843 40.9752 66.4804 38.7007C66.4764 36.4261 66.3566 34.1628 66.1287 31.9368ZM58.6263 8.25741C58.6271 8.75893 58.445 9.24884 58.1028 9.66519C57.7607 10.0815 57.2739 10.4056 56.704 10.5965C56.1342 10.7873 55.5068 10.8364 54.9013 10.7374C54.2958 10.6384 53.7394 10.3958 53.3024 10.0404C52.8654 9.68495 52.5674 9.23257 52.4461 8.74046C52.3249 8.24836 52.3858 7.73862 52.6211 7.27573C52.8565 6.81283 53.2558 6.41756 53.7685 6.1399C54.2811 5.86224 54.8842 5.71466 55.5014 5.71582C56.3287 5.71818 57.1223 5.98708 57.7081 6.46355C58.2939 6.94002 58.6241 7.58514 58.6263 8.25741V8.25741ZM44.5753 3.15953C46.6169 3.16338 48.6313 3.82614 50.5801 5.12794C49.7603 5.98191 49.3003 7.0282 49.2679 8.11287C49.2355 9.19754 49.6324 10.2633 50.4001 11.1534C51.1679 12.0435 52.2661 12.711 53.5331 13.0576C54.8 13.4041 56.1689 13.4115 57.4383 13.0787C57.5706 13.3155 57.701 13.5551 57.8296 13.7974C53.2913 14.8414 48.8669 16.1856 44.6008 17.8164C40.3283 16.1692 35.8985 14.8081 31.3557 13.7467C34.9011 6.9886 39.6671 3.15029 44.5753 3.15953ZM5.66731 17.9946C8.88022 14.514 16.8524 13.607 27.1747 15.4969C25.5333 19.3011 24.2992 23.684 23.5743 28.2965C19.5585 30.8232 15.8125 33.6205 12.3758 36.6591C4.63794 28.9821 2.05885 21.9039 5.66731 17.9946ZM7.19781 42.3925C7.81499 42.3937 8.41856 42.5435 8.9322 42.8231C9.44585 43.1027 9.8465 43.4995 10.0835 43.9633C10.3205 44.4271 10.3832 44.937 10.2636 45.4287C10.1441 45.9203 9.84765 46.3716 9.41185 46.7254C8.97606 47.0792 8.42047 47.3197 7.81532 47.4164C7.21018 47.5131 6.58267 47.4617 6.01214 47.2687C5.44161 47.0757 4.95369 46.7498 4.61008 46.3321C4.26648 45.9145 4.08261 45.4239 4.08174 44.9224C4.08155 44.2501 4.40951 43.6062 4.99367 43.1319C5.57784 42.6577 6.37051 42.3918 7.19781 42.3925ZM5.73912 59.1779C3.20735 56.4342 4.01166 52.7403 5.40722 49.7793C6.74074 50.1094 8.17019 50.0678 9.46788 49.6612C10.7656 49.2546 11.8569 48.5063 12.568 47.5355C13.2792 46.5647 13.5692 45.4273 13.392 44.3043C13.2147 43.1814 12.5804 42.1375 11.59 41.339C11.8483 41.0716 12.1123 40.8044 12.3822 40.5373C15.829 43.5891 19.5848 46.4007 23.6098 48.9421C24.3508 53.5574 25.6002 57.9459 27.2552 61.757C16.94 63.6075 8.96416 62.671 5.73912 59.1779ZM44.6987 74.1595C39.7906 74.1502 35.0111 70.2939 31.4422 63.5223C35.9814 62.4782 40.4065 61.1338 44.6732 59.5026C48.9458 61.1498 53.3756 62.5109 57.9183 63.5723C54.373 70.3304 49.6069 74.1687 44.6987 74.1595ZM69.6494 66.5994C69.0322 66.5982 68.4286 66.4484 67.915 66.1688C67.4013 65.8892 67.0007 65.4924 66.7637 65.0286C66.5267 64.5648 66.464 64.0548 66.5836 63.5632C66.7031 63.0715 66.9995 62.6203 67.4353 62.2665C67.8711 61.9127 68.4267 61.6722 69.0319 61.5755C69.637 61.4788 70.2645 61.5302 70.835 61.7232C71.4056 61.9162 71.8935 62.2421 72.2371 62.6598C72.5807 63.0774 72.7646 63.568 72.7654 64.0695C72.7656 64.7418 72.4377 65.3857 71.8535 65.86C71.2694 66.3342 70.4767 66.6001 69.6494 66.5994V66.5994ZM83.6061 59.3249C82.0293 61.0351 79.28 62.1513 75.6091 62.5882C75.23 61.5884 74.4806 60.7071 73.4633 60.0648C72.4459 59.4224 71.2104 59.0504 69.9257 58.9996C68.6409 58.9488 67.3697 59.2216 66.2859 59.7809C65.2021 60.3401 64.3587 61.1584 63.8709 62.1239C63.2876 62.0328 62.6971 61.9321 62.0995 61.8218C63.7409 58.0177 64.9748 53.6349 65.6997 49.0225C69.7156 46.4959 73.4616 43.6985 76.8982 40.6599C84.6361 48.3369 87.215 55.4151 83.6061 59.3249Z" fill="#B61DCF"/>
<path d="M44.6194 28.5166C42.1507 28.512 39.7385 29.1023 37.6878 30.213C35.6371 31.3236 34.04 32.9047 33.0985 34.7563C32.157 36.6078 31.9133 38.6468 32.3984 40.6152C32.8834 42.5836 34.0753 44.3931 35.8234 45.8149C37.5715 47.2367 39.7973 48.2069 42.2192 48.6029C44.6412 48.9988 47.1505 48.8027 49.43 48.0393C51.7094 47.2759 53.6566 45.9795 55.0252 44.3141C56.3939 42.6487 57.1225 40.6891 57.119 38.683C57.1106 35.9939 55.7899 33.4133 53.4466 31.5074C51.1032 29.6015 47.9287 28.5259 44.6194 28.5166V28.5166ZM44.6503 46.2666C42.7988 46.2631 40.988 45.8136 39.4471 44.9748C37.9062 44.136 36.7042 42.9457 35.9932 41.5543C35.2823 40.163 35.0942 38.6331 35.4529 37.1581C35.8115 35.6832 36.7008 34.3294 38.0081 33.268C39.3155 32.2066 40.9823 31.4852 42.7978 31.1951C44.6132 30.905 46.4957 31.0592 48.2073 31.6382C49.9189 32.2172 51.3827 33.1949 52.4135 34.4479C53.4443 35.7008 53.9959 37.1726 53.9985 38.6771C53.9992 40.694 53.0154 42.6257 51.2628 44.0485C49.5103 45.4713 47.1322 46.269 44.6503 46.2666Z" fill="#BF39D5"/>
</svg>
