<svg width="1648" height="1024" viewBox="0 0 1648 1024" fill="none" xmlns="http://www.w3.org/2000/svg">
<path fill-rule="evenodd" clip-rule="evenodd" d="M363.575 -1.27321L424.71 41.2538C485.846 83.7807 608.116 168.835 547.304 254.351C486.493 339.868 242.599 425.847 395.383 510.824C548.167 595.801 1097.63 679.775 1372.47 764.444C1647.3 849.112 1647.52 934.474 1647.63 977.156L1647.74 1019.84L-6.25264e-05 1024L-0.107903 981.319C-0.215743 938.638 -0.431423 853.275 -0.647104 767.913C-0.862784 682.551 -1.07846 597.188 -1.29414 511.826C-1.50982 426.464 -1.72551 341.101 -1.94119 255.739C-2.15687 170.377 -2.37255 85.0143 -2.48039 42.3331L-2.58823 -0.348047L363.575 -1.27321Z" fill="#7901FB" fill-opacity="0.49"/>
<path fill-rule="evenodd" clip-rule="evenodd" d="M363.575 -1.27321L424.71 41.2538C485.846 83.7807 608.116 168.835 547.304 254.351C486.493 339.868 242.599 425.847 395.383 510.824C548.167 595.801 1097.63 679.775 1372.47 764.444C1647.3 849.112 1647.52 934.474 1647.63 977.156L1647.74 1019.84L-6.25264e-05 1024L-0.107903 981.319C-0.215743 938.638 -0.431423 853.275 -0.647104 767.913C-0.862784 682.551 -1.07846 597.188 -1.29414 511.826C-1.50982 426.464 -1.72551 341.101 -1.94119 255.739C-2.15687 170.377 -2.37255 85.0143 -2.48039 42.3331L-2.58823 -0.348047L363.575 -1.27321Z" fill="url(#paint0_radial)"/>
<path fill-rule="evenodd" clip-rule="evenodd" d="M363.575 -1.27321L424.71 41.2538C485.846 83.7807 608.116 168.835 547.304 254.351C486.493 339.868 242.599 425.847 395.383 510.824C548.167 595.801 1097.63 679.775 1372.47 764.444C1647.3 849.112 1647.52 934.474 1647.63 977.156L1647.74 1019.84L-6.25264e-05 1024L-0.107903 981.319C-0.215743 938.638 -0.431423 853.275 -0.647104 767.913C-0.862784 682.551 -1.07846 597.188 -1.29414 511.826C-1.50982 426.464 -1.72551 341.101 -1.94119 255.739C-2.15687 170.377 -2.37255 85.0143 -2.48039 42.3331L-2.58823 -0.348047L363.575 -1.27321Z" stroke="#D13030"/>
<defs>
<radialGradient id="paint0_radial" cx="0" cy="0" r="1" gradientUnits="userSpaceOnUse" gradientTransform="translate(255 137) rotate(43.7214) scale(1283.36 797.829)">
<stop offset="0.152421" stop-color="#C624FF" stop-opacity="0.58"/>
<stop offset="1" stop-color="white" stop-opacity="0"/>
</radialGradient>
</defs>
</svg>
