<svg width="74" height="78" viewBox="0 0 74 78" fill="none" xmlns="http://www.w3.org/2000/svg">
<g clip-path="url(#clip0)">
<path d="M37.0075 48.2583C36.6801 48.2364 36.4422 48.518 36.4384 48.8504C36.4319 49.4766 36.1978 50.0672 35.7823 50.5129C34.9039 51.4488 33.4759 51.4451 32.5988 50.5069C31.7206 49.5665 31.718 48.0403 32.5941 47.1032C32.8134 46.8688 32.8128 46.4882 32.5926 46.2528C32.3725 46.0173 32.0165 46.0166 31.7973 46.2513C30.4838 47.6563 30.4866 49.9473 31.8051 51.3561C32.4642 52.0611 33.3282 52.4153 34.1927 52.4157C35.0572 52.4174 35.9222 52.0676 36.579 51.3639C37.2028 50.6954 37.5528 49.8103 37.5632 48.8691C37.5672 48.5367 37.3183 48.2635 37.0075 48.2583Z" fill="#B61DCF"/>
<path d="M33.0235 30.6511C32.4062 30.0648 31.6093 29.7414 30.7811 29.7398C28.9203 29.7363 27.4094 31.3529 27.4129 33.3438C27.4164 35.3336 28.9329 36.9549 30.7937 36.9584C31.1045 36.959 31.3556 36.6904 31.355 36.3578C31.3544 36.0252 31.1024 35.7558 30.7916 35.7552C29.5513 35.7529 28.54 34.6719 28.5377 33.3459C28.5354 32.0184 29.543 30.9405 30.7832 30.9429C31.3367 30.9439 31.8677 31.1594 32.2781 31.5496C32.5115 31.7692 32.8662 31.7486 33.0723 31.5005C33.2784 31.2525 33.2557 30.8718 33.0235 30.6511Z" fill="#B61DCF"/>
<path d="M27.9854 39.1714C26.7453 39.169 25.7376 40.2469 25.7399 41.5744C25.7416 42.532 26.2725 43.3976 27.0927 43.7822C27.1653 43.8153 27.2422 43.8318 27.3169 43.8319C27.5333 43.8324 27.7407 43.6976 27.8312 43.4711C27.9549 43.1671 27.8246 42.8132 27.5389 42.6787C27.1299 42.4877 26.8655 42.0548 26.8647 41.5766C26.8635 40.9127 27.3669 40.3733 27.9875 40.3744C28.2983 40.375 28.5494 40.1064 28.5489 39.774C28.5483 39.4415 28.2962 39.172 27.9854 39.1714Z" fill="#B61DCF"/>
<path d="M28.567 34.4258C26.8307 34.0365 25.168 35.4937 25.1701 37.3636C25.173 39.0209 26.4365 40.3714 27.9875 40.3743C28.2983 40.3749 28.5495 40.1063 28.549 39.7738C28.5484 39.4414 28.2963 39.1718 27.9855 39.1712C27.055 39.1695 26.2968 38.3596 26.2951 37.3657C26.2931 36.2431 27.2934 35.3703 28.3384 35.6025C28.6472 35.6725 28.9401 35.4634 29.0033 35.138C29.0664 34.8132 28.8703 34.4939 28.567 34.4258Z" fill="#B61DCF"/>
<path d="M34.7133 27.153C33.1624 27.1501 31.9037 28.4983 31.9066 30.1578C31.9095 31.815 33.1728 33.1655 34.7238 33.1684C35.0347 33.169 35.2859 32.9005 35.2851 32.5679C35.2846 32.2355 35.0325 31.966 34.7216 31.9654C33.7912 31.9636 33.033 31.1537 33.0312 30.1599C33.0295 29.1636 33.7849 28.3543 34.7153 28.3561C35.6458 28.3578 36.404 29.17 36.4057 30.1662C36.4063 30.4987 36.6584 30.7682 36.9693 30.7688C37.2801 30.7694 37.5312 30.5008 37.5307 30.1684C37.5278 28.5089 36.2643 27.156 34.7133 27.153Z" fill="#B61DCF"/>
<path d="M33.9832 41.7955C33.1294 40.8822 31.9981 40.3796 30.7986 40.3773C30.7986 40.3773 30.7986 40.3773 30.7975 40.3773C29.5978 40.375 28.4696 40.8735 27.6209 41.7823C25.8689 43.6564 25.8731 46.71 27.6305 48.5896C28.4823 49.4994 29.6399 50.0044 30.8241 50.0067C31.0536 50.0071 31.2832 49.9887 31.5116 49.9517C31.818 49.9006 32.0272 49.5931 31.9795 49.2652C31.9317 48.9374 31.6381 48.7183 31.336 48.7623C30.2774 48.9401 29.187 48.5551 28.4244 47.7407C27.1061 46.3317 27.1032 44.0406 28.4178 42.6344C29.0548 41.9531 29.901 41.5787 30.7996 41.5804L30.8007 41.5804C31.7002 41.5821 32.549 41.9597 33.1894 42.6446C33.4095 42.8801 33.7655 42.8808 33.9847 42.6461C34.2041 42.4116 34.2034 42.031 33.9832 41.7955Z" fill="#B61DCF"/>
<path d="M42.1959 46.2707C41.9759 46.0352 41.62 46.0347 41.4007 46.2692C41.1813 46.5037 41.182 46.8843 41.4021 47.1197C42.2802 48.0601 42.2829 49.5863 41.4081 50.5234C40.5352 51.4605 39.1074 51.4578 38.2246 50.5186C37.8081 50.0702 37.5721 49.4788 37.5633 48.8526C37.5572 48.5201 37.3073 48.2471 36.9921 48.2583C36.6812 48.2623 36.4334 48.5346 36.4384 48.867C36.4521 49.8082 36.8053 50.6947 37.4313 51.3668C38.0906 52.0717 38.9551 52.426 39.8207 52.4276C40.6841 52.4292 41.5491 52.0782 42.2048 51.3756C43.5183 49.9717 43.5144 47.6808 42.1959 46.2707Z" fill="#B61DCF"/>
<path d="M43.1534 29.7633C42.3252 29.7617 41.5305 30.0821 40.9141 30.6661C40.6839 30.886 40.6626 31.2665 40.8695 31.5154C41.0742 31.7642 41.4304 31.7861 41.6627 31.5674C42.0729 31.1787 42.602 30.9653 43.1555 30.9663C44.3968 30.9687 45.4071 32.0503 45.4094 33.3779C45.4117 34.7037 44.4052 35.781 43.1639 35.7786C42.8542 35.7781 42.6021 36.0465 42.6027 36.3791C42.6032 36.7116 42.8563 36.9811 43.166 36.9817C45.0269 36.9852 46.5378 35.3696 46.5342 33.38C46.5307 31.3892 45.0144 29.7668 43.1534 29.7633Z" fill="#B61DCF"/>
<path d="M45.9821 39.2053C45.6724 39.2047 45.4201 39.4733 45.4207 39.8057C45.4213 40.1382 45.6745 40.4077 45.9842 40.4083C46.6059 40.4095 47.1099 40.9509 47.111 41.6147C47.1119 42.0928 46.8491 42.5247 46.4408 42.7143C46.1553 42.8477 46.0263 43.2013 46.1521 43.5056C46.2425 43.7326 46.4515 43.868 46.6667 43.8684C46.7415 43.8685 46.8183 43.8521 46.8907 43.8195C47.7095 43.438 48.2375 42.5744 48.2358 41.6168C48.2335 40.2893 47.2233 39.2076 45.9821 39.2053Z" fill="#B61DCF"/>
<path d="M45.3852 34.4575C45.0821 34.5245 44.8872 34.843 44.9513 35.168C45.0134 35.4935 45.3104 35.7038 45.6178 35.635C46.6631 35.4033 47.6642 36.2827 47.6662 37.406C47.6679 38.4 46.9136 39.2069 45.9821 39.2051C45.6724 39.2045 45.4202 39.4731 45.4208 39.8056C45.4214 40.138 45.6745 40.4076 45.9842 40.4082C47.5352 40.4111 48.7938 39.0654 48.7911 37.4081C48.7878 35.5384 47.1244 34.0749 45.3852 34.4575Z" fill="#B61DCF"/>
<path d="M39.2122 27.1615C37.6616 27.1586 36.403 28.5067 36.4059 30.1662C36.4064 30.4987 36.6585 30.7682 36.9694 30.7688C37.2803 30.7694 37.5314 30.5008 37.5308 30.1684C37.5291 29.1721 38.2851 28.3628 39.2143 28.3646C40.1457 28.3663 40.9029 29.1784 40.9046 30.1747C40.9063 31.1687 40.152 31.9756 39.2205 31.9738C38.9107 31.9733 38.6586 32.2419 38.6592 32.5743C38.6598 32.9068 38.9128 33.1763 39.2226 33.1769C40.7736 33.1798 42.0323 31.8341 42.0294 30.1768C42.0265 28.5173 40.7631 27.1644 39.2122 27.1615Z" fill="#B61DCF"/>
<path d="M46.3558 41.8176C45.5039 40.9056 44.3737 40.4029 43.1742 40.4006C41.9749 40.3984 40.8443 40.8968 39.9934 41.8069C39.774 42.0414 39.7748 42.422 39.9949 42.6575C40.2149 42.8929 40.5708 42.8936 40.7901 42.6589C41.4283 41.9765 42.2757 41.602 43.1763 41.6037C44.0749 41.6054 44.9237 41.983 45.5618 42.6667C46.8825 44.0778 46.8865 46.369 45.573 47.7718C44.8143 48.5845 43.7275 48.9655 42.666 48.7836C42.3628 48.7327 42.0709 48.9553 42.0231 49.2842C41.9777 49.6117 42.1869 49.92 42.4945 49.9724C42.7231 50.0103 42.9516 50.0295 43.18 50.0299C44.3664 50.0322 45.521 49.5316 46.3698 48.6249C48.1219 46.752 48.1144 43.6985 46.3558 41.8176Z" fill="#B61DCF"/>
<path d="M46.5799 60.8619L27.4584 60.8259C27.1476 60.8253 26.8965 61.0937 26.897 61.4263L26.9117 69.8479C26.912 70.0076 26.9715 70.1605 27.0772 70.2736L29.3311 72.6839C29.4367 72.7969 29.5796 72.8607 29.729 72.861L44.3512 72.8886C44.5005 72.8888 44.6432 72.8256 44.7485 72.7129L46.9939 70.3111C47.0991 70.1984 47.1582 70.0459 47.1579 69.8861L47.1433 61.4645C47.1427 61.1319 46.8897 60.8625 46.5799 60.8619ZM46.0327 69.6349L44.1163 71.6849L29.9598 71.6582L28.036 69.601L28.0229 62.03L46.0196 62.0639L46.0327 69.6349Z" fill="#B61DCF"/>
<path d="M47.6782 63.2701L26.3102 64.4328C26.0006 64.4511 25.7627 64.7326 25.7798 65.0651C25.7956 65.386 26.0444 65.6354 26.342 65.6359C26.3519 65.636 26.3617 65.636 26.3717 65.636L47.7397 64.4732C48.0495 64.455 48.2883 64.1736 48.2701 63.8411C48.2542 63.5097 47.9946 63.2636 47.6782 63.2701Z" fill="#B61DCF"/>
<path d="M47.6844 66.8793L26.3165 68.0421C26.0068 68.0603 25.7689 68.3418 25.786 68.6744C25.8019 68.9951 26.0506 69.2447 26.3482 69.2452C26.3581 69.2452 26.3679 69.2452 26.3779 69.2453L47.7459 68.0825C48.0557 68.0643 48.2945 67.7827 48.2764 67.4502C48.2605 67.1189 48.0008 66.8635 47.6844 66.8793Z" fill="#B61DCF"/>
<path d="M36.9483 19.9389C26.4041 19.919 17.8422 29.0777 17.8619 40.3554C17.8742 47.4588 21.2435 53.9163 26.8905 57.6973L26.897 61.4263C26.8976 61.7588 27.1497 62.0283 27.4605 62.0289L46.5819 62.065C46.8918 62.0655 47.1439 61.7969 47.1433 61.4645L47.1368 57.7354C52.7698 53.9769 56.1176 47.5321 56.1052 40.4274C56.0856 29.1496 47.4908 19.9587 36.9483 19.9389ZM46.2829 56.8831C46.114 56.991 46.0111 57.1858 46.0114 57.3972L46.0175 60.8608L28.021 60.8269L28.015 57.3633C28.0147 57.1519 27.911 56.9567 27.7417 56.8481C22.2718 53.3131 18.9986 47.1482 18.9868 40.3573C18.9683 29.7435 27.027 21.1232 36.9506 21.1419C46.8734 21.1606 54.9621 29.8113 54.9806 40.4251C54.9924 47.2184 51.7406 53.3699 46.2829 56.8831Z" fill="#B61DCF"/>
<path d="M42.3545 71.7499C42.0796 71.5991 41.7415 71.7158 41.5992 72.0071C41.5576 72.0926 40.5417 74.0846 37.0426 74.078C33.5473 74.0714 32.5222 72.0815 32.4781 71.9909C32.338 71.6969 32.0029 71.5799 31.7252 71.7251C31.4475 71.8725 31.336 72.2341 31.475 72.5317C31.5278 72.6433 32.8088 75.2729 37.0446 75.2809C41.2798 75.2889 42.5515 72.6641 42.6042 72.5528C42.742 72.2581 42.6294 71.9008 42.3545 71.7499Z" fill="#B61DCF"/>
<path d="M12.799 39.7441L1.55092 39.7229C1.23996 39.7223 0.988993 39.9909 0.989571 40.3234C0.99015 40.656 1.24205 40.9254 1.55301 40.9259L12.8011 40.9471C13.1121 40.9477 13.3632 40.6793 13.3626 40.3467C13.362 40.0142 13.11 39.7447 12.799 39.7441Z" fill="#B61DCF"/>
<path d="M72.4143 39.8564L61.166 39.8353C60.8541 39.8347 60.6041 40.1033 60.6047 40.4357C60.6053 40.7683 60.8562 41.0377 61.1681 41.0383L72.4164 41.0595C72.7262 41.0601 72.9783 40.7916 72.9777 40.459C72.9772 40.1266 72.724 39.857 72.4143 39.8564Z" fill="#B61DCF"/>
<path d="M16.5502 52.9851C16.3959 52.6957 16.0509 52.5987 15.782 52.7627L6.04901 58.7599C5.78027 58.9263 5.68861 59.2938 5.84515 59.582C5.94862 59.7748 6.1389 59.8832 6.33223 59.8836C6.42777 59.8837 6.52438 59.8582 6.61336 59.8042L16.3462 53.8072C16.6151 53.6408 16.7066 53.2731 16.5502 52.9851Z" fill="#B61DCF"/>
<path d="M68.1198 21.2006C67.9655 20.9112 67.6203 20.8143 67.3527 20.9788L57.6241 26.9759C57.3542 27.1417 57.2626 27.5091 57.419 27.7973C57.5227 27.9909 57.714 28.0987 57.9073 28.0991C58.0019 28.0993 58.0985 28.0736 58.1883 28.0191L67.9169 22.0221C68.1845 21.8563 68.2762 21.4886 68.1198 21.2006Z" fill="#B61DCF"/>
<path d="M54.9225 7.08465C54.6497 6.91679 54.3072 7.01532 54.1539 7.30352L48.5501 17.7119C48.3947 17.9995 48.4877 18.3673 48.7581 18.5341C48.8461 18.5889 48.9427 18.615 49.0395 18.6152C49.2328 18.6155 49.4216 18.5077 49.5244 18.3153L55.1282 7.90688C55.2838 7.61928 55.1908 7.2513 54.9225 7.08465Z" fill="#B61DCF"/>
<path d="M37.4816 2.495C37.481 2.16256 37.2289 1.893 36.9181 1.89242C36.6072 1.89183 36.3561 2.16104 36.3566 2.49288L36.3787 14.5215C36.3793 14.854 36.6313 15.1235 36.9423 15.1241C37.2531 15.1247 37.5042 14.8555 37.5036 14.5236L37.4816 2.495Z" fill="#B61DCF"/>
<path d="M25.3415 17.6658L19.6992 7.23862C19.5437 6.94923 19.1987 6.85166 18.931 7.01685C18.6621 7.18264 18.5706 7.55012 18.727 7.83831L24.3693 18.2655C24.4728 18.459 24.663 18.5669 24.8564 18.5672C24.9519 18.5674 25.0485 18.5417 25.1375 18.4872C25.4064 18.3214 25.4979 17.954 25.3415 17.6658Z" fill="#B61DCF"/>
<path d="M67.9832 58.8743L58.2316 52.8404C57.9611 52.6754 57.6186 52.7711 57.463 53.0599C57.3076 53.3474 57.4006 53.7155 57.671 53.8827L67.4227 59.9166C67.5106 59.9707 67.6073 59.9967 67.7039 59.9969C67.8973 59.9973 68.086 59.8896 68.189 59.6971C68.3445 59.4095 68.2514 59.0416 67.9832 58.8743Z" fill="#B61DCF"/>
<path d="M16.2994 26.8934L6.54889 20.8619C6.28056 20.6969 5.93587 20.7932 5.78145 21.0808C5.62605 21.3682 5.71885 21.7362 5.98831 21.903L15.7388 27.9345C15.828 27.9893 15.9247 28.0153 16.0202 28.0155C16.2136 28.0159 16.4033 27.908 16.5063 27.7156C16.6617 27.428 16.5689 27.0602 16.2994 26.8934Z" fill="#B61DCF"/>
<path d="M36.9673 29.5659C36.6564 29.5653 36.4053 29.8339 36.4058 30.1664L36.4383 48.8589C36.4389 49.1913 36.691 49.4609 37.0019 49.4615C37.3127 49.4621 37.5638 49.1934 37.5633 48.861L37.5307 30.1685C37.5302 29.8361 37.2781 29.5665 36.9673 29.5659Z" fill="#B61DCF"/>
<path d="M38.6768 44.0038C37.9239 44.0024 37.4995 43.1416 37.4929 43.1286C37.3528 42.8334 37.0153 42.7131 36.7399 42.8605C36.4623 43.0079 36.3498 43.3674 36.4886 43.6659C36.5173 43.7295 37.222 45.2041 38.6789 45.2069C38.9886 45.2075 39.2409 44.9389 39.2403 44.6064C39.2397 44.2738 38.9865 44.0044 38.6768 44.0038Z" fill="#B61DCF"/>
<path d="M37.2365 42.8637C36.9615 42.7152 36.6234 42.8344 36.4822 43.1267C36.4778 43.1349 36.0553 43.9989 35.3018 43.9975C34.991 43.9969 34.7399 44.2653 34.7404 44.5979C34.741 44.9304 34.9931 45.1999 35.3039 45.2005C36.7604 45.2032 37.4598 43.7312 37.4882 43.6678C37.6262 43.372 37.5124 43.0145 37.2365 42.8637Z" fill="#B61DCF"/>
<path d="M39.7892 36.7874C37.6356 36.7833 37.5427 35.1587 37.5392 34.9732C37.5363 34.6436 37.2843 34.3764 36.9757 34.3758C36.6648 34.3753 36.4137 34.6439 36.4143 34.9763C36.4161 36.0167 37.1236 37.9854 39.7912 37.9904C40.101 37.991 40.3531 37.7224 40.3526 37.39C40.3521 37.0575 40.0989 36.788 39.7892 36.7874Z" fill="#B61DCF"/>
<path d="M36.9745 34.3789C36.6514 34.3524 36.4126 34.6403 36.4077 34.971C36.4046 35.1561 36.3174 36.7808 34.1643 36.7768C33.8535 36.7762 33.6024 37.0448 33.603 37.3773C33.6036 37.7097 33.8556 37.9792 34.1664 37.9798C36.8335 37.9849 37.5343 36.0188 37.5325 34.9786C37.5319 34.6484 37.2831 34.3823 36.9745 34.3789Z" fill="#B61DCF"/>
</g>
<defs>
<clipPath id="clip0">
<rect width="71.9883" height="76.9971" fill="white" transform="matrix(0.999998 0.00188403 0.00173889 0.999999 0.919434 0.0203247)"/>
</clipPath>
</defs>
</svg>
