<svg width="73" height="79" viewBox="0 0 73 79" fill="none" xmlns="http://www.w3.org/2000/svg">
<g clip-path="url(#clip0)">
<path d="M1.23865 40.5669C3.00107 41.2059 3.37873 42.4311 3.95066 44.2859C4.28941 45.5459 4.78776 46.7495 5.43144 47.8623C6.71752 49.8527 8.62257 51.275 10.7955 51.8671C10.9702 53.6458 10.5593 54.0116 10.1998 54.2683C10.1494 54.2968 10.0991 54.3266 10.05 54.3577L9.87857 54.4614C9.49852 54.6778 9.25463 55.0978 9.23877 55.5633C9.22292 56.0288 9.4375 56.469 9.80169 56.7181C10.1659 56.9672 10.6243 56.9873 11.0044 56.7709C11.0871 56.7256 11.1662 56.6776 11.2441 56.6284L11.3891 56.5428C11.7607 56.3238 12.215 56.0608 13.6183 57.1697C13.0055 59.4992 13.1936 61.9935 14.1476 64.1904C14.7196 65.3492 15.4356 66.4178 16.2755 67.3663C17.4779 68.8271 18.2666 69.7931 17.8993 71.758C17.801 72.3005 18.0306 72.8523 18.4716 73.1331C18.6544 73.2469 18.8613 73.3073 19.0718 73.3084C19.3639 73.3088 19.6456 73.1938 19.8643 72.9849C21.2574 71.6564 22.424 71.9199 24.1824 72.3132C25.3599 72.6287 26.5714 72.7671 27.7825 72.7242C30.0111 72.5178 32.0928 71.4456 33.6443 69.7051C35.2642 70.466 35.2651 71.0289 35.2666 71.896C35.2679 72.6139 35.8061 73.1969 36.4687 73.1982C37.1313 73.1994 37.6675 72.6184 37.6662 71.9005C37.6647 71.0386 37.6638 70.4771 39.2774 69.7157C40.835 71.462 42.9204 72.5421 45.1497 72.757C46.361 72.8044 47.572 72.6707 48.7484 72.3595C50.5126 71.9728 51.6784 71.715 53.0689 73.0475C53.2883 73.2572 53.5704 73.3733 53.8625 73.3739C54.073 73.3736 54.2796 73.314 54.4621 73.2009C54.9083 72.9218 55.1387 72.3642 55.0344 71.8162C54.6602 69.85 55.4492 68.8869 56.6429 67.4306C57.4799 66.4848 58.1926 65.4185 58.761 64.2615C59.7062 62.0677 59.8852 59.5745 59.2647 57.2427C60.6007 56.1754 61.0821 56.3869 61.4785 56.6177L61.6334 56.7116C61.7115 56.7598 61.7908 56.8081 61.8736 56.8537C62.4582 57.167 63.165 56.9187 63.4662 56.2943C63.7674 55.6699 63.5529 54.8973 62.983 54.5536L62.8317 54.4689C62.7717 54.4297 62.7116 54.3932 62.6636 54.3658C62.3032 54.1052 61.8958 53.743 62.0595 51.9637C64.2301 51.3798 66.13 49.9652 67.4097 47.9804C68.0493 46.8695 68.5435 45.6673 68.878 44.4083C69.4435 42.5556 69.8169 41.3318 71.5771 40.6994C72.0692 40.525 72.4011 40.0276 72.4001 39.466C72.3991 38.9045 72.0655 38.4058 71.5728 38.2295C69.8104 37.5905 69.4327 36.3653 68.8608 34.5105C68.522 33.2505 68.0237 32.0469 67.38 30.9341C66.0939 28.9437 64.1889 27.5214 62.016 26.9293C61.8425 25.1584 62.245 24.7887 62.6045 24.532C62.7243 24.4633 62.8442 24.3934 62.964 24.3117C63.5324 23.9514 63.7241 23.1605 63.3932 22.5411C63.0624 21.9216 62.333 21.7058 61.7603 22.0579L61.4211 22.2588C61.0496 22.4778 60.5953 22.7408 59.192 21.6319C59.8032 19.3044 59.6152 16.8128 58.6627 14.6177C58.0907 13.4589 57.3747 12.3903 56.5347 11.4418C55.3324 9.98101 54.5436 9.01497 54.911 7.05014C55.013 6.50298 54.7807 5.94509 54.3341 5.66437C53.8874 5.38365 53.3261 5.44288 52.9399 5.81148C51.5481 7.1426 50.3814 6.88042 48.6218 6.48322C47.4444 6.16757 46.2329 6.02925 45.0217 6.07215C42.7932 6.27863 40.7115 7.35083 39.16 9.09128C37.5617 8.333 37.5547 7.77011 37.5532 6.90305C37.552 6.1851 37.0138 5.60208 36.3512 5.60084C35.6885 5.59959 35.1524 6.18058 35.1536 6.89852C35.1551 7.76039 35.1561 8.32197 33.5425 9.0833C31.9849 7.33699 29.8994 6.25694 27.6702 6.04206C26.4589 5.99496 25.2479 6.12871 24.0715 6.43956C22.3084 6.82623 21.1427 7.08402 19.751 5.75155C19.3635 5.38149 18.8021 5.32015 18.3564 5.59919C17.9106 5.87822 17.6803 6.43524 17.7843 6.9828C18.1584 8.94902 17.3694 9.91209 16.1758 11.3684C15.3388 12.3142 14.6261 13.3806 14.0576 14.5376C13.1122 16.7313 12.9333 19.2246 13.5539 21.5563C12.218 22.6236 11.7353 22.4121 11.3402 22.1826L10.9907 21.974C10.4167 21.6197 9.68815 21.8327 9.35945 22.451C9.03076 23.0692 9.2252 23.8607 9.79479 24.2232C9.92932 24.3106 10.0506 24.3849 10.1551 24.4436C10.5155 24.7042 10.9193 25.069 10.7532 26.8444C8.58262 27.4283 6.68263 28.8429 5.40301 30.8278C4.76336 31.9386 4.26921 33.1408 3.93467 34.3998C3.36919 36.2525 2.99578 37.4763 1.23558 38.1087C0.743512 38.2831 0.411582 38.7805 0.412558 39.3421C0.413535 39.9036 0.747197 40.4023 1.23987 40.5786L1.23865 40.5669ZM13.5504 36.7566C13.8064 36.332 14.0684 35.897 14.352 35.4724C15.0688 34.1326 16.2921 33.202 17.6998 32.9256L17.7059 32.9945C17.7446 35.2161 18.2637 37.3988 19.2216 39.3671C18.268 41.341 17.7568 43.5317 17.7293 45.7626L17.7223 45.8471C16.3005 45.5678 15.0629 44.623 14.3404 43.2656C14.0613 42.8465 13.8014 42.4131 13.5475 41.9901C13.0261 41.0419 12.404 40.1629 11.694 39.3711C12.4064 38.5827 13.0296 37.705 13.5504 36.7566ZM22.2196 20.612C22.4168 20.1327 22.6343 19.6651 22.8471 19.2092C23.3366 18.2541 23.7207 17.2395 23.9912 16.1864C24.9807 16.4645 25.9967 16.6148 27.0179 16.6341C27.4835 16.6623 27.9587 16.6918 28.4363 16.746C29.871 16.7503 31.2331 17.4402 32.1589 18.6314L32.1158 18.6651C30.355 19.8015 28.869 21.3743 27.7793 23.2548C25.7331 23.3342 23.7348 23.9352 21.9465 25.0092L21.8338 25.0636C21.3519 23.588 21.493 21.9598 22.2196 20.612V20.612ZM44.2892 16.7368C44.769 16.6883 45.2405 16.6632 45.706 16.6381C46.7234 16.6283 47.7357 16.4875 48.7216 16.2187C48.9956 17.2793 49.3844 18.3015 49.8799 19.264C50.093 19.7194 50.311 20.1865 50.5098 20.6666C51.2131 22.0213 51.3469 23.6358 50.8774 25.1001L50.809 25.0674C49.0177 23.9924 47.0205 23.3858 44.9773 23.2963C43.8723 21.4021 42.3716 19.8152 40.5972 18.6642L40.5335 18.6082C41.4697 17.4171 42.8427 16.7331 44.2892 16.7368V16.7368ZM55.0929 33.0351L55.1012 32.948C56.525 33.2223 57.7637 34.1703 58.4795 35.5335C58.7586 35.9526 59.0185 36.3859 59.2724 36.8089C59.7938 37.7571 60.4158 38.6361 61.1258 39.4279C60.4135 40.2163 59.7903 41.094 59.2695 42.0425C59.0135 42.4671 58.7515 42.9021 58.4679 43.3266C57.7511 44.6664 56.5278 45.597 55.1201 45.8734L55.1139 45.8045C55.0753 43.5829 54.5561 41.4002 53.5983 39.4319C54.5521 37.4577 55.0632 35.2664 55.0905 33.0351L55.0929 33.0351ZM50.6002 58.187C50.4031 58.6664 50.1855 59.1339 49.9728 59.5898C49.4832 60.5449 49.0992 61.5595 48.8286 62.6126C47.8392 62.3345 46.8232 62.1842 45.8019 62.1649C45.3364 62.1368 44.8612 62.1073 44.3836 62.0531C42.9489 62.0487 41.5867 61.3588 40.6609 60.1676L40.7041 60.1339C42.4648 58.9948 43.9496 57.4188 45.0369 55.5351C45.0921 55.5352 45.151 55.5483 45.2061 55.5484C47.184 55.4233 49.1095 54.8212 50.8421 53.7859L50.9752 53.7263C51.4637 55.2028 51.3265 56.8352 50.6002 58.187V58.187ZM28.5307 62.0622C28.0508 62.1107 27.5794 62.1358 27.1139 62.1609C26.0965 62.1708 25.0842 62.3116 24.0983 62.5803C23.8243 61.5197 23.4354 60.4975 22.94 59.535C22.7268 59.0796 22.5089 58.6125 22.3101 58.1324C21.6068 56.7777 21.4729 55.1632 21.9424 53.6989L22.0109 53.7316C23.7558 54.7752 25.6925 55.3842 27.6794 55.5141C27.7322 55.5142 27.7886 55.5039 27.8414 55.5027C28.9465 57.3991 30.448 58.9879 32.2239 60.14L32.2876 60.1896C31.3513 61.3814 29.9778 62.066 28.5307 62.0622V62.0622ZM19.9997 47.3568C20.0457 46.9149 20.0821 46.4599 20.1173 45.9959C20.0892 43.9359 20.6092 41.9127 21.6153 40.1685C22.1238 39.4798 22.7506 38.9045 23.4613 38.4743C24.1835 38.0067 24.9604 37.6458 25.7714 37.401C24.8647 42.9553 27.7832 48.4248 32.6844 50.3562C32.0858 50.9935 31.4128 51.5433 30.6824 51.9917C29.9856 52.4464 29.2108 52.7439 28.4043 52.8662C26.5182 52.9366 24.6509 52.4207 23.023 51.3793C22.6375 51.1836 22.2581 50.9879 21.8894 50.8195C21.1204 50.4317 20.3114 50.1456 19.4799 49.9674C19.7513 49.1229 19.9266 48.2453 20.0021 47.3542L19.9997 47.3568ZM36.3941 30.2999C41.0325 30.3086 44.7998 34.3897 44.8086 39.4153C44.8173 44.4409 41.0642 48.5079 36.4258 48.4992C31.7873 48.4904 28.02 44.4093 28.0113 39.3837C28.0079 34.3605 31.7579 30.2969 36.3941 30.2999V30.2999ZM34.6128 58.7991C34.286 58.5385 33.9424 58.2779 33.594 58.0172C32.386 57.2021 31.3036 56.1862 30.3865 55.007C30.9069 54.8029 31.4095 54.5494 31.8885 54.2494C33.225 53.4553 34.3882 52.3601 35.3 51.0371C36.0515 51.1252 36.8092 51.1266 37.5604 51.0414C38.4771 52.3688 39.645 53.469 40.9854 54.2678C41.4654 54.5696 41.969 54.825 42.4901 55.0311C41.5853 56.1941 40.516 57.1942 39.3218 57.9942C38.9815 58.2536 38.646 58.5051 38.3225 58.7632C37.6312 59.2926 37.0015 59.9103 36.4468 60.603C35.9031 59.9256 35.2874 59.3201 34.6128 58.7991V58.7991ZM51.0254 50.8432C50.6334 51.0244 50.2342 51.2317 49.8266 51.4285C48.2043 52.4687 46.3372 52.9772 44.4504 52.8925C43.6465 52.7672 42.8735 52.4678 42.1777 52.012C41.4448 51.5608 40.769 51.008 40.1676 50.3677C45.0621 48.4547 47.9616 42.9962 47.0355 37.4384C47.8467 37.6866 48.6244 38.05 49.3482 38.5191C50.0608 38.9526 50.69 39.5307 51.2013 40.2216C52.2109 41.9595 52.7383 43.9737 52.7207 46.0236C52.7587 46.476 52.7955 46.9207 52.843 47.3419C52.9161 48.2596 53.0925 49.1644 53.3684 50.0364C52.5598 50.2016 51.7731 50.4725 51.0254 50.8432V50.8432ZM52.8177 31.4449C52.7717 31.8868 52.7353 32.3417 52.7001 32.8057C52.6569 34.3427 52.3903 35.8619 51.9101 37.3072C51.486 36.9214 51.0322 36.5756 50.5537 36.2738C49.2459 35.4087 47.7816 34.8605 46.2616 34.6668C45.9513 33.9208 45.5701 33.2117 45.1242 32.5509C45.7324 31.0282 46.0272 29.3791 45.988 27.7181C45.9882 27.1211 45.9397 26.525 45.8433 25.9369C47.2236 26.2071 48.5574 26.7083 49.7969 27.4223C50.1823 27.6181 50.5618 27.8138 50.9304 27.9822C51.6994 28.3699 52.5084 28.656 53.3399 28.8343C53.0688 29.6779 52.8934 30.5546 52.8177 31.4449V31.4449ZM38.2071 19.9999C38.5339 20.2605 38.8775 20.5212 39.2259 20.7818C40.8924 21.7961 42.2546 23.3096 43.1484 25.1401C43.453 25.9578 43.6026 26.833 43.5884 27.7135C43.6008 28.6284 43.5032 29.5406 43.298 30.4273C39.2953 26.8005 33.4807 26.7896 29.4906 30.4013C29.2824 29.5138 29.1816 28.6012 29.1908 27.6864C29.1743 26.8043 29.3221 25.9283 29.6254 25.1107C30.5029 23.2979 31.8482 21.802 33.4981 20.8048C33.8384 20.5455 34.1739 20.2939 34.4974 20.0358C35.1886 19.5065 35.8184 18.8888 36.3731 18.196C36.9168 18.8734 37.5324 19.4789 38.2071 19.9999V19.9999ZM21.7945 27.9429C22.1805 27.7642 22.5713 27.5686 22.9693 27.3692C24.2084 26.6569 25.5435 26.1594 26.926 25.8947C26.8323 26.4847 26.7871 27.0828 26.7912 27.6819C26.7581 29.3429 27.059 30.9931 27.673 32.518C27.2307 33.1757 26.8527 33.8816 26.5453 34.6244C25.0236 34.8108 23.5593 35.356 22.2552 36.2218C21.7778 36.5214 21.3252 36.865 20.9024 37.2488C20.4192 35.8118 20.1474 34.3022 20.0967 32.7755C20.0588 32.323 20.022 31.8784 19.9745 31.4571C19.9006 30.539 19.7204 29.6341 19.4383 28.7639C20.2526 28.5979 21.0441 28.3221 21.7945 27.9429V27.9429ZM13.055 50.6221C13.0331 50.47 13.0028 50.3074 12.9483 50.0149C12.6982 48.714 12.8821 47.361 13.4672 46.1966C14.4985 47.4171 15.8907 48.209 17.4016 48.4347C17.2773 49.3279 16.7959 50.115 16.0856 50.5862C15.5347 50.9549 15.3555 51.7322 15.681 52.3412C16.0065 52.9503 16.7188 53.1706 17.2893 52.8387C18.0369 52.3957 18.9309 52.3447 19.7199 52.7003C19.1487 54.2251 19.0834 55.9191 19.535 57.4941C18.298 57.4722 17.1079 56.9694 16.1815 56.0774C16.0455 55.9379 15.9018 55.8074 15.7513 55.6866C14.9799 54.9267 14.0833 54.3313 13.1087 53.9319C13.2824 52.8355 13.2642 51.7127 13.055 50.6221V50.6221ZM27.6292 70.1293C26.6315 70.1527 25.6349 70.0306 24.6663 69.7662C23.2389 69.3057 21.7222 69.2889 20.2894 69.7176C19.914 68.1575 19.1415 66.7415 18.0602 65.6316C17.3653 64.8534 16.7697 63.9778 16.2896 63.0284C15.7296 61.7501 15.5381 60.3199 15.7402 58.9247C16.9544 59.7086 18.3432 60.116 19.7543 60.1022C20.0051 60.1027 20.2594 60.0889 20.5161 60.066C20.6137 60.2768 20.7065 60.4966 20.8028 60.7035C21.6458 62.5055 22.1373 63.6595 21.6291 64.6166C21.412 65.0186 21.4108 65.5166 21.626 65.9215C21.8411 66.3264 22.2396 66.5761 22.6702 66.5759C23.1007 66.5757 23.4973 66.3256 23.7094 65.9205C24.2176 64.9646 25.3873 64.8564 27.242 64.7572C27.4543 64.7446 27.6738 64.7242 27.8898 64.7103C28.5826 66.3432 29.7318 67.6999 31.1744 68.5877C30.1641 69.4769 28.9285 70.0142 27.6292 70.1293V70.1293ZM36.4606 68.56C35.6727 67.8552 34.7692 67.318 33.7979 66.9768C33.6779 66.922 33.5494 66.8737 33.4137 66.8253L33.2324 66.7587C32.0695 66.337 31.0808 65.4825 30.4423 64.3472C31.9266 63.989 33.2481 63.0831 34.1812 61.7843C34.8344 62.3479 35.2264 63.1936 35.2531 64.0963C35.2543 64.8142 35.7925 65.3972 36.4551 65.3985C37.1178 65.3997 37.6539 64.8187 37.6527 64.1008C37.6725 63.1726 38.079 62.3055 38.7584 61.7422C39.6865 63.0454 41.0031 63.9597 42.4823 64.3283C41.8406 65.4848 40.8386 66.354 39.6562 66.7799L39.4991 66.8368C39.3636 66.8846 39.2341 66.9325 39.167 66.9661C38.1802 67.3089 37.2622 67.8495 36.4606 68.56V68.56ZM56.6078 63.1044C56.1311 64.0521 55.5386 64.9255 54.8462 65.7009C53.7687 66.8068 53.0012 68.2198 52.6313 69.7786C51.1969 69.3444 49.6803 69.3555 48.2544 69.8106C47.2871 70.0712 46.2914 70.1896 45.2939 70.1625C43.9929 70.0421 42.7542 69.4992 41.7398 68.605C43.1864 67.7138 44.3365 66.3518 45.0277 64.7114C45.2413 64.7261 45.4585 64.7486 45.6697 64.762C47.538 64.8786 48.7092 64.9978 49.2232 65.9659C49.4382 66.3692 49.8351 66.6184 50.2643 66.6195C50.6935 66.6207 51.0898 66.3736 51.304 65.9715C51.5181 65.5694 51.5176 65.0732 51.3026 64.6699C50.7886 63.7018 51.251 62.6094 52.1117 60.7625C52.2097 60.5508 52.3017 60.3313 52.3997 60.1131C52.6397 60.1343 52.8893 60.1491 53.1292 60.1495C54.5426 60.168 55.9321 59.7659 57.1465 58.9871C57.3553 60.3885 57.1674 61.824 56.6078 63.1044ZM59.8812 50.2242C59.8503 50.3957 59.8206 50.5581 59.8016 50.6907C59.5903 51.7848 59.5728 52.9131 59.7498 54.0159C58.8074 54.3949 57.9416 54.967 57.1996 55.701C57.0232 55.8374 56.8547 55.9856 56.6953 56.1446C55.7777 57.0257 54.5998 57.5234 53.3719 57.5488C53.826 55.9754 53.7594 54.2778 53.1835 52.7477C53.9589 52.4181 54.8304 52.4774 55.5642 52.9095C56.1359 53.2436 56.8475 53.0259 57.1708 52.4181C57.4942 51.8103 57.3123 51.0323 56.7601 50.6616C56.0311 50.1793 55.542 49.3656 55.4305 48.4492C56.9348 48.2291 58.3203 47.4508 59.3512 46.2466C59.9665 47.4608 60.1565 48.8736 59.886 50.2242L59.8812 50.2242ZM65.3897 32.3772C65.9109 33.2981 66.3142 34.2912 66.5886 35.329C66.9385 36.8979 67.6891 38.3298 68.7542 39.4604C67.6925 40.5869 66.9465 42.016 66.6018 43.5837C66.3308 44.6209 65.9309 45.6128 65.4131 46.5324C64.6699 47.6962 63.6189 48.5886 62.3976 49.0928C62.4107 47.283 61.8897 45.5139 60.9107 44.0436C61.0303 43.8501 61.1572 43.6541 61.2696 43.4645C62.2901 41.7765 62.9674 40.7378 63.998 40.7397C64.6607 40.741 65.1968 40.16 65.1956 39.442C65.1943 38.7241 64.6562 38.1411 63.9935 38.1398C62.9701 38.1379 62.2916 37.0967 61.2688 35.3957C61.1545 35.2044 61.0282 35.0131 60.9079 34.8205C61.8643 33.3555 62.3676 31.5988 62.3461 29.8015C63.5786 30.3063 64.6417 31.2046 65.3945 32.3772L65.3897 32.3772ZM59.7601 28.1769C59.782 28.329 59.8122 28.4916 59.8667 28.7842C60.1169 30.085 59.933 31.4381 59.3479 32.6024C58.3165 31.382 56.9244 30.59 55.4134 30.3643C55.5367 29.4724 56.0157 28.6856 56.7235 28.2128C57.2744 27.8441 57.4536 27.0668 57.1281 26.4578C56.8026 25.8487 56.0903 25.6284 55.5198 25.9603C54.7728 26.4027 53.8796 26.4531 53.0916 26.0974C53.6627 24.5726 53.7281 22.8786 53.2764 21.3036C54.5134 21.3255 55.7036 21.8283 56.6299 22.7203C56.766 22.8598 56.9097 22.9903 57.0601 23.1111C57.8315 23.871 58.7282 24.4664 59.7028 24.8658C59.5316 25.9632 59.5527 27.0864 59.7649 28.1769L59.7601 28.1769ZM45.1906 8.66976C46.1884 8.64514 47.1851 8.76728 48.1536 9.03283C49.581 9.49332 51.0977 9.51014 52.5305 9.08137C52.9059 10.6416 53.6783 12.0575 54.7596 13.1674C55.4546 13.9457 56.0501 14.8212 56.5303 15.7706C57.0916 17.0531 57.2827 18.4881 57.0785 19.8873C55.6386 18.9634 53.966 18.56 52.3037 18.7356C52.2074 18.5236 52.1146 18.305 52.0171 18.0968C51.1741 16.2948 50.6825 15.1408 51.1908 14.1837C51.5157 13.5632 51.3164 12.773 50.7446 12.4146C50.1728 12.0562 49.443 12.264 49.1105 12.8799C48.6022 13.8357 47.4326 13.944 45.5779 14.0432C45.3656 14.0558 45.146 14.0761 44.9301 14.09C44.2373 12.4571 43.088 11.1004 41.6455 10.2126C42.6557 9.32291 43.8912 8.78518 45.1906 8.66976V8.66976ZM36.3592 10.2391C37.1472 10.9438 38.0507 11.481 39.0219 11.8222C39.142 11.877 39.2705 11.9254 39.4061 11.9737L39.5874 12.0404C40.7504 12.462 41.7391 13.3165 42.3775 14.4518C40.8933 14.81 39.5717 15.7159 38.6386 17.0148C37.9855 16.4511 37.5934 15.6055 37.5668 14.7027C37.5655 13.9848 37.0274 13.4018 36.3647 13.4005C35.7021 13.3993 35.1659 13.9803 35.1672 14.6982C35.1473 15.6264 34.7408 16.4935 34.0615 17.0568C33.1334 15.7536 31.8168 14.8393 30.3376 14.4707C30.9792 13.3143 31.9812 12.445 33.1637 12.0192L33.3207 11.9623C33.4562 11.9144 33.5869 11.8666 33.6528 11.8329C34.6397 11.4901 35.5577 10.9495 36.3592 10.2391V10.2391ZM16.2121 15.6947C16.6887 14.7469 17.2812 13.8736 17.9737 13.0981C19.0511 11.9923 19.8187 10.5792 20.1886 9.02044C21.623 9.45461 23.1396 9.44351 24.5654 8.98839C25.5325 8.72646 26.5284 8.60808 27.5259 8.63648C28.827 8.75696 30.0656 9.29979 31.08 10.194C29.6335 11.0852 28.4834 12.4472 27.7922 14.0876C27.5786 14.0729 27.3614 14.0504 27.1502 14.037C25.2819 13.9204 24.1107 13.8012 23.5967 12.8331C23.3827 12.4298 22.9869 12.18 22.5582 12.1779C22.1295 12.1757 21.7332 12.4215 21.5185 12.8226C21.3038 13.2238 21.3033 13.7193 21.5173 14.1226C22.0313 15.0908 21.5688 16.1831 20.7082 18.03C20.6102 18.2417 20.5182 18.4613 20.4202 18.6795C18.766 18.5054 17.1052 18.9027 15.6757 19.8145C15.4658 18.4125 15.6528 16.9761 16.2121 15.6947ZM12.9386 28.5748C12.9695 28.4033 12.9992 28.2409 13.0182 28.1083C13.2295 27.0142 13.2471 25.8859 13.07 24.7832C14.0125 24.4041 14.8783 23.832 15.6203 23.098C15.7967 22.9616 15.9651 22.8134 16.1246 22.6544C17.0426 21.776 18.2201 21.281 19.4468 21.258C18.9928 22.8274 19.059 24.5212 19.6339 26.0474C18.8552 26.3815 17.9785 26.3226 17.2412 25.8869C16.6664 25.5268 15.9328 25.7387 15.6025 26.3602C15.2723 26.9817 15.4706 27.7774 16.0454 28.1374C16.7756 28.6243 17.2678 29.4387 17.387 30.3577C15.8841 30.5788 14.5 31.357 13.4699 32.5602C12.8524 31.344 12.6619 29.9281 12.9338 28.5748L12.9386 28.5748ZM6.21211 35.2153C6.48495 34.1778 6.88686 33.1859 7.40678 32.2667C8.14998 31.1028 9.20098 30.2104 10.4222 29.7063C10.4092 31.516 10.9302 33.2851 11.9092 34.7554C11.7895 34.9489 11.6627 35.145 11.5502 35.3345C10.5297 37.0225 9.85245 38.0612 8.82182 38.0593C8.15919 38.058 7.62303 38.639 7.62428 39.357C7.62552 40.0749 8.16371 40.6579 8.82634 40.6592C9.84977 40.6611 10.5283 41.7023 11.5511 43.4033C11.6714 43.5946 11.7917 43.7859 11.912 43.9786C10.9556 45.4435 10.4522 47.2002 10.4738 48.9975C9.24593 48.4899 8.18766 47.5913 7.43859 46.4205C6.91528 45.4999 6.50991 44.5069 6.23366 43.4687C5.88289 41.9 5.13149 40.4685 4.06564 39.3386C5.12513 38.2113 5.86903 36.7823 6.21211 35.2153V35.2153Z" fill="#B61DCF"/>
</g>
<defs>
<clipPath id="clip0">
<rect width="71.9883" height="77.9971" fill="white" transform="matrix(0.999998 0.00188403 0.00173889 0.999999 0.348022 0.333221)"/>
</clipPath>
</defs>
</svg>
