<svg width="73" height="79" viewBox="0 0 73 79" fill="none" xmlns="http://www.w3.org/2000/svg">
<g clip-path="url(#clip0)">
<path d="M71.487 66.6448L67.4244 66.6371C68.3617 65.2482 68.7459 63.4852 68.4435 61.7339C68.2798 60.7892 67.9263 59.9204 67.4279 59.172C68.3184 58.9512 69.1711 58.5154 69.918 57.8682C70.3408 57.5018 70.5876 56.9542 70.5953 56.3669C70.6031 55.779 70.3709 55.2222 69.9578 54.8393L60.1818 45.7801C59.4622 45.1128 58.9219 44.2472 58.6198 43.2755L56.3266 35.8935C56.326 35.8911 56.3249 35.8887 56.3244 35.8864L54.2593 29.2409C53.3231 26.2275 51.0935 23.8573 48.2952 22.9005L41.2192 20.4808C43.1367 19.0175 44.3903 16.5997 44.3855 13.866L44.3763 8.54786C44.3685 4.08186 41.0086 0.442647 36.8872 0.434882C32.7658 0.427117 29.4186 4.0537 29.4263 8.51969L29.4356 13.8384C29.4401 16.446 30.5887 18.7707 32.3637 20.2558C32.1803 20.3102 31.9975 20.3676 31.8153 20.4291L24.6477 22.856C21.8527 23.8022 19.6314 26.164 18.7057 29.1739L14.3934 43.1921C14.0946 44.1627 13.5579 45.0269 12.8407 45.6909L3.09609 54.714C2.68428 55.0952 2.45403 55.6506 2.46384 56.2385C2.47365 56.8265 2.7223 57.3744 3.14639 57.7424C3.92967 58.4222 4.82733 58.8714 5.76249 59.085C4.88294 60.843 4.71916 62.9885 5.40303 64.935C5.61056 65.5239 5.88335 66.0547 6.2115 66.5224L1.60789 66.5137C1.02516 66.5126 0.554263 67.0229 0.555361 67.6543C0.556458 68.2851 1.02913 68.7977 1.61186 68.7988L64.7267 68.9177L64.7278 68.9177L64.7289 68.9177L71.491 68.9305C72.0737 68.9316 72.5446 68.4207 72.5435 67.7899C72.5424 67.1585 72.0692 66.6459 71.487 66.6448ZM47.4422 39.9464L51.184 49.994C51.205 50.05 51.2298 50.1042 51.2584 50.156C51.9196 51.3462 52.8599 52.3328 53.9788 53.0104L55.2147 53.7583L47.4618 51.1801L47.4422 39.9464ZM58.8139 47.5145L68.3072 56.3114C67.0379 57.229 65.4019 57.3074 64.0466 56.4896L55.0023 51.0164C54.2288 50.5484 53.5746 49.8718 53.1063 49.0575L49.7712 40.1014L54.6904 37.7821L56.6213 43.9971C57.0455 45.3618 57.8039 46.5777 58.8139 47.5145V47.5145ZM31.5446 13.8424L31.5353 8.52367C31.5298 5.31803 33.9325 2.71437 36.8912 2.71995C39.8499 2.72552 42.2617 5.33825 42.2672 8.54389L42.2765 13.8626C42.282 17.0683 39.8793 19.6719 36.9206 19.6663C33.962 19.6608 31.5502 17.048 31.5446 13.8424ZM25.2831 25.0369L32.4512 22.6106C35.0794 21.7206 37.8596 21.7258 40.4908 22.6258L47.6674 25.0791C49.8227 25.8163 51.54 27.6416 52.2608 29.9631L54.0144 35.6059L48.9805 37.9785L47.3549 33.6136C47.1656 33.1056 46.6714 32.8125 46.175 32.9157C45.6793 33.0189 45.322 33.4889 45.3229 34.0358L45.3522 50.8792L27.688 50.846L27.6587 34.0025C27.6578 33.4556 27.2989 32.9843 26.8027 32.8792C26.3077 32.7741 25.8128 33.0654 25.6253 33.5726L24.2313 37.3451L19.2501 34.6395L20.7067 29.9037C21.4194 27.5849 23.1303 25.766 25.2831 25.0369V25.0369ZM14.214 47.4305C15.2213 46.4975 15.9755 45.2844 16.3944 43.9213L18.5767 36.8263L23.4458 39.471L22.6827 41.5362C22.4668 42.1214 22.7299 42.7871 23.2707 43.0238C23.811 43.2599 24.4251 42.9772 24.6411 42.392L25.56 39.9058L25.5795 51.1353L17.9875 53.5965L19.0683 52.9446C20.1848 52.2719 21.1223 51.2888 21.7793 50.1011C21.8077 50.0494 21.8324 49.9953 21.8531 49.9388L22.6376 47.8147C22.8541 47.2295 22.5909 46.5638 22.0501 46.3277C21.5092 46.091 20.8957 46.3737 20.6792 46.9589L19.927 48.995C19.4616 49.8081 18.8103 50.4817 18.0383 50.9468L9.01414 56.3854C7.66062 57.1987 6.02488 57.114 4.75182 56.1917L14.214 47.4305ZM10.6317 66.5301L10.6278 66.5301C9.09549 66.5273 7.90984 65.6521 7.37389 64.1283C6.76784 62.4038 7.17733 60.373 8.36529 59.1024L26.7924 53.1293L46.2536 53.166L63.7676 58.9902C65.1343 59.4444 66.1073 60.6245 66.3703 62.1466C66.6333 63.6686 66.1196 65.1446 64.9953 66.0946L64.3608 66.632L42.0919 66.59C41.9543 65.7888 41.624 64.723 40.8452 63.7736L42.9458 63.652C43.5273 63.6186 43.9718 63.0803 43.9383 62.45C43.9054 61.8204 43.4069 61.3374 42.8259 61.3703L37.1113 61.7017C36.8695 61.6542 36.6174 61.6145 36.3526 61.5848L20.0852 59.7136C19.5018 59.6465 18.9879 60.1019 18.9286 60.729C18.8693 61.3567 19.291 61.9192 19.87 61.9858L36.1385 63.857C36.3846 63.8848 36.6159 63.9227 36.8324 63.9684C36.8368 63.9696 36.8417 63.9702 36.8461 63.9714C38.9521 64.4228 39.6946 65.6655 39.9516 66.5854L10.6317 66.5301Z" fill="#B61DCF"/>
<path d="M48.3545 63.3367C48.3738 63.3367 48.3935 63.3367 48.4133 63.3356L55.5245 62.9235C56.1055 62.8895 56.55 62.3518 56.5171 61.7216C56.4841 61.0913 55.9851 60.6072 55.4041 60.6418L48.2934 61.0539C47.7119 61.0873 47.2674 61.6256 47.3003 62.2552C47.3327 62.864 47.7982 63.3356 48.3545 63.3367V63.3367Z" fill="#B61DCF"/>
</g>
<defs>
<clipPath id="clip0">
<rect width="71.9883" height="77.9971" fill="white" transform="matrix(0.999998 0.00188403 0.00173889 0.999999 0.438354 0.366211)"/>
</clipPath>
</defs>
</svg>
