<?xml version="1.0" encoding="utf-8"?>
<!-- Generator: Adobe Illustrator 21.0.0, SVG Export Plug-In . SVG Version: 6.00 Build 0)  -->
<svg version="1.1" id="Layer_1" xmlns="http://www.w3.org/2000/svg" xmlns:xlink="http://www.w3.org/1999/xlink" x="0px" y="0px"
	 width="2000px" height="2000px" viewBox="0 0 2000 2000" style="enable-background:new 0 0 2000 2000;" xml:space="preserve">
<style type="text/css">
	.st0{fill:#FFBDC8;}
	.st1{fill:#FFCCD7;}
	.st2{fill:url(#SVGID_1_);}
	.st3{fill:#F96B8A;}
	.st4{fill:url(#SVGID_2_);}
	.st5{fill:#6CC7FF;}
	.st6{fill:url(#SVGID_3_);}
	.st7{fill:#355FBC;}
	.st8{fill:url(#SVGID_4_);}
	.st9{fill:url(#SVGID_5_);}
	.st10{fill:#B6FFFB;}
	.st11{fill:url(#SVGID_6_);}
	.st12{fill:url(#SVGID_7_);}
	.st13{fill:url(#SVGID_8_);}
	.st14{fill:#27BDE0;}
	.st15{fill:url(#SVGID_9_);}
	.st16{fill:url(#SVGID_10_);}
	.st17{fill:#FFFFFF;}
	.st18{fill:url(#SVGID_11_);}
	.st19{fill:#A1DBFF;}
	.st20{fill:#4BE6FC;}
	.st21{fill:url(#SVGID_12_);}
	.st22{fill:url(#SVGID_13_);}
	.st23{fill:url(#SVGID_14_);}
	.st24{fill:url(#SVGID_15_);}
	.st25{fill:url(#SVGID_16_);}
	.st26{fill:url(#SVGID_17_);}
</style>
<g>
	<rect class="st0" width="2000" height="2000"/>
	<g>
		<path class="st1" d="M1703.4,429.3c7.2-36.1,3.9-73.5-13.8-106.2c-17.6-32.7-47-58.4-80-74.9c-83.5-42-181.3-22.3-266.5,3.7
			c-89.6,27.3-176.1,64.9-267.3,86.8c-44.7,10.7-90.5,17.4-136.6,16c-42.8-1.3-84.5-10.5-124.7-25.3
			c-76.8-28.4-145.7-73.9-220.3-107.4c-70.5-31.7-153.1-55.4-229.5-30.7c-35.8,11.6-67.3,34.7-85,68.4c-17.7,33.7-20,72.9-14.8,110
			c12.1,86.5,67.1,156.6,94.2,238c14.8,44.4,17.5,89.5,6.5,135.1c-10.9,45.2-31.1,87.4-48.6,130.3c-16.9,41.5-30.8,85.6-31.4,130.9
			c-0.5,40.2,11.7,78.3,37,109.6c45.4,56.2,117.3,82.8,163.2,138.5c27,32.8,39.5,74,53.7,113.3c13.1,36.3,28.4,72,55.6,100.2
			c46.3,48.1,116.6,71.5,182.6,64.5c30.2-3.2,59.6-12.6,85.4-28.7c88.5-27.1,177.7,25.1,257.6,56.8c42.6,16.9,86.6,32,131.6,40.8
			c42.6,8.3,87.2,10.8,129.5-0.5c81.4-21.8,131.8-92,170.2-162.3c44.5-81.4,84.9-166.7,110.7-256c25.5-88.4,34.8-182.6,11.5-272.6
			c-22.3-85.8-73.4-170.9-54.4-262.3C1635.8,568.9,1688.2,505.8,1703.4,429.3z"/>
		<linearGradient id="SVGID_1_" gradientUnits="userSpaceOnUse" x1="1015.6927" y1="1260.8151" x2="1015.6927" y2="1642.0442">
			<stop  offset="0" style="stop-color:#5CFFFF"/>
			<stop  offset="0.3243" style="stop-color:#4ADDF7"/>
			<stop  offset="1" style="stop-color:#208CE5"/>
		</linearGradient>
		<path class="st2" d="M1342.3,1534.6c-2.3-14.7-6.7-29.3-10.3-43.7c-3.9-15.6-7.8-31.2-11.7-46.8c-3.3-13.2-5.8-27-10.7-39.8
			c-4.2-10.9-10.4-20.9-20.8-26.8c-9.8-5.7-21.2-7-32.2-8.4c-10.8-1.4-23.1-2.5-31.6-9.9c-9.2-8-11.6-21.1-14.1-32.4
			c-4.5-19.9-14.6-45.8-39.3-45c-12.7,0.4-23.2,8.2-35.3,10.8c-10.5,2.2-19.8-2.3-27.4-9.2c-15.4-13.9-25.5-33.4-43.8-44.3
			c-16.5-9.8-36.5-11.9-55.1-8.4c-18.8,3.6-36.6,13.7-48.3,29c-13.5,17.6-14.8,39.8-19.4,60.7c-2.3,10.3-5.5,21-12.9,28.8
			c-8.3,8.7-20.2,11.8-31.5,14.8c-11.2,3-22.8,6-32.2,13.1c-8.4,6.3-14,15-17.4,24.8c-7.1,20.5-4.3,42.8-8.8,63.8
			c-2.3,10.6-6.6,20.3-14.3,28.1c-8,8.2-18.1,13.8-28.3,18.8c-21.6,10.6-43,19.4-61,35.9c-17.6,16.1-31.1,36.7-39.2,59.1
			c-2,5.4-3.5,10.9-4.8,16.4c-2.8,1.5-4.8,4.9-3.1,8.6c0.4,0.8,0.7,1.5,1.1,2.3c-0.4,2.4-0.7,4.8-0.9,7.2c-0.5,4.8,4,6.6,7.7,5.5
			c24,40.8,64.3,70.2,107.9,87.9c59.5,24.1,125.2,26.2,188.6,25.8c34.4-0.2,68.9-1.1,103.3-2.6c17.6-0.8,35.3-1.7,52.9-2.8
			c13.7-0.8,27.8-1.5,40.9-5.7c26.3-8.3,41.7-31.6,40.7-59c-0.9-27.8-18.1-51.5-37.3-70.2c-10.2-9.9-21.1-19-32.7-27.1
			c11.3,1.6,22.7,2.8,34.1,3.8c28.1,2.3,57,3.5,85.1,1c20.8-1.8,44.6-7.3,56.6-26.2C1343.9,1561.1,1344.2,1547.5,1342.3,1534.6z"/>
		<ellipse class="st3" cx="996.9" cy="1750.5" rx="716.4" ry="68.5"/>
		<g>
			
				<linearGradient id="SVGID_2_" gradientUnits="userSpaceOnUse" x1="1341.4983" y1="1369.0638" x2="1341.4983" y2="1587.0592" gradientTransform="matrix(0.9981 6.172930e-02 -6.172930e-02 0.9981 82.2965 -196.6714)">
				<stop  offset="0" style="stop-color:#3BA6F8"/>
				<stop  offset="1" style="stop-color:#208CE5"/>
			</linearGradient>
			<path class="st4" d="M1406.7,1427.9c-1.1-9.3-1.3-19,0.7-28.2c2.3-10.5,7.7-19.4,13.9-28c11.8-16.5,26.1-36.2,17-57.4
				c-6.8-15.8-23.2-24.5-34.3-36.9c-13.5-15.1-15.8-35.9-14.6-55.3c1.4-23.2,7.5-46.1,4.4-69.4c-1.3-9.9-4.4-19.9-10.9-27.7
				c-6.1-7.3-15.6-12.1-25.2-11.3c-17.6,1.4-25.5,19.6-28.9,34.6c-2.4,10.6-3.7,21.4-5.3,32.1c-1.9,12.3-3.9,24.6-5.8,36.9
				c-2.8,18.2-4.7,38.2-14.8,54.1c-4.7,7.4-11.3,13.2-19.7,15.9c-9.6,3.2-20.1,3.5-28.8,9.1c-14.4,9.1-18.9,26.9-18.3,43
				c0.8,21,10.7,40,13.5,60.6c1.5,10.9,0.2,21.5-4.4,31.6c-4.2,9.3-10.5,17.5-16.1,25.9c-5.5,8.2-10.5,16.8-13.4,26.3
				c-2.9,9.2-4.2,18.9-3.9,28.5c0.6,19,7.2,37.8,19.5,52.4c12.1,14.4,29.3,24.5,47.7,28.5c8.8,1.9,17.6,2.4,26.5,1.6
				c0.3,0,0.6,0,1-0.1c0.3,0,0.5-0.1,0.8-0.2c20.4-4.5,41.5-7.2,60.7-15.8c17.5-7.8,29.3-22.2,37.5-39.2c4-8.3,7.4-17.1,9.5-26.1
				c2.1-9.3,2.3-18.7,1.5-28.2C1414.8,1466,1409,1447.2,1406.7,1427.9z"/>
			<path class="st5" d="M1338.6,1348.1c0.4,0,0.7-0.2,1.1-0.4c14.9-7.6,26.7-19.9,34-34.9c1.9-3.8-4.4-5.9-6.3-2.2
				c-5.9,12.1-15.4,22.1-26.9,28.9c3.7-15.7,6.9-31.4,9.6-47.3c4.8-29.1,7.2-58.6,5.5-88c-0.2-4.2-6.9-4.7-6.6-0.4
				c1.7,28.9-0.7,57.7-5.3,86.1c-4.1-9-8.1-18-12.2-27.1c-1.8-3.9-7.7-0.9-5.9,3c5.1,11.3,10.1,22.6,15.2,33.8c0.3,0.6,0.6,1,1,1.3
				c-3.7,20.7-8.5,41.2-13.7,61.5c-3.3,13.1-6.8,26.2-10.3,39.2c-8.4-14.1-13.2-30.2-13.8-46.6c-0.1-4.2-6.8-4.7-6.6-0.4
				c0.7,20,6.9,39.1,18.1,55.6c-9.6,36.2-18.9,72.5-24.2,109.5c-0.8,5.3-1.5,10.6-2.1,15.9c-11.9-14.8-20.6-31.9-25.4-50.3
				c-1.1-4.1-7.6-2.8-6.5,1.4c5.6,21.4,16.1,41.2,30.7,57.8c0.1,0.1,0.2,0.2,0.3,0.3c-0.5,5.8-0.8,11.6-0.8,17.4
				c0.1,12.9,2.4,25.8,10.2,36.4c2.5,3.4,7.5-1,5-4.4c-6.9-9.4-8.6-21.3-8.6-32.7c0-12.4,1.6-24.9,3.2-37.2
				c2.1-15.7,5-31.3,8.3-46.7c20.3-11.3,38.1-26.7,52.3-45.1c2.6-3.4-2.9-7.1-5.5-3.7c-12.3,16-27.5,29.6-44.8,40
				c1.7-7.6,3.5-15.2,5.4-22.8C1321.3,1413.5,1330.6,1380.9,1338.6,1348.1z"/>
		</g>
		<g>
			
				<linearGradient id="SVGID_3_" gradientUnits="userSpaceOnUse" x1="1503.0931" y1="1333.5782" x2="1566.4849" y2="1481.0583" gradientTransform="matrix(0.9933 -0.1155 0.1155 0.9933 -141.8733 181.5531)">
				<stop  offset="0" style="stop-color:#1E4099"/>
				<stop  offset="1" style="stop-color:#213182"/>
			</linearGradient>
			<path class="st6" d="M1391.5,1568.2c12.5,32.1,43.1,64.2,80.2,60.2c0.3,0,0.6,0,0.9-0.1c0.2,0,0.5-0.1,0.7-0.1
				c9-1.6,17.9-4,26.5-7.3c34.5-13.2,64.1-38.9,81.8-71.4c9.5-17.6,14.6-36.3,17.5-56c3.2-21.5,4.2-44.3,13.6-64.3
				c8.9-19.1,26.2-31.3,39.3-47.1c14-16.8,19.5-36.7,17.1-58.4c-5.2-46.1-42.9-86.7-33.4-134.5c4.1-20.4,11.9-40.9,2.7-61.1
				c-8.2-17.9-27.9-24.1-45.1-14.6c-37.7,20.8-30.6,73.1-48.6,106.3c-10.1,18.6-28.8,29.6-41.7,45.9c-14,17.7-16.6,40.1-22.3,61.2
				c-11.8,44.5-43,79.6-66.1,118.5C1393.1,1481.6,1375.3,1526.8,1391.5,1568.2z"/>
			<path class="st7" d="M1402.4,1608.3c38.3-30.8,67.6-69.2,90.8-111.4c-9.5-22-12.3-45.6-8.3-69.3c1.2-6.9,11.7-3.8,10.5,3.1
				c-3,17.9-1.4,36.3,4.5,53.4c7.2-14,13.7-28.3,19.7-42.9c0.1-0.8,0.4-1.5,0.9-2.1c8.2-20.1,15.4-40.6,21.8-61.3
				c-0.7-0.6-1.2-1.4-1.6-2.4c-5.5-16.5-9.5-33.4-12-50.6c-1-6.9,9.6-9.7,10.6-2.7c1.9,13,4.6,25.7,8.2,38.3
				c1.5-5.1,2.9-10.1,4.3-15.2c8.4-30.6,15.8-61.6,23.1-92.5c1.6-6.9,12.1-3.7,10.5,3.1c-4.8,20.3-9.6,40.7-14.8,61
				c11.1-6.1,21.6-13.1,31.5-21c5.5-4.4,13.1,3.5,7.6,7.9c-13.3,10.6-27.5,19.8-42.7,27.4c-9.4,35.7-20.1,71.2-33.5,105.5
				c17.6-2.2,34-12.9,44.6-27c4.2-5.6,13.6,0.1,9.3,5.7c-13.7,18.4-35.2,32-58.5,32.7c-13.3,32.1-29.2,62.9-49,91.7
				c20-0.4,39.3-7.7,54.6-20.9c5.3-4.6,12.9,3.3,7.6,7.9c-19.3,16.7-44.4,25.4-69.9,23.8c-1.2,1.7-2.4,3.3-3.7,5
				c-17.1,22.4-36.5,43-58.5,60.7C1404.5,1620.6,1396.9,1612.7,1402.4,1608.3z"/>
		</g>
		<g>
			
				<linearGradient id="SVGID_4_" gradientUnits="userSpaceOnUse" x1="547.3635" y1="1145.0167" x2="547.3635" y2="1356.7566" gradientTransform="matrix(0.9773 -0.2117 0.2117 0.9773 -256.3737 171.8785)">
				<stop  offset="0" style="stop-color:#3BA6F8"/>
				<stop  offset="1" style="stop-color:#208CE5"/>
			</linearGradient>
			<path class="st8" d="M632.7,1320.5c-3.5-8.4-6.2-17.4-6.8-26.6c-0.6-10.4,2.1-20.2,5.6-29.9c6.7-18.6,14.9-40.7,0.7-58.1
				c-10.6-13-28.2-16.8-41.8-25.4c-16.6-10.5-24.2-29.4-28.2-47.8c-4.8-22-5.2-45.1-14.2-66.1c-3.8-8.9-9.4-17.5-17.5-23
				c-7.6-5.2-17.7-7.2-26.5-3.9c-16.1,6-18.7,25-17.9,39.9c0.6,10.5,2.2,21,3.5,31.4c1.4,12,2.9,24,4.3,36c2.1,17.7,5.7,37,0.5,54.5
				c-2.4,8.2-7.1,15.3-14.2,20.1c-8.1,5.5-17.9,8.6-24.6,16.1c-11.1,12.3-10.6,30.1-5.7,45c6.3,19.4,20.5,34.6,28.6,53.1
				c4.3,9.8,5.9,20.1,4.2,30.7c-1.5,9.8-5.2,19.1-8.2,28.4c-3,9.1-5.3,18.5-5.6,28.1c-0.3,9.4,1,18.8,3.9,27.7
				c5.6,17.6,16.7,33.4,32.1,43.9c15.1,10.2,33.9,15.2,52.1,14.1c8.7-0.5,17.1-2.4,25.2-5.5c0.3-0.1,0.6-0.2,0.9-0.3
				c0.3-0.1,0.5-0.2,0.7-0.4c17.8-9.6,36.9-17.7,52.6-30.8c14.3-11.9,21.5-28.5,24.8-46.5c1.6-8.8,2.4-17.9,2-26.9
				c-0.5-9.2-2.8-18.1-6.1-26.7C650.3,1353.9,639.9,1337.9,632.7,1320.5z"/>
			<path class="st5" d="M547.9,1263.8c0.3-0.1,0.7-0.3,1-0.6c11.9-11.1,19.7-25.6,22.6-41.6c0.7-4.1-5.7-4.4-6.4-0.4
				c-2.4,12.8-8.6,24.7-17.5,34.2c-0.7-15.6-1.8-31.2-3.5-46.7c-3.2-28.4-8.7-56.6-18.1-83.7c-1.3-3.9-7.7-2.6-6.3,1.4
				c9.2,26.6,14.6,54.1,17.8,81.9c-6.2-7.4-12.3-14.7-18.5-22.1c-2.7-3.2-7.4,1.2-4.8,4.4c7.7,9.2,15.4,18.4,23.2,27.6
				c0.4,0.5,0.8,0.8,1.3,0.9c2,20.3,2.9,40.8,3.4,61.1c0.3,13.1,0.5,26.3,0.7,39.4c-11.6-10.9-20.3-24.8-25.2-39.9
				c-1.3-3.9-7.6-2.6-6.3,1.4c5.9,18.5,16.8,34.7,31.6,47.2c0.6,36.4,1.5,72.7,6.3,108.8c0.7,5.1,1.4,10.3,2.2,15.4
				c-15-10.7-27.7-24.4-37-40.3c-2.1-3.6-7.8-0.6-5.7,3c10.9,18.5,25.9,34.3,44,45.9c0.1,0.1,0.2,0.1,0.3,0.2
				c1.1,5.6,2.3,11.1,3.9,16.5c3.5,12.1,9,23.5,19.2,31.3c3.3,2.5,6.8-2.9,3.5-5.4c-9-6.9-13.7-17.6-16.7-28.3
				c-3.2-11.6-5.1-23.7-6.8-35.7c-2.2-15.2-3.6-30.5-4.6-45.9c16-15.9,28.6-35,37-56c1.5-3.9-4.6-5.8-6.1-2
				c-7.3,18.2-17.9,34.9-31.3,49.2c-0.4-7.6-0.7-15.2-0.9-22.8C549,1329.5,549.2,1296.6,547.9,1263.8z"/>
		</g>
		<g>
			
				<linearGradient id="SVGID_5_" gradientUnits="userSpaceOnUse" x1="641.8586" y1="1128.0359" x2="641.8586" y2="1414.3043" gradientTransform="matrix(0.9868 -0.1618 0.1618 0.9868 -192.3057 151.0784)">
				<stop  offset="0" style="stop-color:#5CFFFF"/>
				<stop  offset="1" style="stop-color:#42E8E3"/>
			</linearGradient>
			<path class="st9" d="M735.3,1378.6c-2.1-10-1.2-19.7,0.7-29.6c3.5-18,8.3-36-0.1-53.5c-6.9-14.4-19.4-25-30.5-36
				c-5.6-5.6-11.1-11.4-15.6-18c-5.6-8.2-8.3-17.6-9.9-27.3c-1.8-10.5-2.8-21.2-6.6-31.2c-3.1-8-8.9-15.3-16.1-20.1
				c-6.6-4.4-14.7-6.6-22.4-4.2c-7.9,2.5-13.3,9.4-16,17c-5.7,16.4-1.9,35.1-0.1,51.9c1.8,16.6,2.7,34.7-7.8,48.9
				c-9.1,12.3-23.4,19.9-31.7,32.9c-4.2,6.6-6.2,14.2-5.4,22.1c0.9,8.9,5.4,16.9,10.3,24.1c5.3,7.8,11.4,15.1,16.1,23.3
				c4.2,7.3,6.9,15.2,8,23.6c2.2,16.4-1.4,33.1-5.4,48.9c-8.3,33.3-19.7,68.6-3.2,101.4c8,15.9,20.9,29.1,36.7,37.1
				c16.4,8.3,35.9,10.5,53.8,6.7c8.8-1.9,17.2-5.1,25-9.7c1.6-0.9,1.9-2.6,1.5-4c21.5-19.6,36.2-46,42.9-74.4
				c3.8-16.1,4.9-32.8,3.1-49.3c-2-17.9-8-34.2-15.6-50.4C742.3,1399.2,737.5,1389.3,735.3,1378.6z"/>
			<path class="st10" d="M672.1,1366.3c0.4-0.3,0.7-0.7,1-1.3c7.2-17,12.1-34.8,14.6-53.1c0.6-4.1-5.8-4.8-6.4-0.7
				c-2,14.6-5.6,29-10.7,42.8c-2-15.6-4.2-31.2-6.4-46.8c-4.3-29-9-57.8-14.2-86.6c-0.7-4.1-7.1-3-6.4,1c5,27.7,9.6,55.5,13.7,83.4
				c-6.8-5.9-12.4-13.1-16.3-21.2c-1.8-3.7-7.7-1-5.8,2.7c5.4,11.1,13.5,20.6,23.6,27.8c3,20.5,5.7,41,8.2,61.5
				c1.7,14.3,3.3,28.7,4.8,43c-9.5-8.4-16.9-18.9-21.6-30.8c-1.5-3.8-7.4-1.2-5.8,2.7c5.8,14.5,15.3,27,27.6,36.6
				c0.2,0.2,0.5,0.3,0.8,0.4c3.5,34.4,6.3,68.8,8.4,103.2c0.4,6.5,0.8,13,1.1,19.5c-12-13-21.4-28-27.9-44.5
				c-1.5-3.9-7.4-1.2-5.8,2.7c7.3,18.4,18.2,35.2,32.1,49.3c0.6,0.7,1.4,1,2.1,1c1,19.9,1.8,39.8,2.4,59.7c0.1,4.1,6.5,3,6.4-1
				c-1.1-36.9-2.9-73.7-5.5-110.5c0.3-0.2,0.6-0.5,0.9-0.8c10.7-14.5,18-31,21.7-48.6c0.9-4.1-5.5-4.7-6.4-0.7
				c-3.1,14.4-8.9,28-16.9,40.2c-0.9-11.8-1.8-23.5-2.8-35.3C679.4,1430,676,1398.1,672.1,1366.3z"/>
		</g>
		<g>
			
				<linearGradient id="SVGID_6_" gradientUnits="userSpaceOnUse" x1="1582.0096" y1="1361.1595" x2="1582.0096" y2="1622.4858" gradientTransform="matrix(0.7877 0.6161 -0.6161 0.7877 1310.4834 -663.1171)">
				<stop  offset="0" style="stop-color:#5CFFFF"/>
				<stop  offset="1" style="stop-color:#42E8E3"/>
			</linearGradient>
			<path class="st11" d="M1640.5,1593.7c5.4-7.6,12.5-13,20.3-17.8c14.2-8.8,29.3-16.7,35.8-33.1c5.4-13.5,4.8-28.5,5.3-42.8
				c0.3-7.2,0.8-14.5,2.4-21.6c2.1-8.8,6.7-16.4,12.2-23.6c5.9-7.7,12.5-15,16.8-23.7c3.5-7,4.8-15.5,3.5-23.2
				c-1.2-7.1-4.6-14-11.1-17.7c-6.6-3.8-14.5-3.1-21.3-0.2c-14.6,6.3-24.8,20.4-34.9,32c-10.1,11.5-21.6,23.2-37.6,25
				c-13.9,1.5-27.8-3.4-41.7-0.9c-7,1.3-13.4,4.6-18.2,10c-5.4,6.1-8,14.1-9.8,21.8c-2,8.4-3.1,17-5.6,25.2
				c-2.3,7.4-5.9,14.1-10.9,20c-9.7,11.6-23.1,19.5-36.1,26.7c-27.4,15-58.2,29.2-70.1,60.5c-5.7,15.2-6.6,32-2.2,47.6
				c4.6,16.2,15.2,30.6,28.8,40.3c6.7,4.8,14.1,8.4,22,10.8c1.6,0.5,2.9-0.3,3.6-1.4c26.5,2.3,53.3-4.2,76.5-17.2
				c13.2-7.4,25.1-17.1,35-28.4c10.8-12.4,18-26.5,24.2-41.6C1631.1,1611.1,1634.8,1601.7,1640.5,1593.7z"/>
			<path class="st10" d="M1609.7,1543.6c0.5,0.1,1,0,1.5-0.2c15.8-5.7,30.9-13.4,44.7-23.1c3.1-2.2-0.4-6.9-3.5-4.7
				c-11.1,7.7-22.9,14.1-35.4,19.2c9.2-11,18.4-22.1,27.4-33.3c16.8-20.8,33.3-41.8,49.4-63.1c2.3-3-2.3-6.6-4.6-3.6
				c-15.5,20.5-31.3,40.8-47.5,60.8c-0.3-8.2,1.1-16.4,4.2-24.1c1.4-3.5-4-5.8-5.4-2.3c-4.1,10.5-5.5,21.8-4.1,33
				c-11.9,14.7-24,29.2-36.2,43.5c-8.5,10-17.2,20-25.9,29.9c-0.2-11.6,2.3-23,7.3-33.5c1.6-3.4-3.8-5.7-5.4-2.3
				c-6.1,12.8-8.7,27-7.5,41.1c0,0.3,0.1,0.5,0.2,0.8c-20.9,23.6-42.3,46.8-64.1,69.5c-4.1,4.3-8.2,8.6-12.4,12.8
				c1.3-16.1,5.5-31.7,12.6-46.3c1.6-3.4-3.8-5.7-5.4-2.3c-7.9,16.3-12.4,34-13.3,52.1c0,0.8,0.2,1.5,0.6,2.1
				c-12.7,13-25.6,25.8-38.6,38.5c-2.7,2.6,2,6.2,4.6,3.6c24.1-23.5,47.7-47.5,70.8-72c0.3,0.1,0.7,0.1,1.1,0.1
				c16.3-1.8,31.9-7.1,46.1-15.5c3.3-1.9-0.3-6.6-3.5-4.7c-11.6,6.8-24.3,11.4-37.5,13.5c7.4-7.9,14.7-15.8,21.9-23.7
				C1571.5,1588,1590.8,1566,1609.7,1543.6z"/>
		</g>
		<g>
			
				<linearGradient id="SVGID_7_" gradientUnits="userSpaceOnUse" x1="420.6088" y1="1360.4366" x2="505.3875" y2="1557.6736" gradientTransform="matrix(0.9948 -0.1015 0.1015 0.9948 -135.805 61.553)">
				<stop  offset="0" style="stop-color:#1E4099"/>
				<stop  offset="1" style="stop-color:#213182"/>
			</linearGradient>
			<path class="st12" d="M593.8,1475.2c-30.1-32.1-67.1-58.9-87.7-98.8c-9.8-18.9-17-39.6-34-53.5c-15.7-12.8-35.8-19.3-49.3-34.9
				c-24.1-27.8-28.3-79.1-68.6-90.9c-18.3-5.4-35.8,4.6-39.8,23.4c-4.5,21.1,7.2,39,15.4,57.5c19.1,43.5-8.3,90-3.5,134.9
				c2.2,21.2,11.7,38.9,28.5,52c15.8,12.3,34.8,20.3,47.3,36.5c13.1,17.1,18.9,38.5,26.4,58.3c6.9,18.1,15.6,34.8,28.4,49.5
				c23.6,27.2,57.2,45.4,92.7,50.7c8.8,1.3,17.8,1.7,26.7,1.3c0.2,0,0.4,0,0.7,0c0.3,0,0.6-0.1,0.8-0.1c36.1-4,58.4-41,63.6-74.1
				C648.1,1544.2,621.7,1505,593.8,1475.2z"/>
			<path class="st7" d="M639.4,1627.4c-42.9-21.3-78.8-51.6-109.7-86.8c4.4-22.9,2.1-46-6.6-67.6c-2.6-6.3-11.9-1.1-9.3,5.2
				c6.6,16.4,8.9,34.3,6.9,51.7c-9.7-11.8-19-24.1-27.8-36.7c-0.3-0.7-0.7-1.3-1.3-1.8c-12-17.4-23.1-35.4-33.6-53.7
				c0.5-0.7,0.9-1.6,1-2.7c1.8-16.8,2.1-33.7,0.8-50.6c-0.5-6.8-11.2-7.2-10.7-0.3c0.9,12.7,1,25.4,0.2,38.1
				c-2.5-4.5-4.9-9-7.3-13.5c-14.5-27.4-27.9-55.2-41.4-83.1c-3-6.2-12.3-1-9.3,5.2c8.8,18.3,17.7,36.6,26.9,54.9
				c-11.8-3.5-23.3-7.9-34.3-13.4c-6.1-3-11.7,6.1-5.6,9.1c14.9,7.3,30.3,13.1,46.4,17.1c16.4,32,34,63.5,54,93.3
				c-17.2,1.6-35.1-5.1-48.1-16.3c-5.2-4.4-12.9,2.9-7.7,7.4c16.9,14.6,40.2,23,62.5,18.8c19.4,27.7,41,53.7,65.9,76.9
				c-19.1,3.8-39,1-56.3-8.4c-6-3.3-11.6,5.8-5.6,9.1c21.8,11.9,47.6,14.9,71.5,7.9c1.5,1.3,3,2.6,4.5,3.9
				c21,17.7,43.7,33.2,68.3,45.4C640,1639.5,645.6,1630.4,639.4,1627.4z"/>
		</g>
		<g>
			<linearGradient id="SVGID_8_" gradientUnits="userSpaceOnUse" x1="746.6388" y1="233.8068" x2="937.4221" y2="789.5124">
				<stop  offset="0" style="stop-color:#F28F8F"/>
				<stop  offset="0.9949" style="stop-color:#E27474"/>
			</linearGradient>
			<path class="st13" d="M981.9,373.2c-0.6-7.3-6.6-13.2-14.6-14.2c-9.5-1.3-22.7,0.1-30.2,14.5c-12.8,24.3-35.1,77.4-29.4,106.8
				c5.7,29.5,7.7,35.8-0.9,64.7c-8.6,28.9-43.8,80.3-46.3,147.8s-0.7,85.4-5.1,122.9c-3.4,29.1-25.5,101.8-24.3,171.1
				c1.3,69.3,10.9,102.8,28.7,116.7s33.2,16.2,60,8.1c26.8-8.1,12.8-123,6.4-202.1c-6.4-79.1-9.6-114.3,0.6-166.3
				s16-147.8,21.1-187.7c5.1-39.8,3.8-51.4,30.6-78.5c26.8-27.1,36.4-52.6,25.5-43.9c-10.9,8.7-31.9,26-30,13.9
				C975.6,437.1,983.7,394.7,981.9,373.2z"/>
			<path class="st14" d="M827.7,1431.9c0,0-164.9,77.1-203.3,96.4c-37,18.7-123.3,61.7-145.5,78.3c-15.3,11.5-44.2,79.6-4.3,97.2
				c40,17.6,376.7-48.8,431.6-71.1c54.9-22.4,75.2-50.8,75.2-50.8L827.7,1431.9z"/>
			<g>
				<linearGradient id="SVGID_9_" gradientUnits="userSpaceOnUse" x1="1076.7321" y1="1557.5922" x2="1236.3604" y2="865.3741">
					<stop  offset="0" style="stop-color:#F28F8F"/>
					<stop  offset="1" style="stop-color:#E27474"/>
				</linearGradient>
				<path class="st15" d="M981.5,920.6c0,0-10,44.2-64.4,75.9c-61.7,35.9-178.2,50.8-193.3,106.6c-11.5,42.5,5.7,64.1,16.3,99.4
					c11.1,37,34.3,90.3,51.5,144.5c17.2,54.2,37,180.7,108.4,231.3c72.9,51.7,254.7,106.6,313.5,118.3
					c58.7,11.7,224.9,58.7,269.2,24.4s14.5-83.1-9.9-124.7c-24.4-41.6-206.9-347.8-218.6-372.2c-11.7-24.4-61.4-136.4-98.5-151.8
					c-37-15.4-17.2,7.2-12.6,22.6c4.5,15.4,28,70.5,21.7,103.9c-6.3,33.4-24.4,49.7,8.1,63.2s51.5-3.6,68.7,32.5
					c17.2,36.1,29.8,156.3,49.7,206c19.9,49.7,60.5,89.4,38.8,81.3c-21.7-8.1-179.6-72.3-192.4-106.6c-19.9-53.3-44-82.4-119.5-96.7
					c-57.6-10.8-68.4-86.7-61.5-136.2c7.6-54.9,48.8-97.6,47.9-146.3c-0.7-39.3,12.9-86,56.9-102.3L981.5,920.6z"/>
				<linearGradient id="SVGID_10_" gradientUnits="userSpaceOnUse" x1="1076.7321" y1="1557.5922" x2="1236.3604" y2="865.3741">
					<stop  offset="0" style="stop-color:#F28F8F"/>
					<stop  offset="1" style="stop-color:#E27474"/>
				</linearGradient>
				<path class="st16" d="M981.5,920.6c0,0-10,44.2-64.4,75.9c-61.7,35.9-178.2,50.8-193.3,106.6c-11.5,42.5,5.7,64.1,16.3,99.4
					c11.1,37,34.3,90.3,51.5,144.5c17.2,54.2,37,180.7,108.4,231.3c72.9,51.7,254.7,106.6,313.5,118.3
					c58.7,11.7,224.9,58.7,269.2,24.4s14.5-83.1-9.9-124.7c-24.4-41.6-206.9-347.8-218.6-372.2c-11.7-24.4-61.4-136.4-98.5-151.8
					c-37-15.4-17.2,7.2-12.6,22.6c4.5,15.4,28,70.5,21.7,103.9c-6.3,33.4-24.4,49.7,8.1,63.2s51.5-3.6,68.7,32.5
					c17.2,36.1,29.8,156.3,49.7,206c19.9,49.7,60.5,89.4,38.8,81.3c-21.7-8.1-179.6-72.3-192.4-106.6c-19.9-53.3-44-82.4-119.5-96.7
					c-57.6-10.8-68.4-86.7-61.5-136.2c7.6-54.9,48.8-97.6,47.9-146.3c-0.7-39.3,12.9-86,56.9-102.3L981.5,920.6z"/>
				<path class="st17" d="M1319,1336.4c-20.3,3.4-43.1,12.5-60.6,20.5c4.1,20.3,8.2,42.7,12.5,64.3l85.4-21.6
					C1343.4,1378,1330.8,1356.5,1319,1336.4z"/>
				<path class="st17" d="M1001.5,1373.1c-19.2-9.4-31.4-27.6-38.5-48.8c-60.8,57.5-128.1,74.1-156.1,78.7
					c6.1,22.7,13.4,47.8,22.9,72.3c15.1,1.9,34.7,4.4,37.6,4.2c4.8-0.2,123-78.1,125.1-79.3
					C993.7,1399.6,998.2,1384.8,1001.5,1373.1z"/>
				<linearGradient id="SVGID_11_" gradientUnits="userSpaceOnUse" x1="1232.3727" y1="1577.7601" x2="898.5384" y2="1270.8434">
					<stop  offset="0" style="stop-color:#4BE6FC"/>
					<stop  offset="1" style="stop-color:#2DCEE8"/>
				</linearGradient>
				<path class="st18" d="M1505.3,1674.6c0-0.2,0-0.4,0-0.6c-0.1-0.9-0.1-1.8-0.2-2.7c0-0.1,0-0.2,0-0.4c-0.1-0.8-0.2-1.7-0.3-2.5
					c0-0.2-0.1-0.4-0.1-0.6c-0.1-0.9-0.3-1.8-0.5-2.7c0-0.2-0.1-0.4-0.1-0.5c-0.2-0.8-0.3-1.7-0.5-2.5c0-0.2-0.1-0.3-0.1-0.5
					c-0.2-0.9-0.4-1.9-0.7-2.8c-0.1-0.2-0.1-0.4-0.2-0.6c-0.2-0.9-0.5-1.8-0.7-2.7c0-0.1,0-0.1-0.1-0.2c-0.3-0.9-0.6-1.9-0.9-2.8
					c-0.1-0.2-0.1-0.4-0.2-0.7c-0.3-0.9-0.6-1.9-1-2.8c0-0.1-0.1-0.1-0.1-0.2c-0.3-0.9-0.7-1.8-1-2.7c-0.1-0.2-0.2-0.4-0.2-0.6
					c-0.4-0.9-0.7-1.9-1.1-2.8c-0.1-0.2-0.1-0.3-0.2-0.5c-0.3-0.8-0.7-1.7-1.1-2.5c-0.1-0.2-0.2-0.4-0.2-0.6
					c-0.4-0.9-0.8-1.9-1.3-2.8c-0.1-0.2-0.2-0.4-0.3-0.6c-0.4-0.9-0.8-1.7-1.2-2.6c-0.1-0.1-0.1-0.2-0.2-0.4
					c-0.5-0.9-0.9-1.9-1.4-2.8c-0.1-0.2-0.2-0.4-0.3-0.6c-0.5-0.9-1-1.9-1.4-2.8c-0.8-1.6-1.7-3.3-2.6-4.9c-0.1-0.1-0.2-0.3-0.2-0.4
					c-1.8-3.3-3.6-6.5-5.4-9.7c-0.1-0.1-0.1-0.3-0.2-0.4c-0.9-1.6-1.8-3.2-2.8-4.8c-1.9-3.3-3.9-6.6-5.8-9.9
					c-0.5-0.8-1.1-1.8-1.7-2.8c-0.1-0.1-0.1-0.2-0.2-0.4c-0.1-0.2-0.2-0.4-0.4-0.6c-0.1-0.2-0.3-0.5-0.4-0.7
					c-0.1-0.1-0.2-0.3-0.2-0.4c-0.2-0.3-0.3-0.6-0.5-0.9c-0.2-0.3-0.4-0.7-0.6-1c0,0-0.1-0.1-0.1-0.1c-0.2-0.3-0.4-0.7-0.6-1
					c-0.2-0.3-0.4-0.6-0.6-0.9c-0.1-0.2-0.2-0.4-0.4-0.6c-0.1-0.2-0.2-0.3-0.3-0.5c-0.3-0.4-0.5-0.9-0.8-1.3
					c-0.1-0.2-0.2-0.3-0.3-0.5c-0.2-0.4-0.4-0.7-0.6-1.1c-0.1-0.2-0.2-0.4-0.3-0.6c-0.6-1-1.2-2.1-1.9-3.1c-0.1-0.1-0.1-0.2-0.2-0.3
					c-0.3-0.5-0.6-1.1-1-1.6c0-0.1-0.1-0.1-0.1-0.2c-1.1-1.9-2.3-3.8-3.5-5.9c-0.4-0.8-0.9-1.5-1.4-2.3c-2.2-3.7-4.6-7.7-7.1-11.9
					c-0.5-0.8-0.9-1.5-1.4-2.3c-0.7-1.2-1.4-2.4-2.2-3.7c-0.6-1-1.2-2-1.8-3.1c-1.2-2-2.4-4.1-3.7-6.2c-0.5-0.8-0.9-1.6-1.4-2.4
					c-4.8-8.1-9.9-16.7-15.3-25.8c-0.3-0.6-0.7-1.1-1-1.7c-2.7-4.5-5.5-9.2-8.3-13.9c0,0-0.1-0.1-0.1-0.1c-1.1-1.8-2.1-3.6-3.2-5.5
					c-1.4-2.4-2.8-4.8-4.3-7.2c-0.4-0.6-0.7-1.2-1.1-1.9c-3-5.1-6.1-10.3-9.2-15.6c-0.3-0.5-0.5-0.9-0.8-1.4
					c-0.2-0.3-0.3-0.6-0.5-0.9c-1.8-3-3.6-6.1-5.4-9.2c-0.3-0.5-0.6-1-0.9-1.5c-0.4-0.7-0.9-1.5-1.3-2.2c-1.4-2.4-2.9-4.9-4.3-7.3
					c-0.1-0.2-0.2-0.3-0.3-0.5c-14.2-23.9-28.7-48.6-42.8-72.3c-0.1-0.2-0.2-0.4-0.3-0.6c-0.2-0.3-0.4-0.7-0.6-1
					c-0.9-1.5-1.7-2.9-2.6-4.3c-0.2-0.3-0.4-0.6-0.6-0.9c-36.5,5.6-58.4,16.7-71.1,26.2c0,0.1,0,0.2,0.1,0.3
					c2.9,15.3,5.9,30.8,9,45.6c0.3,1.6,0.7,3.3,1,4.9c0.1,0.4,0.2,0.8,0.3,1.2c0.4,1.6,0.7,3.2,1.1,4.8c0.5,2.2,1,4.3,1.4,6.4
					c0.4,1.7,0.8,3.5,1.2,5.2c0.1,0.3,0.1,0.5,0.2,0.8c0.4,1.7,0.8,3.3,1.2,4.9c0.3,1.1,0.6,2.2,0.8,3.3c0.6,2.2,1.1,4.3,1.7,6.4
					c0.4,1.4,0.8,2.7,1.1,4.1c0.1,0.3,0.2,0.7,0.3,1c0.4,1.3,0.8,2.6,1.2,3.9c0.3,1,0.6,1.9,0.9,2.9c0.3,0.9,0.6,1.9,0.9,2.8
					c0.6,1.8,1.2,3.6,1.8,5.2s1.2,3.3,1.8,4.9c1.2,3.1,2.6,6.2,3.9,9.2c0.7,1.5,1.4,3,2.1,4.5c0,0,0,0,0,0c0.7,1.5,1.4,2.9,2.2,4.4
					c0.7,1.5,1.5,2.9,2.3,4.3c0.8,1.4,1.5,2.8,2.3,4.2c0.9,1.6,1.8,3.2,2.7,4.7c0.1,0.1,0.2,0.3,0.2,0.4c0.8,1.5,1.7,2.9,2.5,4.3
					c0.1,0.1,0.1,0.2,0.2,0.3c0.9,1.5,1.8,2.9,2.7,4.4c0,0.1,0.1,0.1,0.1,0.2c0.9,1.4,1.7,2.7,2.5,4.1c0.1,0.1,0.2,0.3,0.3,0.4
					c0.8,1.3,1.7,2.6,2.5,3.9c0,0.1,0.1,0.1,0.1,0.2c0.8,1.3,1.7,2.6,2.5,3.8c0.1,0.1,0.2,0.2,0.2,0.4c0.8,1.2,1.5,2.3,2.3,3.5
					c0.1,0.1,0.1,0.2,0.2,0.3c0.8,1.2,1.5,2.3,2.2,3.4c0.3,0.5,0.6,1,0.9,1.4c0.6,0.9,1.2,1.8,1.8,2.7c0,0,0,0,0,0.1c0,0,0,0,0,0
					c2.3,3.5,4.2,6.6,5.6,9.1c0,0,0,0,0,0c0,0,0,0,0,0c0.2,0.4,0.4,0.7,0.6,1.1c0.1,0.1,0.1,0.2,0.2,0.3c0.1,0.3,0.3,0.5,0.4,0.8
					c0,0.1,0.1,0.2,0.1,0.3c0.2,0.3,0.3,0.6,0.4,0.9c0,0.1,0,0.1,0.1,0.2c0.1,0.2,0.2,0.5,0.3,0.7c0,0.1,0.1,0.2,0.1,0.2
					c0.1,0.2,0.1,0.4,0.2,0.6c0,0,0,0.1,0,0.1c0.1,0.2,0.1,0.5,0.1,0.7c0,0.1,0,0.1,0,0.2c0,0.2,0,0.3,0,0.4c0,0.1,0,0.1,0,0.2
					c0,0.3-0.1,0.6-0.3,0.8c0,0-0.1,0.1-0.1,0.1c-0.1,0.1-0.2,0.1-0.3,0.2c0,0-0.1,0-0.1,0.1c-0.1,0.1-0.3,0.1-0.5,0.2
					c0,0-0.1,0-0.1,0c-0.2,0-0.3,0-0.5,0c-0.1,0-0.1,0-0.2,0c-0.2,0-0.4,0-0.6-0.1c0,0-0.1,0-0.1,0c-0.3,0-0.6-0.1-0.9-0.2
					c-0.1,0-0.2,0-0.3-0.1c-0.3-0.1-0.5-0.1-0.8-0.2c-0.1,0-0.2-0.1-0.3-0.1c-0.4-0.1-0.8-0.3-1.2-0.4c-0.3-0.1-0.7-0.3-1.1-0.4
					c-0.1-0.1-0.3-0.1-0.5-0.2c-0.3-0.1-0.5-0.2-0.8-0.3c-0.2-0.1-0.4-0.2-0.6-0.2c-0.3-0.1-0.5-0.2-0.8-0.3
					c-0.2-0.1-0.5-0.2-0.8-0.3c-0.3-0.1-0.6-0.2-0.9-0.3c-0.3-0.1-0.6-0.2-0.9-0.4c-0.3-0.1-0.6-0.2-0.9-0.4c-0.3-0.1-0.7-0.3-1-0.4
					c-0.3-0.1-0.6-0.3-1-0.4c-0.3-0.1-0.7-0.3-1-0.4c-0.4-0.1-0.7-0.3-1.1-0.5c-0.3-0.1-0.7-0.3-1-0.4c-0.4-0.2-0.8-0.3-1.2-0.5
					c-0.4-0.2-0.8-0.3-1.2-0.5c-0.4-0.2-0.8-0.3-1.3-0.5c-0.4-0.2-0.8-0.3-1.2-0.5c-0.4-0.2-0.9-0.4-1.4-0.6
					c-0.4-0.2-0.8-0.3-1.3-0.5c-0.5-0.2-0.9-0.4-1.4-0.6c-0.4-0.2-0.9-0.4-1.3-0.5c-0.5-0.2-1-0.4-1.5-0.6c-0.5-0.2-0.9-0.4-1.4-0.6
					c-0.5-0.2-1-0.4-1.5-0.6c-0.5-0.2-1-0.4-1.4-0.6c-0.5-0.2-1.1-0.4-1.6-0.7c-0.5-0.2-1-0.4-1.5-0.6c-0.5-0.2-1.1-0.5-1.6-0.7
					c-0.5-0.2-1.1-0.5-1.6-0.7c-0.5-0.2-1.1-0.5-1.6-0.7c-0.6-0.2-1.1-0.5-1.7-0.7c-0.6-0.2-1.1-0.5-1.7-0.7
					c-0.6-0.2-1.1-0.5-1.7-0.7c-0.6-0.3-1.2-0.5-1.8-0.8c-0.6-0.2-1.1-0.5-1.7-0.7c-0.6-0.3-1.2-0.5-1.9-0.8
					c-0.6-0.2-1.1-0.5-1.7-0.7c-0.6-0.3-1.3-0.6-1.9-0.8c-0.6-0.2-1.1-0.5-1.7-0.8c-0.7-0.3-1.3-0.6-2-0.9c-0.6-0.3-1.2-0.5-1.8-0.8
					c-0.6-0.3-1.3-0.6-2-0.9c-0.6-0.3-1.2-0.5-1.8-0.8c-0.7-0.3-1.4-0.6-2-0.9c-0.6-0.3-1.2-0.5-1.8-0.8c-0.7-0.3-1.4-0.6-2.1-0.9
					c-0.6-0.3-1.2-0.5-1.8-0.8c-0.7-0.3-1.4-0.6-2.1-0.9c-0.6-0.3-1.2-0.6-1.8-0.8c-0.7-0.3-1.4-0.6-2.1-1c-0.6-0.3-1.2-0.6-1.8-0.8
					c-0.7-0.3-1.4-0.7-2.2-1c-0.6-0.3-1.2-0.6-1.8-0.8c-0.7-0.3-1.5-0.7-2.2-1c-0.6-0.3-1.2-0.6-1.8-0.9c-0.8-0.4-1.5-0.7-2.3-1.1
					c-0.6-0.3-1.1-0.5-1.7-0.8c-0.9-0.4-1.7-0.8-2.6-1.2c-0.5-0.2-1-0.5-1.5-0.7c-1.3-0.6-2.7-1.3-4-1.9c-8.2-4-16.4-8-24.4-12.2
					c0,0,0,0,0,0c-2.6-1.4-5.3-2.7-7.8-4.1c0,0,0,0,0,0c-1.3-0.7-2.6-1.4-3.9-2.1c-3.2-1.7-6.3-3.5-9.4-5.2c-0.6-0.3-1.2-0.7-1.8-1
					c0,0,0,0,0,0c-1.6-0.9-3.2-1.8-4.7-2.8c-0.4-0.2-0.8-0.5-1.2-0.7c-3.1-1.9-6.1-3.7-9-5.5c-0.4-0.2-0.7-0.5-1.1-0.7
					c-2.1-1.3-4.1-2.6-6-4c-1.4-1-2.8-1.9-4.1-2.8c-0.9-0.7-1.9-1.3-2.8-2c-0.9-0.7-1.8-1.3-2.6-2c-0.8-0.6-1.5-1.2-2.2-1.7
					c-0.2-0.2-0.4-0.3-0.6-0.5c-0.6-0.5-1.2-1-1.8-1.5c-0.1-0.1-0.2-0.1-0.3-0.2c-0.7-0.6-1.3-1.1-1.9-1.7c-0.2-0.1-0.3-0.3-0.5-0.4
					c-0.5-0.5-1-0.9-1.5-1.4c-0.1-0.1-0.2-0.2-0.3-0.3c-0.6-0.5-1.1-1.1-1.6-1.6c-0.1-0.1-0.2-0.3-0.4-0.4c-0.4-0.4-0.8-0.9-1.2-1.3
					c-0.1-0.1-0.2-0.3-0.3-0.4c-0.5-0.5-0.9-1.1-1.3-1.6c-0.1-0.1-0.2-0.2-0.2-0.3c-0.3-0.4-0.7-0.9-1-1.3c-0.1-0.1-0.2-0.3-0.3-0.4
					c-0.4-0.5-0.7-1-1-1.5c0-0.1-0.1-0.1-0.1-0.2c-0.3-0.4-0.5-0.9-0.7-1.3c-0.1-0.1-0.1-0.3-0.2-0.4c-0.2-0.5-0.4-1-0.6-1.4l0,0
					c-0.6-1.5-1.1-3-1.7-4.4c-0.2-0.4-0.3-0.8-0.5-1.3c-0.4-1.1-0.9-2.2-1.3-3.2c-0.2-0.4-0.3-0.8-0.5-1.3c-1.2-2.8-2.3-5.6-3.6-8.3
					c-0.2-0.4-0.4-0.8-0.5-1.2c-0.5-1-0.9-2-1.4-2.9c-0.2-0.4-0.4-0.8-0.6-1.2c-1.3-2.6-2.6-5.1-3.9-7.5c-0.2-0.4-0.4-0.7-0.6-1.1
					c-0.5-0.9-1-1.8-1.5-2.7c-0.2-0.4-0.4-0.7-0.6-1.1c-1.4-2.3-2.9-4.6-4.4-6.8c-0.2-0.3-0.5-0.6-0.7-1c-0.6-0.8-1.1-1.6-1.7-2.4
					c-0.2-0.3-0.5-0.6-0.7-1c-0.8-1.1-1.6-2.1-2.4-3.1c0,0,0,0,0,0c-1.1-1.3-2.2-2.6-3.3-3.8c-0.3-0.4-0.7-0.8-1.1-1.2
					c-0.8-0.9-1.6-1.7-2.4-2.6c-0.4-0.4-0.8-0.8-1.3-1.3c-0.8-0.8-1.7-1.6-2.6-2.4c-0.4-0.4-0.8-0.7-1.2-1.1
					c-1.3-1.1-2.6-2.2-3.9-3.3c-3.4-2.7-7.1-5.3-11-7.7c-0.4-0.2-0.7-0.4-1.1-0.7c-0.9-0.6-1.8-1.1-2.8-1.6
					c-0.4-0.2-0.8-0.4-1.1-0.6c-2.6-1.4-5.3-2.8-8.1-4.1c-0.3-0.1-0.6-0.3-0.9-0.4c-1.4-0.6-2.8-1.3-4.2-1.9
					c-0.2-0.1-0.5-0.2-0.7-0.3c-1.3-0.6-2.7-1.1-4.1-1.6c-0.3-0.1-0.5-0.2-0.7-0.3c-1.5-0.6-3.1-1.1-4.6-1.7c-0.3-0.1-0.7-0.2-1-0.4
					c-1.6-0.6-3.3-1.1-4.9-1.6c0,0,0,0,0,0c0,0,0,0,0,0c-1.7-0.5-3.4-1-5.2-1.6c-0.4-0.1-0.8-0.2-1.1-0.3c-1.7-0.5-3.5-1-5.3-1.4
					c-0.3-0.1-0.6-0.2-0.9-0.2c-1.7-0.4-3.4-0.8-5.1-1.2c-0.3-0.1-0.6-0.1-0.9-0.2c-1.9-0.4-3.8-0.9-5.8-1.3
					c-0.4-0.1-0.9-0.2-1.3-0.3c-2-0.4-4.1-0.8-6.2-1.2c-1.4-0.3-2.7-0.6-4-0.9c-0.2-0.1-0.5-0.1-0.7-0.2c-1.3-0.3-2.5-0.7-3.7-1.1
					c-0.2-0.1-0.5-0.2-0.7-0.2c-1.2-0.4-2.5-0.9-3.6-1.3c0,0-0.1,0-0.1-0.1c-1.2-0.5-2.3-1-3.4-1.5c-0.2-0.1-0.4-0.2-0.6-0.3
					c-1.1-0.5-2.2-1.1-3.2-1.7c-0.2-0.1-0.4-0.2-0.6-0.3c-1.1-0.6-2.1-1.3-3.2-2c-0.1,0-0.1-0.1-0.2-0.1c-1-0.7-2-1.4-3-2.1
					c-0.1-0.1-0.3-0.2-0.4-0.3c-1-0.7-1.9-1.5-2.8-2.3c-0.2-0.1-0.3-0.3-0.5-0.4c-0.9-0.8-1.8-1.7-2.7-2.5c-0.1-0.1-0.1-0.1-0.2-0.2
					c-0.8-0.8-1.6-1.6-2.3-2.4c-21.5,20.8-84.6,75-164.3,83.2c2.2,6.9,4.5,13.8,6.9,20.7l0,0c0,0,0,0,0,0c0,0,0,0,0,0
					c0.5,1.4,1,2.8,1.5,4.1c0,0,0,0.1,0,0.1c0,0,0,0,0,0c0.5,1.3,1,2.7,1.5,4c0,0.1,0.1,0.1,0.1,0.2c0.5,1.3,1,2.6,1.5,4
					c0,0,0,0.1,0,0.1c0,0.1,0.1,0.1,0.1,0.2c0.5,1.3,1,2.6,1.5,3.8c0,0.1,0.1,0.2,0.1,0.4c0,0,0,0,0,0c0.5,1.3,1,2.5,1.5,3.8
					c0.1,0.2,0.1,0.3,0.2,0.5c0.5,1.2,1,2.4,1.5,3.6c0.1,0.2,0.2,0.4,0.2,0.6c0.5,1.2,1,2.4,1.5,3.5c0,0.1,0.1,0.2,0.1,0.3
					c0,0.1,0.1,0.2,0.1,0.3c0.5,1.2,1,2.3,1.5,3.5c0,0.1,0.1,0.1,0.1,0.2c0.1,0.2,0.1,0.3,0.2,0.5c0.5,1.1,1,2.2,1.5,3.3
					c0,0,0,0.1,0.1,0.1c0.1,0.2,0.2,0.4,0.3,0.6c0.5,1.1,1,2.2,1.5,3.2c0.1,0.3,0.3,0.6,0.4,0.8c0.5,1.1,1,2.1,1.6,3.1
					c0.1,0.3,0.3,0.6,0.4,0.9c0.5,1,1,2,1.6,3c0.2,0.3,0.3,0.6,0.5,1c0.5,1,1,1.9,1.5,2.9c0.2,0.3,0.3,0.6,0.5,0.9
					c0,0.1,0.1,0.1,0.1,0.2c0.5,0.9,1,1.9,1.6,2.8c0.2,0.3,0.4,0.7,0.6,1c0,0,0,0.1,0,0.1c0.5,0.9,1,1.8,1.5,2.7
					c0.2,0.3,0.3,0.6,0.5,0.9c0.1,0.1,0.1,0.2,0.2,0.3c0.5,0.9,1,1.7,1.6,2.6c0.2,0.4,0.5,0.8,0.7,1.2c0.5,0.8,1,1.7,1.6,2.5
					c0.1,0.1,0.1,0.2,0.2,0.3c0.2,0.3,0.4,0.6,0.6,0.9c0.5,0.8,1,1.6,1.6,2.4c0.2,0.3,0.4,0.6,0.5,0.8c0.1,0.1,0.2,0.3,0.3,0.4
					c0.5,0.8,1,1.5,1.6,2.3c0.1,0.2,0.2,0.3,0.3,0.5c0.2,0.3,0.4,0.6,0.6,0.8c0.5,0.7,1,1.5,1.6,2.2c0.2,0.3,0.4,0.5,0.6,0.8
					c0.1,0.2,0.3,0.4,0.4,0.5c0.5,0.7,1.1,1.4,1.6,2.1c0,0,0,0,0,0c0.3,0.4,0.6,0.9,1,1.3c0.5,0.7,1,1.4,1.6,2
					c0.4,0.4,0.7,0.9,1.1,1.3c0.5,0.7,1.1,1.3,1.6,2c0.4,0.4,0.7,0.9,1.1,1.3c0.5,0.6,1.1,1.3,1.6,1.9c0.2,0.3,0.4,0.5,0.6,0.8
					c0.2,0.2,0.3,0.4,0.5,0.6c0.5,0.6,1.1,1.2,1.7,1.8c0.4,0.4,0.8,0.9,1.2,1.3c0.6,0.6,1.1,1.2,1.7,1.8c0.4,0.4,0.8,0.9,1.2,1.3
					c0.5,0.6,1.1,1.1,1.7,1.7c0.2,0.2,0.4,0.4,0.6,0.6c0.2,0.2,0.5,0.5,0.7,0.7c0.5,0.5,1.1,1,1.7,1.6c0.5,0.4,0.9,0.9,1.4,1.3
					c0.6,0.5,1.2,1.1,1.8,1.6c0.2,0.1,0.3,0.3,0.5,0.4c0.3,0.2,0.6,0.5,0.8,0.7c0.6,0.6,1.3,1.1,2,1.6c0.4,0.3,0.8,0.7,1.2,1
					c0.7,0.6,1.5,1.1,2.2,1.7c0.4,0.3,0.7,0.6,1.1,0.8c1.1,0.8,2.2,1.6,3.3,2.4c1.3,0.9,2.6,1.8,3.9,2.7c0.4,0.3,0.8,0.5,1.2,0.8
					c1,0.6,1.9,1.3,3,1.9c0.4,0.3,0.9,0.6,1.3,0.9c1,0.7,2.1,1.3,3.1,2c0.4,0.2,0.8,0.5,1.2,0.7c1.2,0.8,2.5,1.5,3.8,2.3
					c0.2,0.1,0.4,0.3,0.7,0.4c6.5,3.8,13.4,7.6,20.7,11.4c3.1,1.6,6.3,3.2,9.6,4.8c8.3,4.1,16.9,8.1,25.9,12.1c0,0,0,0,0.1,0
					c1.5,0.7,3.1,1.4,4.7,2c14.4,6.3,29.6,12.4,45,18.3c0.1,0,0.1,0,0.2,0.1c2.2,0.8,4.4,1.7,6.5,2.5c3.4,1.3,6.7,2.5,10.1,3.7
					c4.4,1.6,8.8,3.2,13.2,4.8c0,0,0,0,0,0c3.3,1.2,6.6,2.3,9.8,3.5c0,0,0.1,0,0.1,0c2.5,0.9,5,1.7,7.5,2.6c0,0,0,0,0,0
					c3.2,1.1,6.4,2.2,9.6,3.3c0,0,0,0,0,0c4.5,1.5,8.9,3,13.3,4.4c0,0,0,0,0.1,0c5.3,1.7,10.5,3.4,15.6,5c0.1,0,0.3,0.1,0.4,0.1
					c5,1.6,10,3.1,14.9,4.6c0.3,0.1,0.5,0.2,0.8,0.2c2.1,0.7,4.3,1.3,6.4,1.9c0.3,0.1,0.6,0.2,0.9,0.3c2.3,0.7,4.5,1.4,6.8,2
					c0.3,0.1,0.6,0.2,0.9,0.3c1.9,0.6,3.8,1.1,5.6,1.6c0.5,0.2,1.1,0.3,1.6,0.5c2.1,0.6,4.2,1.2,6.3,1.8c1.1,0.3,2.1,0.6,3.2,0.9
					c2,0.6,4.1,1.1,6.1,1.7c0.4,0.1,0.8,0.2,1.3,0.4c1,0.3,2.1,0.6,3.1,0.8c0.5,0.1,1,0.3,1.6,0.4c0.9,0.2,1.8,0.5,2.7,0.7
					c0.5,0.1,1.1,0.3,1.6,0.4c0.9,0.2,1.7,0.5,2.6,0.7c0.5,0.1,1,0.3,1.6,0.4c0.9,0.2,1.7,0.5,2.6,0.7c0.5,0.1,1,0.2,1.4,0.4
					c0.9,0.2,1.8,0.5,2.7,0.7c0.4,0.1,0.8,0.2,1.2,0.3c2.5,0.6,5,1.3,7.4,1.8c0.3,0.1,0.7,0.2,1,0.2c0.8,0.2,1.6,0.4,2.4,0.6
					c0.4,0.1,0.8,0.2,1.2,0.3c0.7,0.2,1.4,0.3,2.1,0.5c0.4,0.1,0.8,0.2,1.3,0.3c0.7,0.2,1.3,0.3,2,0.5c0.4,0.1,0.8,0.2,1.2,0.3
					c0.7,0.1,1.3,0.3,1.9,0.4c0.4,0.1,0.7,0.2,1.1,0.2c0.7,0.1,1.3,0.3,2,0.4c0.3,0.1,0.6,0.1,0.9,0.2c0.9,0.2,1.8,0.4,2.7,0.6
					c1.1,0.2,2.2,0.4,3.3,0.7c0.3,0.1,0.7,0.1,1,0.2c0.8,0.2,1.6,0.3,2.5,0.5c0.4,0.1,0.8,0.2,1.2,0.3c0.9,0.2,1.8,0.4,2.7,0.6
					c0.4,0.1,0.7,0.2,1.1,0.2c2.6,0.6,5.2,1.2,8,1.8c0.4,0.1,0.8,0.2,1.2,0.3c1,0.2,2.1,0.5,3.2,0.7c0.5,0.1,0.9,0.2,1.4,0.3
					c1.1,0.3,2.2,0.5,3.4,0.8c0.4,0.1,0.7,0.2,1.1,0.2c1.5,0.3,3,0.7,4.6,1.1c2.7,0.6,5.5,1.3,8.3,1.9c2.8,0.7,5.7,1.3,8.7,2
					c5.9,1.3,12.1,2.7,18.4,4.1c3.1,0.7,6.3,1.4,9.5,2.1c0.8,0.2,1.7,0.4,2.5,0.5c0.8,0.2,1.6,0.3,2.4,0.5c3.3,0.7,6.6,1.4,9.9,2.1
					c4,0.8,8,1.6,12,2.4c0.3,0.1,0.7,0.1,1,0.2c8.1,1.6,16.3,3.1,24.5,4.5c0.3,0.1,0.7,0.1,1,0.2c4.1,0.7,8.2,1.4,12.3,2
					c1.9,0.3,3.9,0.6,5.8,0.9c3.1,0.5,6.2,0.9,9.3,1.3c0,0,0,0,0.1,0c2.2,0.3,4.4,0.6,6.6,0.9c0.5,0.1,1.1,0.1,1.6,0.2
					c2.2,0.3,4.4,0.5,6.6,0.8c0,0,0,0,0.1,0c3.3,0.4,6.5,0.7,9.7,1c2.1,0.2,4.2,0.4,6.3,0.5c0.5,0,1,0.1,1.6,0.1
					c2.1,0.1,4.1,0.3,6.2,0.4c0,0,0,0,0,0c2,0.1,4,0.2,6,0.3c0.5,0,1,0,1.5,0c2,0.1,4,0.1,5.9,0.1c1,0,1.9,0,2.9,0
					c1.9,0,3.7,0,5.6-0.1c1.4,0,2.8-0.1,4.2-0.2c1.4-0.1,2.7-0.1,4-0.2c2.6-0.2,5.2-0.4,7.7-0.7c1.2-0.2,2.5-0.3,3.7-0.5
					c1.5-0.2,3-0.5,4.5-0.8c0.2,0,0.5-0.1,0.7-0.1c1.4-0.3,2.8-0.6,4.2-0.9c0,0,0,0,0,0c0.6-0.1,1.1-0.3,1.7-0.4
					c2.5-0.7,4.9-1.5,7.2-2.4c0.1,0,0.2-0.1,0.3-0.1c0.5-0.2,1.1-0.5,1.6-0.7c0.3-0.1,0.6-0.3,1-0.4c0.4-0.2,0.9-0.4,1.3-0.6
					c0.4-0.2,0.8-0.4,1.2-0.6c0.4-0.2,0.7-0.4,1.1-0.6c0.5-0.3,0.9-0.5,1.3-0.8c0.3-0.2,0.5-0.3,0.8-0.5c0.7-0.5,1.4-0.9,2-1.4
					c2.8-2.1,5.2-4.3,7.5-6.6c0.6-0.6,1.2-1.2,1.7-1.8c0.2-0.2,0.4-0.4,0.5-0.6c0.4-0.4,0.7-0.8,1.1-1.2c0.2-0.2,0.4-0.5,0.6-0.7
					c0.3-0.4,0.6-0.8,0.9-1.1c0.2-0.3,0.4-0.5,0.6-0.8c0.3-0.4,0.5-0.7,0.8-1.1c0.2-0.3,0.4-0.5,0.5-0.8c0.3-0.4,0.5-0.8,0.7-1.1
					c0.2-0.3,0.3-0.5,0.5-0.8c0.2-0.4,0.5-0.8,0.7-1.2c0.1-0.2,0.3-0.5,0.4-0.7c0.2-0.4,0.5-0.9,0.7-1.3c0.1-0.2,0.2-0.4,0.3-0.6
					c0.3-0.6,0.6-1.3,0.9-2c0.3-0.6,0.5-1.2,0.8-1.9c0.3-0.7,0.5-1.4,0.8-2.1c0.1-0.2,0.1-0.4,0.2-0.7c0.2-0.5,0.3-1,0.5-1.5
					c0.1-0.3,0.1-0.5,0.2-0.8c0.1-0.5,0.3-1,0.4-1.5c0.1-0.2,0.1-0.4,0.2-0.7c0.3-1.5,0.6-2.9,0.8-4.4c0-0.2,0.1-0.5,0.1-0.7
					c0.1-0.5,0.1-1,0.2-1.6c0-0.3,0-0.5,0.1-0.8c0-0.5,0.1-1,0.1-1.6c0-0.2,0-0.5,0-0.7c0-0.7,0-1.5,0-2.2v0
					C1505.4,1676.5,1505.4,1675.5,1505.3,1674.6z"/>
				<path class="st17" d="M984.8,1164.8c-3.6-4.4-5.9-9.8-6.6-15.4c-4.8-40,3.5-84.3-4.1-104.1c-9.5-25-36.6-29.8-36.6-29.8
					s17.7,12.9-40.7,32.5s-99-3.6-99-3.6c-36.4,14.7-66.8,32-74,58.7c-11.5,42.5,5.7,64.1,16.3,99.4c6.6,22.1,11.5,33.9,22.9,64.4
					l6.1,16.2c37.6-33.3,187.1-37.1,187.1-37.1c0.1-1.2,0.3-2.3,0.4-3.4C959.5,1222,976.6,1182.8,984.8,1164.8
					C984.8,1164.8,984.8,1164.8,984.8,1164.8z M958.9,1105.7c-43.1,123.5-136.6,55.1-68.8-45.6
					C890.1,1060.1,976.4,1055.6,958.9,1105.7z"/>
				<path class="st17" d="M1050.1,1481.7c-19.9-16.6-41.1-30.4-63.3-43.8c-19.5-11.7-38.1-24.2-55.3-38.9c-5.4,3.5-11,7-17,10.3
					c16.9,15.1,35.4,28.1,54.7,40c20.1,12.3,40.6,23.8,59,38.7c43.9,35.7,83.9,76.6,132.7,105.9c47.4,28.4,100.8,46.1,155.7,52.2
					c24.6,2.7,55.9,6.3,74.9-13.3c21.8-22.5,5.2-51.7-5.9-74.8c-29.1-60.5-53.9-123-74.4-186.9c-6.7,1.8-12.6,3.8-18,5.9
					c17.1,52.9,37,104.9,59.8,155.7c5.9,13.2,12.1,26.4,18.4,39.5c5.2,10.6,13.1,23.2,12,35.5c-2.4,26.6-41.9,21.8-59.8,20.2
					c-51.9-4.7-102.9-21.2-148-47.3C1129.2,1553.7,1091,1515.9,1050.1,1481.7z"/>
				<g>
					<circle class="st19" cx="777.2" cy="1136.7" r="13.9"/>
					<path class="st19" d="M965.1,1143.9c0,7.7,6.2,13.9,13.9,13.9c0.5,0,1,0,1.4-0.1c-1.2-2.7-1.9-5.5-2.3-8.4
						c-0.8-6.3-1.2-12.7-1.4-19.1C970.2,1131.3,965.1,1137,965.1,1143.9z"/>
					<path class="st19" d="M955.7,1077.7c5.4,6.5,7.4,15.4,3.4,27.5c6.5-1.1,11.5-6.8,11.5-13.7c0-7.7-6.2-13.9-13.9-13.9
						C956.3,1077.6,956,1077.7,955.7,1077.7z"/>
					<path class="st19" d="M749.4,1210.8c-2.2,0-4.3,0.5-6.2,1.5c2.9,8.9,5.7,16.7,9.1,26c6.3-1.3,11-6.9,11-13.6
						C763.3,1217.1,757.1,1210.8,749.4,1210.8z"/>
					<path class="st19" d="M737.7,1079.8c2.5,3.9,6.8,6.4,11.7,6.4c7.7,0,13.9-6.2,13.9-13.9c0-3.7-1.4-7-3.7-9.5
						C751,1068,743.6,1073.6,737.7,1079.8z"/>
					<path class="st19" d="M848.6,1143.9c0,7.7,6.2,13.9,13.9,13.9c3.7,0,7-1.4,9.5-3.8c-3.3-6.4-5.4-14.3-5.7-23.5
						c-1.2-0.3-2.5-0.5-3.8-0.5C854.8,1130,848.6,1136.3,848.6,1143.9z"/>
					<circle class="st19" cx="831" cy="1237.4" r="13.9"/>
					<path class="st19" d="M965.1,1197c0,3,1,5.8,2.6,8.1c2.9-7.5,5.9-15,8.8-21.8C970.1,1184.4,965.1,1190.1,965.1,1197z"/>
					<path class="st19" d="M831.5,1054.5c-0.4,1.2-0.6,2.6-0.6,3.9c0,7.7,6.2,13.9,13.9,13.9c7.7,0,13.9-6.2,13.9-13.9
						c0-1-0.1-2-0.3-2.9C848.4,1056.2,839.4,1055.6,831.5,1054.5z"/>
					<circle class="st19" cx="904.2" cy="1206.9" r="13.9"/>
				</g>
				<path class="st20" d="M763.3,1267.4l5.8,15.5c0,0,49.9-22.2,100-30.1c45.1-6,87-7,87-7c0.1-1.2,0.3-2.3,0.4-3.4
					c0.4-3,1.7-8.7,2.7-12.4C892.5,1225.2,824.4,1239.8,763.3,1267.4z"/>
			</g>
			<linearGradient id="SVGID_12_" gradientUnits="userSpaceOnUse" x1="945.7949" y1="893.5526" x2="1201.0039" y2="893.5526">
				<stop  offset="0" style="stop-color:#F28F8F"/>
				<stop  offset="1" style="stop-color:#E27474"/>
			</linearGradient>
			<path class="st21" d="M1062.7,801.2c14.7-8.1,28.7-12.1,41.7-13.6c43.6-4.9,83.6,24.9,92.5,67.9c23.2,112-55.6,131.9-114.9,142.5
				c-66.7,11.8-106.3-30.2-127.8-64.2c-15-23.7-12.4-34.8,30.7-85.5c-1.8-4.9-4.6-19.7-0.1-24.3c3-3,29-2.2,43.3-1.3
				c4.8,0.3,9.6-1.1,13.4-4.1C1048.6,813,1055.1,805.4,1062.7,801.2z"/>
			<linearGradient id="SVGID_13_" gradientUnits="userSpaceOnUse" x1="1083.9227" y1="792.6678" x2="1164.0731" y2="1259.3445">
				<stop  offset="0" style="stop-color:#814F50"/>
				<stop  offset="1" style="stop-color:#6B4345"/>
			</linearGradient>
			<path class="st22" d="M1294.6,1141.7c-0.7-1.7-1.5-3.4-2.3-5c-4-24.3-18.9-44.8-31.7-65.2c-13.3-21.3-21.7-43.7-26.3-68.4
				c-1.4-7.8-2.6-15.6-3.6-23.5c0.3-4.8,0.7-9.6,1-14.4c3-44.6,2.3-91.6-21.4-131c-22.5-37.4-67.4-63.2-110.8-49
				c0,0-5.1,0.9-9.2,3.3c-0.2,0.1-0.3,0.3-0.4,0.4c-0.5-0.2-1-0.2-1.6,0c-26.2,11.3-29.5,44.6-29.1,69.5c0.3,17.7,2.6,36,2.1,53.9
				c-16.3,32-53.9,51.5-59.8,89c-3.6,22.6,6.2,43.3,16.2,62.9c5.9,11.6,11.3,23.1,14.7,35.1c-4.9,29.7-30.3,54.8-32.5,85.6
				c-0.9,12.6,3,27.3,15.2,33.3c6.3,3.1,12.9,3.3,19.2,1.8c10.2,1.1,19.8-4.6,28.6-9.1c9.5-5,19.3-7.4,29.1-7.6
				c9.2,3.3,17.7,8.9,25.4,16.3c14.1,13.5,27.3,25.3,48.1,24.7c13.9-0.4,27.2-5.8,39.1-13.1c31.9,3.3,66.9-6.4,86.2-32.1
				C1303.3,1182.1,1302.6,1160.5,1294.6,1141.7z M1081.7,797.6c-8.5,11.4-12.2,25.9-13.3,40.5c-1.6,21.2,3.1,43.7-3.1,64.3
				c-0.1-9.6-0.8-19.2-1.4-28.7C1062.4,849.7,1060.8,814.2,1081.7,797.6z M1008.7,1207.2c-8.6-13.2-4.7-31,0.7-44.6
				c7.3-18.5,19.4-35.9,24.9-54.9c1.5,8,2,16.2,0.9,25c-1.4,12.2-5.7,23.6-11.7,34.3c-5.5,9.8-11,20.1-9.5,31.7
				c0.9,7.3,4.6,14.1,10.6,18C1018.6,1216.3,1013,1213.7,1008.7,1207.2z M1147.9,1237.6c-17.5-6.2-27.3-23.7-42.7-33.2
				c10.4,2,20.5,6.6,29.6,13.5c9.5,7.1,19.1,14.6,31.4,15.2c6.8,0.3,13.8-1.5,19-5.6c4.1,1.2,8.2,2.1,12.5,2.8
				C1182.4,1238.6,1164.8,1243.6,1147.9,1237.6z M1230.9,1031.7c-1.3-10.4-1.5-20.9-1.2-31.4c2.8,16.1,6.7,31.9,13.2,46.9
				c9.5,22.1,25.1,40.6,35.8,62.1c2.4,4.9,4.6,9.9,6.4,15.1c-8.1-11.9-18.2-22.5-27.6-33.6
				C1242.9,1073.5,1233.7,1054.3,1230.9,1031.7z"/>
			<linearGradient id="SVGID_14_" gradientUnits="userSpaceOnUse" x1="1202.8396" y1="1305.0353" x2="1260.795" y2="1053.7152">
				<stop  offset="0" style="stop-color:#F28F8F"/>
				<stop  offset="1" style="stop-color:#E27474"/>
			</linearGradient>
			<path class="st23" d="M1155.7,1072.3c-37-15.4-17.2,7.2-12.6,22.6c4.5,15.4,28,70.5,21.7,103.9c-6.3,33.4-24.4,49.7,8.1,63.2
				s51.5-3.6,68.7,32.5c6,12.7,11.5,35.7,16.9,62.3c17.5-8,40.3-17.1,60.6-20.5c-33.7-57.2-60.6-103.4-64.8-112.3
				C1242.4,1199.7,1192.7,1087.7,1155.7,1072.3z"/>
			<linearGradient id="SVGID_15_" gradientUnits="userSpaceOnUse" x1="956.6354" y1="855.0547" x2="956.6354" y2="1361.4081">
				<stop  offset="0" style="stop-color:#F28F8F"/>
				<stop  offset="1" style="stop-color:#E27474"/>
			</linearGradient>
			<path class="st24" d="M1022.6,334c-0.7-7.7-7.1-14-15.5-15.1c-10.1-1.3-24.1,0.1-32.1,15.4c-13.6,25.7-37.3,82.1-31.2,113.4
				s8.2,38-1,68.7c-9.2,30.6-46.4,85.2-49.2,156.9c-2.7,71.7-0.8,90.6-5.4,130.4c-3.6,30.9-27.1,108-25.7,181.6
				c1.4,73.6,11.5,109.1,30.5,123.8c19,14.7,34.2,19.6,59.6,4.2c22.1-13.4,17.6-126.2,10.8-210.2s-10.2-121.4,0.7-176.5
				c10.8-55.2,16.9-156.9,22.4-199.2c5.4-42.3,4.1-54.6,32.5-83.4s38.6-55.8,27.1-46.6s-33.9,27.6-31.8,14.7
				C1015.9,401.8,1024.6,356.9,1022.6,334z"/>
			<linearGradient id="SVGID_16_" gradientUnits="userSpaceOnUse" x1="1023.3661" y1="1656.9497" x2="900.1988" y2="1656.9497">
				<stop  offset="0" style="stop-color:#F28F8F"/>
				<stop  offset="1" style="stop-color:#E27474"/>
			</linearGradient>
			<path class="st25" d="M507.3,1598.3c-27.8,1.4-51.9,20.8-58.2,47.9c-1.7,7.4-1.2,14.8,0.3,22.3c4.4,21.6,6.3,49.5,129,44.7
				s416.7-9.5,440.4-2c23.7,7.5,184.3,4.8,192.4,2c8.1-2.7-1.9-19.6-34.6-18.3c-69.1,2.7-84.2-29-99.6-49.5
				c-14.4-19.2-46.5-21.5-75.9,4.1c-24.5,21.3-143.7-4.1-182.3-16.3c-90.1-28.5-209.7-33.9-250.3-34.9
				C546.9,1597.9,525.2,1597.4,507.3,1598.3z"/>
			<path class="st17" d="M893.6,1650.6c-17.7-3.1-34.9-6.8-49.2-10.3c-5,18.4-11.4,46.5-10.7,67.4c18.5-0.2,36.5-0.3,53.6-0.3
				C885.3,1694.1,884.1,1671.1,893.6,1650.6z"/>
			<linearGradient id="SVGID_17_" gradientUnits="userSpaceOnUse" x1="852.912" y1="1655.8148" x2="473.6149" y2="1655.8148">
				<stop  offset="0" style="stop-color:#4BE6FC"/>
				<stop  offset="1" style="stop-color:#2DCEE8"/>
			</linearGradient>
			<path class="st26" d="M852.9,1642.3c-13.9-3.2-25.8-6.4-34-9c-90.1-28.5-209.7-33.9-250.3-34.9c-21.7-0.5-43.4-1-61.3-0.1
				c-27.8,1.4-51.9,20.8-58.2,47.9c-1.7,7.4-1.2,14.8,0.3,22.3c4.4,21.6,6.3,49.5,129,44.7c63-2.4,171.3-4.9,264.9-5.7
				C840.5,1685.1,846.9,1659.9,852.9,1642.3z"/>
		</g>
	</g>
</g>
</svg>
