<svg width="73" height="79" viewBox="0 0 73 79" fill="none" xmlns="http://www.w3.org/2000/svg">
<g clip-path="url(#clip0)">
<path d="M71.2894 75.4777L61.1203 75.4586C60.7093 73.6577 59.4134 72.2026 57.6926 71.7335L55.2459 71.0661L58.3088 54.8292C58.8965 51.7095 57.2565 48.5285 54.425 47.4636C47.5046 44.8501 49.872 46.0059 43.5074 44.4197C45.7187 42.966 48.7646 40.8854 49.7144 39.8561C50.827 38.6488 54.2128 34.9748 54.2067 31.4547C54.205 30.4624 53.9264 29.3684 53.3777 28.1931L71.1025 8.98606C71.8723 8.15199 72.2951 7.04171 72.2931 5.85994C72.2863 1.94326 67.8773 -0.0561318 65.317 2.71843C64.8785 3.19348 64.8798 3.96502 65.32 4.44172C65.76 4.91843 66.4722 4.91977 66.9105 4.44472C68.061 3.1984 70.0405 4.09706 70.0436 5.85555C70.0445 6.38626 69.8546 6.88478 69.509 7.25947L48.8523 29.6437C48.1429 30.4123 48.6582 31.7237 49.6512 31.7256C50.2613 31.7267 50.4377 31.3792 51.6764 30.0369C51.859 30.56 51.9565 31.0379 51.9572 31.4504C51.9601 33.117 50.669 35.3647 48.1142 38.1369C47.2051 39.122 43.073 41.8896 40.3117 43.6444L36.5056 43.1219C35.8888 43.0365 35.3278 43.5098 35.252 44.1777C35.1761 44.8453 35.6144 45.4552 36.2309 45.5398L40.351 46.1055C49.9214 48.665 46.1543 46.9454 53.7103 49.772C55.442 50.4276 56.4715 52.3887 56.1052 54.3331L54.6879 61.8466L51.007 61.8397L51.5911 56.2011C51.6613 55.5225 51.2021 54.9105 50.5728 54.8474C37.1468 53.5027 38.408 55.1069 33.7987 53.3609C33.4965 53.2499 33.0379 53.0559 32.7162 52.8751C29.9637 51.3277 29.3646 46.8606 30.2291 44.3514C31.2929 43.5367 32.3524 42.5935 33.3792 41.546C33.8307 41.0855 33.8507 40.3143 33.424 39.8234C32.9973 39.3327 32.2855 39.3082 31.8339 39.7686C30.6761 40.9497 29.2284 42.163 29.1366 42.1859C28.8536 42.2568 28.775 42.3573 27.6573 43.1517C24.8642 45.1374 25.4059 44.7515 10.926 57.9322L2.15299 64.2653C0.617112 65.3739 0.0132253 67.4536 0.684434 69.3226C2.51412 74.4168 2.51171 74.5701 3.02004 75.3491L1.55492 75.3464C0.933774 75.3452 0.431116 75.8899 0.432287 76.5629C0.433457 77.2359 0.938012 77.7825 1.55916 77.7836L71.2936 77.915C71.9148 77.9162 72.4174 77.3715 72.4163 76.6985C72.4151 76.0255 71.9105 75.4789 71.2894 75.4777ZM27.6204 46.1164C27.4451 49.198 28.5302 52.6524 30.8845 54.4985C26.7057 56.5992 21.0976 59.0082 14.2202 62.842L12.9426 59.2853C24.0684 49.156 25.9278 47.3998 27.6204 46.1164V46.1164ZM3.40499 66.2951L11.0638 60.7663L12.2455 64.0564L7.03128 67.6489C6.64876 67.9124 6.45081 68.4 6.52954 68.8847L7.5785 75.348C6.27326 75.4477 4.99932 74.6241 4.49991 73.2336L2.78042 68.4459C2.4949 67.651 2.75177 66.7666 3.40499 66.2951V66.2951ZM8.87489 69.2717C13.983 65.7525 14.7466 64.865 27.4891 58.8125C29.7866 57.7212 31.7909 56.7676 33.5327 55.8294C38.1535 57.427 37.8219 56.0851 49.2267 57.1626C47.6168 72.7036 48.0193 69.6795 47.3501 72.6004C47.1292 73.5644 47.2254 74.5573 47.6086 75.433L9.8633 75.3619L8.87489 69.2717ZM51.1522 75.4398C50.0699 75.4378 49.2723 74.3348 49.5334 73.1959C50.2489 70.0725 49.939 72.1462 50.7543 64.2766L54.2279 64.2831L52.8262 71.7141C52.7055 72.3537 53.072 72.9844 53.6573 73.1439L57.151 74.0969C57.8525 74.2882 58.4187 74.7938 58.7347 75.4541L51.1522 75.4398Z" fill="#B61DCF"/>
<path d="M39.4024 13.681C39.5661 16.0761 40.4761 18.2965 41.987 20.0615C40.9871 24.5348 39.438 28.6536 37.3759 32.3115C37.0526 32.8851 37.2205 33.6354 37.751 33.9879C38.2846 34.3424 38.9754 34.1574 39.2968 33.5876C41.2996 30.0349 42.8449 26.0802 43.9009 21.8088C44.4651 22.206 45.0625 22.5397 45.6815 22.8055L46.3095 23.3157L44.6606 25.1025C43.9513 25.871 44.4666 27.1825 45.4596 27.1843C45.7474 27.1849 46.0351 27.0664 46.2543 26.8289C57.9197 14.188 37.1297 36.7166 60.6465 11.2331C62.7628 8.93981 63.9253 5.88767 63.9197 2.6388C63.9185 1.96581 63.4139 1.41922 62.7928 1.41805C62.1716 1.41688 61.669 1.96157 61.6702 2.63456C61.6747 5.23237 60.7452 7.67306 59.053 9.50679L54.178 14.7895C54.1731 11.9594 54.3625 10.3449 53.2178 8.16597C51.2776 4.47003 46.8973 3.1021 43.3668 5.02179C41.669 1.88474 37.2637 2.30464 36.1518 5.73145L35.4014 8.05198C34.4788 10.8939 36.5614 13.8481 39.4024 13.681V13.681ZM50.9014 8.77625C49.8469 10.3719 48.1409 11.3061 46.313 11.3295C44.6713 11.3512 44.7861 13.7667 46.2366 13.7695C48.346 13.7734 50.3843 12.8857 51.8778 11.2891C51.9386 11.7638 51.9224 11.4619 51.9325 17.2222L48.3757 21.0764C46.9085 20.857 45.5802 20.2136 44.5085 19.288L45.4507 16.7445C45.7033 16.0625 45.3441 15.2722 44.6532 15.1004C44.1236 14.9684 43.5705 15.267 43.3623 15.8296L42.8234 17.2849C42.0482 15.9918 41.6249 14.4977 41.6222 12.9196C41.6219 12.7646 41.6061 12.8064 41.7013 12.7228C42.2993 12.1983 42.7089 11.5222 42.9301 10.8431C43.68 8.52624 43.8292 8.17906 43.8843 7.50876C46.1365 5.92194 49.234 6.42817 50.9014 8.77625V8.77625ZM37.524 8.86636L38.2744 6.54568C38.5184 5.79395 39.1906 5.32284 39.9126 5.3242C41.0934 5.32643 41.9384 6.53416 41.5577 7.70926C40.8287 9.96204 40.7814 10.5475 40.0626 10.9925C38.6264 11.8685 37.0238 10.4085 37.524 8.86636V8.86636Z" fill="#B61DCF"/>
<path d="M34.9547 38.0265C35.4385 38.4481 36.1505 38.3628 36.5396 37.8378C36.5967 37.7608 36.6537 37.6837 36.7108 37.6052C37.0946 37.0775 37.0097 36.3111 36.5213 35.8935C36.0328 35.4756 35.3257 35.5648 34.9421 36.0926C34.8893 36.1652 34.8366 36.2362 34.7759 36.3181C34.3876 36.8419 34.4699 37.6037 34.9547 38.0265V38.0265Z" fill="#B61DCF"/>
</g>
<defs>
<clipPath id="clip0">
<rect width="71.9883" height="77.9971" fill="white" transform="matrix(0.999998 0.00188403 0.00173889 0.999999 0.295898 0.542175)"/>
</clipPath>
</defs>
</svg>
