<svg width="150" height="150" viewBox="0 0 150 150" fill="none" xmlns="http://www.w3.org/2000/svg">
<path d="M8.70208e-06 75C1.0441e-05 94.8912 7.90178 113.968 21.967 128.033C36.0322 142.098 55.1088 150 75 150C94.8912 150 113.968 142.098 128.033 128.033C142.098 113.968 150 94.8912 150 75L75 75L8.70208e-06 75Z" fill="white"/>
<g clip-path="url(#clip0)">
<path d="M72.5 131.917C61.2423 131.917 52.0833 122.758 52.0833 111.5C52.0833 100.242 61.2423 91.0833 72.5 91.0833C83.7578 91.0833 92.9167 100.242 92.9167 111.5C92.9167 122.758 83.7578 131.917 72.5 131.917ZM72.5 94.1458C62.9307 94.1458 55.1458 101.931 55.1458 111.5C55.1458 121.069 62.9307 128.854 72.5 128.854C82.0693 128.854 89.8542 121.069 89.8542 111.5C89.8542 101.931 82.0693 94.1458 72.5 94.1458Z" fill="#4307ED"/>
<path d="M72.5 97.2083C71.6548 97.2083 70.9688 96.5223 70.9688 95.6771V88.5312C70.9688 87.686 71.6548 87 72.5 87C73.3453 87 74.0313 87.686 74.0313 88.5312V95.6771C74.0313 96.5223 73.3453 97.2083 72.5 97.2083Z" fill="#4307ED"/>
<path d="M95.4688 113.031H88.3229C87.4777 113.031 86.7917 112.345 86.7917 111.5C86.7917 110.655 87.4777 109.969 88.3229 109.969H95.4688C96.314 109.969 97 110.655 97 111.5C97 112.345 96.314 113.031 95.4688 113.031Z" fill="#4307ED"/>
<path d="M72.5 136C71.6548 136 70.9688 135.314 70.9688 134.469V127.323C70.9688 126.478 71.6548 125.792 72.5 125.792C73.3453 125.792 74.0313 126.478 74.0313 127.323V134.469C74.0313 135.314 73.3453 136 72.5 136Z" fill="#4307ED"/>
<path d="M56.6771 113.031H49.5313C48.686 113.031 48 112.345 48 111.5C48 110.655 48.686 109.969 49.5313 109.969H56.6771C57.5223 109.969 58.2083 110.655 58.2083 111.5C58.2083 112.345 57.5223 113.031 56.6771 113.031Z" fill="#4307ED"/>
<path d="M72.5 117.625C69.1231 117.625 66.375 114.877 66.375 111.5C66.375 108.123 69.1231 105.375 72.5 105.375C75.8769 105.375 78.625 108.123 78.625 111.5C78.625 114.877 75.8769 117.625 72.5 117.625ZM72.5 108.438C70.8116 108.438 69.4375 109.812 69.4375 111.5C69.4375 113.188 70.8116 114.562 72.5 114.562C74.1885 114.562 75.5625 113.188 75.5625 111.5C75.5625 109.812 74.1885 108.438 72.5 108.438Z" fill="#4307ED"/>
</g>
<defs>
<clipPath id="clip0">
<rect width="49" height="49" fill="white" transform="translate(48 87)"/>
</clipPath>
</defs>
</svg>
