<svg width="150" height="150" viewBox="0 0 150 150" fill="none" xmlns="http://www.w3.org/2000/svg">
<path d="M-6.55671e-06 75C-4.81776e-06 94.8912 7.90176 113.968 21.967 128.033C36.0322 142.098 55.1088 150 75 150C94.8912 150 113.968 142.098 128.033 128.033C142.098 113.968 150 94.8912 150 75L75 75L-6.55671e-06 75Z" fill="white"/>
<g clip-path="url(#clip0)">
<path d="M93.2164 88.6701C88.915 84.3688 83.1962 82 77.1135 82C71.0306 82 65.3118 84.3688 61.0106 88.6701C56.7537 92.927 54.3896 98.5718 54.3414 104.584L50.1974 112.873C50.0122 113.243 50.1434 113.694 50.4985 113.907L54.3407 116.212V128.444C54.3407 128.882 54.6956 129.237 55.1333 129.237H62.7948V135.208C62.7948 135.645 63.1497 136 63.5874 136C64.025 136 64.38 135.645 64.38 135.208V128.444C64.38 128.007 64.025 127.652 63.5874 127.652H55.9257V115.763C55.9257 115.485 55.7796 115.227 55.5409 115.084L51.9432 112.925L55.8419 105.127C55.897 105.017 55.9257 104.896 55.9257 104.773C55.9257 93.0899 65.4305 83.5851 77.1135 83.5851C88.7965 83.5851 98.3013 93.0899 98.3013 104.773C98.3013 111.338 95.3309 117.425 90.1518 121.475C89.9596 121.625 89.8473 121.855 89.8473 122.099V135.207C89.8473 135.645 90.2021 136 90.6399 136C91.0777 136 91.4325 135.645 91.4325 135.207V122.481C96.8105 118.131 99.8865 111.699 99.8865 104.773C99.8864 98.6901 97.5177 92.9713 93.2164 88.6701Z" fill="#4307ED"/>
<path d="M77.1135 91.2994C74.3458 91.2994 72.0939 93.5513 72.0939 96.319C72.0939 99.0867 74.3457 101.339 77.1135 101.339C79.8812 101.339 82.1331 99.0867 82.1331 96.319C82.1331 93.5513 79.8812 91.2994 77.1135 91.2994ZM77.1135 99.7535C75.2197 99.7535 73.679 98.2127 73.679 96.319C73.679 94.4253 75.2196 92.8845 77.1135 92.8845C79.0073 92.8845 80.548 94.4253 80.548 96.319C80.5479 98.2127 79.0073 99.7535 77.1135 99.7535Z" fill="#4307ED"/>
<path d="M77.1135 87.0724C76.6757 87.0724 76.3209 87.4273 76.3209 87.865V89.5558C76.3209 89.9935 76.6757 90.3484 77.1135 90.3484C77.5513 90.3484 77.9061 89.9935 77.9061 89.5558V87.865C77.906 87.4272 77.5513 87.0724 77.1135 87.0724Z" fill="#4307ED"/>
<path d="M74.4181 90.0656L73.5727 88.6014C73.3539 88.2223 72.869 88.0925 72.4901 88.3113C72.111 88.5302 71.9812 89.0149 72.2 89.394L73.0455 90.8582C73.1924 91.1124 73.4588 91.2545 73.7326 91.2545C74.3336 91.2545 74.7168 90.583 74.4181 90.0656Z" fill="#4307ED"/>
<path d="M71.6526 92.251L70.1884 91.4056C69.8094 91.1865 69.3246 91.3166 69.1058 91.6956C68.8869 92.0747 69.0168 92.5594 69.3958 92.7783L70.86 93.6237C71.2643 93.8572 71.7956 93.6812 71.9826 93.2547C72.1426 92.8898 71.9974 92.45 71.6526 92.251Z" fill="#4307ED"/>
<path d="M70.3502 95.5264H68.6595C68.2217 95.5264 67.8669 95.8813 67.8669 96.319C67.8669 96.7567 68.2218 97.1116 68.6595 97.1116H70.3502C70.7879 97.1116 71.1428 96.7567 71.1428 96.319C71.1428 95.8813 70.7881 95.5264 70.3502 95.5264Z" fill="#4307ED"/>
<path d="M71.9427 99.3044C71.7239 98.9252 71.2391 98.7953 70.8601 99.0142L69.3958 99.8597C69.0511 100.059 68.9058 100.498 69.0658 100.864C69.2527 101.29 69.7841 101.466 70.1884 101.233L71.6527 100.387C72.0317 100.168 72.1615 99.6834 71.9427 99.3044Z" fill="#4307ED"/>
<path d="M74.1281 101.49C73.7489 101.271 73.2642 101.401 73.0454 101.78L72.2 103.244C72.0008 103.589 72.095 104.042 72.4161 104.278C72.7921 104.555 73.3398 104.44 73.5727 104.037L74.4182 102.572C74.6371 102.193 74.5072 101.709 74.1281 101.49Z" fill="#4307ED"/>
<path d="M77.1135 102.29C76.6757 102.29 76.3209 102.645 76.3209 103.082V104.773C76.3209 105.211 76.6757 105.566 77.1135 105.566C77.5513 105.566 77.9061 105.211 77.9061 104.773V103.082C77.906 102.644 77.5513 102.29 77.1135 102.29Z" fill="#4307ED"/>
<path d="M82.027 103.244L81.1816 101.78C80.9626 101.401 80.4777 101.271 80.0988 101.49C79.7198 101.709 79.5899 102.193 79.8088 102.572L80.6542 104.037C80.8871 104.44 81.4349 104.555 81.8109 104.278C82.1318 104.042 82.2259 103.589 82.027 103.244Z" fill="#4307ED"/>
<path d="M84.8311 99.8596L83.3669 99.0141C82.9875 98.7952 82.503 98.9251 82.2842 99.3042C82.0654 99.6833 82.1952 100.168 82.5743 100.387L84.0385 101.232C84.443 101.466 84.974 101.29 85.1611 100.863C85.3211 100.498 85.1758 100.059 84.8311 99.8596Z" fill="#4307ED"/>
<path d="M85.5675 95.5264H83.8767C83.4389 95.5264 83.0841 95.8813 83.0841 96.319C83.0841 96.7567 83.4389 97.1116 83.8767 97.1116H85.5675C86.0053 97.1116 86.3601 96.7567 86.3601 96.319C86.3601 95.8813 86.0053 95.5264 85.5675 95.5264Z" fill="#4307ED"/>
<path d="M85.1212 91.6959C84.9025 91.3167 84.4175 91.1868 84.0386 91.4057L82.5744 92.2511C82.2296 92.4503 82.0844 92.89 82.2444 93.255C82.4312 93.6815 82.9626 93.8575 83.367 93.624L84.8312 92.7786C85.2102 92.5596 85.3401 92.0749 85.1212 91.6959Z" fill="#4307ED"/>
<path d="M81.7367 88.3114C81.3573 88.0924 80.8727 88.2223 80.6541 88.6014L79.8086 90.0656C79.5099 90.5829 79.8931 91.2546 80.4943 91.2546C80.7682 91.2546 81.0346 91.1123 81.1814 90.8582L82.0269 89.394C82.2457 89.0149 82.1158 88.5302 81.7367 88.3114Z" fill="#4307ED"/>
<path d="M92.5552 116.138L87.5977 111.181C84.8409 108.424 80.4669 108.248 77.5022 110.65L73.8485 106.996C72.8913 106.039 71.2938 106.039 70.3365 106.996C70.1157 107.217 69.9423 107.473 69.8197 107.75L68.4683 106.399C67.5001 105.43 65.9246 105.43 64.9563 106.399C64.7355 106.619 64.5621 106.875 64.4395 107.152L63.686 106.399C62.7177 105.43 61.1423 105.43 60.174 106.399C59.2166 107.356 59.2166 108.953 60.174 109.911L60.8966 110.633C60.6569 110.738 60.4295 110.88 60.2263 111.065C59.1929 112.005 59.1499 113.669 60.1401 114.659L61.3694 115.888C61.6748 116.194 62.1849 116.194 62.4903 115.888C62.7956 115.583 62.7957 115.073 62.4903 114.768L61.2609 113.538C60.8877 113.165 60.9217 112.527 61.3377 112.199C61.7021 111.912 62.2447 111.981 62.5648 112.301L66.1155 115.852L66.203 115.94C66.2983 117.214 67.3599 118.226 68.6601 118.236L75.0528 118.284C75.0549 118.284 75.0569 118.284 75.0589 118.284C75.4938 118.284 75.8481 117.933 75.8514 117.498C75.8546 117.06 75.5025 116.702 75.0648 116.699L68.672 116.651C68.1767 116.647 67.7767 116.241 67.7805 115.746C67.7842 115.253 68.1864 114.854 68.6786 114.854C68.6809 114.854 68.6832 114.854 68.6854 114.854L74.8923 114.901C75.1525 114.965 75.4386 114.896 75.6419 114.693L78.0329 112.302C80.361 109.974 84.1489 109.974 86.4766 112.302L91.4341 117.259C91.7565 117.581 92.3007 117.56 92.5972 117.214C92.8627 116.904 92.8436 116.427 92.5552 116.138ZM66.7261 114.221L61.2948 108.79C60.9485 108.444 60.9486 107.866 61.2948 107.519C61.645 107.169 62.2149 107.169 62.5651 107.519L68.3389 113.293C67.6873 113.383 67.1152 113.726 66.7261 114.221ZM70.5661 113.283C70.5523 113.267 70.5384 113.251 70.523 113.236L66.0769 108.79C65.7309 108.444 65.731 107.866 66.077 107.519C66.4272 107.169 66.9972 107.169 67.3474 107.519L70.3352 110.507C70.3356 110.507 70.3359 110.508 70.3363 110.508L73.1307 113.303L70.5661 113.283ZM75.0812 113.012L71.4564 109.387C71.2873 109.217 71.1941 108.992 71.1941 108.752C71.1941 107.968 72.1729 107.563 72.7275 108.117L76.3515 111.741L75.0812 113.012Z" fill="#4307ED"/>
<path d="M87.1749 121.518L84.6085 118.952C84.4211 118.765 84.1526 118.684 83.8927 118.735L77.9918 119.916H67.6383L65.4793 117.757C65.1697 117.447 64.6679 117.447 64.3584 117.757C64.0489 118.066 64.0489 118.568 64.3584 118.877L66.7495 121.268C66.8981 121.417 67.0997 121.501 67.3099 121.501H78.0702C78.1224 121.501 78.1744 121.495 78.2257 121.485L83.7877 120.373L86.0539 122.639C86.3762 122.961 86.9205 122.94 87.217 122.594C87.4826 122.283 87.4634 121.807 87.1749 121.518Z" fill="#4307ED"/>
</g>
<defs>
<clipPath id="clip0">
<rect width="54" height="54" fill="white" transform="translate(48 82)"/>
</clipPath>
</defs>
</svg>
