<svg width="113" height="96" viewBox="0 0 113 96" fill="none" xmlns="http://www.w3.org/2000/svg">
<path d="M55.0029 5.3626C55.4259 3.84739 57.5741 3.84738 57.9971 5.3626C58.391 6.77346 60.3393 6.9062 60.9209 5.56181L60.9946 5.39151C61.6102 3.96838 63.7087 4.25875 63.9148 5.79559C64.1071 7.22962 65.9985 7.62001 66.7429 6.37933L66.9492 6.03547C67.7338 4.72768 69.7429 5.29185 69.732 6.81694C69.7219 8.24363 71.5229 8.87564 72.4065 7.75548L72.7715 7.29276C73.6997 6.11606 75.5866 6.93094 75.3664 8.4134C75.1598 9.804 76.8428 10.6567 77.8419 9.66761L78.3671 9.14769C79.414 8.11129 81.1534 9.14995 80.7376 10.5632C80.3465 11.8924 81.8899 12.9418 82.9822 12.0894L83.646 11.5714C84.7888 10.6795 86.3627 11.9136 85.7691 13.2362C85.2094 14.4833 86.5973 15.7045 87.763 14.9906L88.5255 14.5236C89.7444 13.7771 91.1405 15.1788 90.3891 16.3947C89.679 17.5438 90.9005 18.912 92.1225 18.3361L92.9318 17.9547C94.2098 17.3524 95.4208 18.8956 94.5319 19.9937C93.6902 21.0335 94.7383 22.5252 96.0018 22.0859L96.8013 21.8079C98.124 21.3479 99.1457 23.0089 98.1386 23.982C97.1836 24.9048 98.054 26.4985 99.3465 26.1938L100.08 26.0208C101.436 25.7013 102.266 27.4589 101.158 28.3028C100.107 29.1038 100.797 30.7799 102.108 30.6082L102.726 30.5272C104.104 30.3468 104.741 32.1823 103.548 32.8945C102.416 33.571 102.924 35.3117 104.243 35.2721L104.706 35.2582C106.096 35.2164 106.54 37.113 105.276 37.6921C104.075 38.2423 104.4 40.0313 105.718 40.1236L105.999 40.1433C107.392 40.2408 107.64 42.183 106.316 42.6277C105.059 43.05 105.237 44.8782 106.544 45.1032C107.93 45.3418 108.018 47.325 106.646 47.6336C105.348 47.9255 105.293 49.7596 106.574 50.1175C107.924 50.4944 107.774 52.4536 106.383 52.6215L106.199 52.6437C104.886 52.8022 104.653 54.6094 105.883 55.0959C107.178 55.6079 106.832 57.5292 105.44 57.557L105.065 57.5644C103.745 57.5907 103.328 59.3575 104.497 59.9711C105.727 60.6169 105.186 62.485 103.801 62.3738L103.256 62.3301C101.94 62.2245 101.34 63.935 102.434 64.6741C103.586 65.4524 102.852 67.2512 101.485 67.0013L100.803 66.8767C99.5 66.6387 98.7194 68.2759 99.7247 69.1383C100.784 70.0472 99.858 71.759 98.5176 71.3694L97.7442 71.1447C96.4647 70.7729 95.505 72.3182 96.4056 73.3002C97.3559 74.3365 96.2393 75.9414 94.9372 75.4105L94.1257 75.0796C92.8812 74.5723 91.7457 76.005 92.524 77.1006C93.3466 78.2588 92.0424 79.7344 90.792 79.0602L89.9992 78.6327C88.8034 77.9879 87.4975 79.2856 88.1348 80.4854C88.8098 81.7564 87.3237 83.0777 86.1405 82.2585L85.4215 81.7607C84.2901 80.9775 82.8228 82.1159 83.3004 83.4064C83.8075 84.7766 82.149 85.9165 81.0515 84.9521L80.453 84.4263C79.4047 83.5051 77.7891 84.4592 78.0897 85.822C78.4098 87.2729 76.5939 88.2032 75.6034 87.0958L75.157 86.5967C74.2127 85.5412 72.4676 86.2864 72.5771 87.6984C72.694 89.2058 70.7425 89.8985 69.8828 88.6548L69.5989 88.2439C68.7819 87.0618 66.9319 87.5754 66.8412 89.0095C66.7441 90.5445 64.6857 90.9744 63.9824 89.6065L63.8472 89.3434C63.1813 88.0483 61.257 88.3115 60.9633 89.7378C60.6483 91.2681 58.5061 91.377 57.9841 89.9044C57.492 88.5166 55.508 88.5166 55.0159 89.9044C54.4939 91.377 52.3517 91.2681 52.0367 89.7378C51.743 88.3115 49.8187 88.0483 49.1528 89.3434L49.0176 89.6065C48.3143 90.9744 46.2559 90.5445 46.1588 89.0095C46.0681 87.5754 44.2181 87.0618 43.4011 88.2439L43.1172 88.6548C42.2575 89.8985 40.306 89.2058 40.4229 87.6984C40.5324 86.2864 38.7873 85.5412 37.843 86.5967L37.3966 87.0958C36.4061 88.2032 34.5902 87.2729 34.9103 85.8221C35.2109 84.4592 33.5953 83.5051 32.547 84.4263L31.9485 84.9521C30.851 85.9166 29.1925 84.7766 29.6996 83.4064C30.1772 82.1159 28.7099 80.9775 27.5785 81.7607L26.8595 82.2585C25.6763 83.0777 24.1902 81.7564 24.8652 80.4854C25.5025 79.2856 24.1966 77.9879 23.0008 78.6327L22.208 79.0602C20.9576 79.7344 19.6534 78.2588 20.476 77.1006C21.2543 76.005 20.1188 74.5723 18.8743 75.0796L18.0628 75.4105C16.7607 75.9414 15.6441 74.3365 16.5944 73.3002C17.495 72.3182 16.5353 70.7729 15.2558 71.1447L14.4825 71.3694C13.142 71.759 12.2159 70.0472 13.2753 69.1383C14.2806 68.2759 13.5 66.6387 12.1971 66.8767L11.5152 67.0013C10.1476 67.2512 9.4136 65.4524 10.5656 64.6741C11.6596 63.935 11.0601 62.2245 9.74412 62.3301L9.19884 62.3738C7.814 62.485 7.27323 60.6169 8.50328 59.9711C9.6718 59.3575 9.2548 57.5907 7.93526 57.5644L7.5604 57.557C6.16779 57.5292 5.82161 55.6079 7.11695 55.0959C8.34744 54.6094 8.11449 52.8022 6.80086 52.6437L6.61674 52.6215C5.2258 52.4536 5.07631 50.4944 6.42567 50.1175C7.70688 49.7596 7.65197 47.9255 6.35414 47.6336C4.98168 47.325 5.06965 45.3418 6.45599 45.1032C7.76301 44.8782 7.94082 43.05 6.68362 42.6277C5.35993 42.183 5.60809 40.2408 7.00107 40.1433L7.2822 40.1236C8.59998 40.0313 8.92518 38.2423 7.72419 37.6921C6.46001 37.113 6.90369 35.2164 8.29358 35.2582L8.75708 35.2721C10.076 35.3117 10.5844 33.5711 9.45153 32.8945C8.25879 32.1823 8.8963 30.3468 10.2738 30.5272L10.8923 30.6082C12.203 30.7799 12.8932 29.1038 11.8417 28.3028C10.734 27.4589 11.5642 25.7013 12.9196 26.0208L13.6535 26.1938C14.946 26.4985 15.8164 24.9048 14.8614 23.982C13.8543 23.0089 14.876 21.3479 16.1987 21.8079L16.9982 22.0859C18.2617 22.5252 19.3098 21.0335 18.4681 19.9937C17.5792 18.8956 18.7902 17.3524 20.0682 17.9547L20.8775 18.3361C22.0995 18.912 23.321 17.5438 22.6109 16.3947C21.8595 15.1788 23.2556 13.7771 24.4745 14.5236L25.237 14.9906C26.4027 15.7045 27.7906 14.4833 27.2309 13.2362C26.6373 11.9136 28.2112 10.6795 29.354 11.5714L30.0178 12.0894C31.1101 12.9418 32.6535 11.8924 32.2624 10.5632C31.8466 9.14995 33.586 8.11129 34.6329 9.14769L35.1581 9.66761C36.1572 10.6567 37.8402 9.804 37.6336 8.4134C37.4134 6.93094 39.3003 6.11606 40.2285 7.29276L40.5935 7.75548C41.4771 8.87564 43.2781 8.24363 43.268 6.81694C43.2571 5.29185 45.2662 4.72768 46.0508 6.03547L46.2571 6.37933C47.0015 7.62001 48.8929 7.22962 49.0852 5.79559C49.2913 4.25875 51.3898 3.96837 52.0054 5.3915L52.0791 5.56181C52.6607 6.9062 54.609 6.77346 55.0029 5.3626Z" fill="white"/>
<path d="M56.724 52.8155C56.724 55.1721 56.0007 56.9105 54.554 58.0305C53.1307 59.1271 51.4157 59.6755 49.409 59.6755C48.149 59.6755 46.959 59.4538 45.839 59.0105C44.719 58.5438 43.7974 57.7971 43.074 56.7705C42.374 55.7438 42.024 54.4255 42.024 52.8155V41.5455C42.024 39.1421 42.6774 37.3221 43.984 36.0855C45.314 34.8488 47.134 34.2305 49.444 34.2305C51.754 34.2305 53.539 34.8838 54.799 36.1905C56.0824 37.4971 56.724 39.2938 56.724 41.5805V52.8155ZM53.539 42.2805C53.539 40.7405 53.2124 39.5738 52.559 38.7805C51.929 37.9871 50.8674 37.5905 49.374 37.5905C47.8807 37.5905 46.8074 37.9871 46.154 38.7805C45.524 39.5505 45.209 40.7055 45.209 42.2455V52.3605C45.209 53.6671 45.5707 54.6821 46.294 55.4055C47.0407 56.1288 48.0674 56.4905 49.374 56.4905C50.634 56.4905 51.6374 56.1288 52.384 55.4055C53.154 54.6588 53.539 53.6321 53.539 52.3255V42.2805ZM63.508 39.0955C63.2047 39.2821 62.8313 39.4455 62.388 39.5855C61.9447 39.7255 61.5363 39.8305 61.163 39.9005C60.813 39.9471 60.5913 39.9705 60.498 39.9705L59.623 37.1355C59.623 37.1588 59.8563 37.1121 60.323 36.9955C60.7897 36.8555 61.3147 36.6221 61.898 36.2955C62.4813 35.9455 63.018 35.4438 63.508 34.7905H66.693V59.2905H63.473L63.508 39.0955Z" fill="#4307ED"/>
</svg>
