<svg width="150" height="150" viewBox="0 0 150 150" fill="none" xmlns="http://www.w3.org/2000/svg">
<path d="M-6.55671e-06 75C-4.81776e-06 94.8912 7.90176 113.968 21.967 128.033C36.0322 142.098 55.1088 150 75 150C94.8912 150 113.968 142.098 128.033 128.033C142.098 113.968 150 94.8912 150 75L75 75L-6.55671e-06 75Z" fill="white"/>
<g clip-path="url(#clip0)">
<path d="M100.468 90.678C99.8239 86.8508 96.51 84.0484 92.6289 84.0484C88.7478 84.0484 85.4339 86.8508 84.7893 90.678C82.5274 91.5405 80.8731 93.5123 80.4168 95.8897C71.331 92.5964 61.1679 95.8648 55.7048 103.837C50.2417 111.809 50.8616 122.466 57.212 129.751C63.5625 137.036 74.036 139.104 82.6787 134.78C91.3215 130.456 95.9459 120.834 93.923 111.383L97.8538 107.7C98.3234 107.276 98.5308 106.634 98.3976 106.016C98.2645 105.398 97.8112 104.898 97.209 104.705L96.7938 104.573C96.6772 104.533 96.5819 104.447 96.5302 104.336C96.4784 104.224 96.4748 104.096 96.52 103.981L97.845 99.2905C97.9895 98.8442 97.9506 98.3588 97.7369 97.9412C97.5231 97.5236 97.152 97.2082 96.7055 97.0645L92.5008 95.713C92.0522 95.5692 91.5647 95.6106 91.1468 95.8279C90.7288 96.0451 90.4149 96.4204 90.2748 96.8702L87.8722 104.891C87.6819 105.452 87.7232 106.066 87.9868 106.596C88.2504 107.127 88.7146 107.53 89.2767 107.717C89.3916 107.752 89.4876 107.832 89.5426 107.938C89.5975 108.045 89.6068 108.169 89.5682 108.283L87.6248 114.334C87.4593 114.836 87.6579 115.386 88.106 115.667C88.554 115.947 89.1358 115.886 89.5152 115.517L92.3948 112.814C93.7569 121.516 89.0966 130.045 81.0383 133.6C72.98 137.155 63.5387 134.845 58.0308 127.973C52.5229 121.1 52.3258 111.382 57.5504 104.292C62.7751 97.2012 72.115 94.511 80.3108 97.7358C80.5089 100.67 82.5037 103.175 85.3193 104.025C85.7877 104.162 86.2781 103.893 86.4147 103.425C86.5513 102.956 86.2823 102.466 85.814 102.329C83.1488 101.539 81.5466 98.8246 82.1435 96.1096C82.7404 93.3947 85.3334 91.6022 88.0842 92.003C88.572 92.0762 89.0268 91.74 89.1 91.2522C89.1732 90.7643 88.837 90.3095 88.3492 90.2363C87.8006 90.1687 87.2459 90.1687 86.6973 90.2363C87.2843 88.1061 88.9632 86.4509 91.1015 85.8942C93.2398 85.3374 95.5126 85.9637 97.064 87.5372C98.6153 89.1106 99.2093 91.3921 98.6223 93.5223C98.5263 93.9871 98.8146 94.4446 99.2752 94.5586C99.7359 94.6726 100.204 94.4022 100.336 93.9463C100.454 93.524 100.537 93.0926 100.583 92.6567C102.45 93.6957 103.51 95.7536 103.273 97.8765C103.035 99.9994 101.547 101.772 99.4968 102.373C99.2651 102.422 99.0625 102.562 98.9347 102.761C98.8068 102.96 98.7643 103.202 98.8167 103.433C98.9571 103.898 99.4463 104.162 99.912 104.025C102.796 103.152 104.809 100.548 104.926 97.5372C105.044 94.5268 103.24 91.7729 100.433 90.678H100.468ZM89.7802 106.03C89.6974 106.003 89.6301 105.942 89.5947 105.863C89.4445 105.58 89.3562 106.101 91.962 97.4002L96.1667 98.7782L94.824 103.433C94.6436 103.992 94.6932 104.6 94.9617 105.122C95.2302 105.644 95.6956 106.038 96.255 106.216L96.6702 106.348L90.0363 112.532L91.2553 108.751C91.5927 107.593 90.9347 106.379 89.7802 106.03V106.03Z" fill="#4307ED"/>
<path d="M66.575 114.917C68.7703 114.917 70.55 113.137 70.55 110.942C70.55 108.746 68.7703 106.967 66.575 106.967C64.3796 106.967 62.6 108.746 62.6 110.942C62.6048 113.135 64.3817 114.912 66.575 114.917ZM66.575 108.733C67.7946 108.733 68.7833 109.722 68.7833 110.942C68.7833 112.161 67.7946 113.15 66.575 113.15C65.3553 113.15 64.3666 112.161 64.3666 110.942C64.3666 109.722 65.3553 108.733 66.575 108.733Z" fill="#4307ED"/>
<path d="M79.825 106.967C77.6296 106.967 75.85 108.746 75.85 110.942C75.85 113.137 77.6296 114.917 79.825 114.917C82.0203 114.917 83.8 113.137 83.8 110.942C83.7951 108.748 82.0183 106.972 79.825 106.967ZM79.825 113.15C78.6053 113.15 77.6166 112.161 77.6166 110.942C77.6166 109.722 78.6053 108.733 79.825 108.733C81.0446 108.733 82.0333 109.722 82.0333 110.942C82.0333 112.161 81.0446 113.15 79.825 113.15Z" fill="#4307ED"/>
<path d="M66.0273 127.116C70.5913 125.074 75.8087 125.074 80.3726 127.116C80.9776 127.43 81.7093 127.368 82.2528 126.956C82.7963 126.545 83.0546 125.857 82.9166 125.19C81.8861 120.672 77.8333 117.492 73.2 117.567C68.5643 117.486 64.5078 120.668 63.4833 125.19C63.3453 125.857 63.6036 126.545 64.1471 126.956C64.6906 127.368 65.4223 127.43 66.0273 127.116ZM67.4583 121.612C72.0075 117.258 79.825 119.484 81.1411 125.508C76.0918 123.203 70.2905 123.203 65.2411 125.508C65.5679 124.014 66.3412 122.656 67.4583 121.612Z" fill="#4307ED"/>
</g>
<defs>
<clipPath id="clip0">
<rect width="53" height="53" fill="white" transform="translate(52 84)"/>
</clipPath>
</defs>
</svg>
