<svg width="113" height="97" viewBox="0 0 113 97" fill="none" xmlns="http://www.w3.org/2000/svg">
<path d="M55.0029 6.31024C55.4259 4.79502 57.5741 4.79502 57.9971 6.31024C58.391 7.72109 60.3393 7.85383 60.9209 6.50945L60.9946 6.33914C61.6102 4.91601 63.7087 5.20639 63.9148 6.74323C64.1071 8.17726 65.9985 8.56765 66.7429 7.32697L66.9492 6.9831C67.7338 5.67531 69.7429 6.23948 69.732 7.76457C69.7219 9.19126 71.5229 9.82327 72.4065 8.70311L72.7715 8.24039C73.6997 7.06369 75.5866 7.87857 75.3664 9.36103C75.1598 10.7516 76.8428 11.6043 77.8419 10.6152L78.3671 10.0953C79.414 9.05893 81.1534 10.0976 80.7376 11.5108C80.3465 12.84 81.8899 13.8895 82.9822 13.037L83.646 12.519C84.7888 11.6271 86.3627 12.8613 85.7691 14.1838C85.2094 15.431 86.5973 16.6521 87.763 15.9382L88.5255 15.4712C89.7444 14.7247 91.1405 16.1264 90.3891 17.3423C89.679 18.4915 90.9005 19.8596 92.1225 19.2838L92.9318 18.9023C94.2098 18.3 95.4208 19.8433 94.5319 20.9414C93.6902 21.9811 94.7383 23.4729 96.0018 23.0335L96.8013 22.7555C98.124 22.2955 99.1457 23.9565 98.1386 24.9296C97.1836 25.8524 98.054 27.4461 99.3465 27.1414L100.08 26.9684C101.436 26.6489 102.266 28.4065 101.158 29.2504C100.107 30.0515 100.797 31.7276 102.108 31.5559L102.726 31.4748C104.104 31.2944 104.741 33.1299 103.548 33.8422C102.416 34.5187 102.924 36.2594 104.243 36.2197L104.706 36.2058C106.096 36.1641 106.54 38.0607 105.276 38.6398C104.075 39.1899 104.4 40.9789 105.718 41.0712L105.999 41.0909C107.392 41.1885 107.64 43.1306 106.316 43.5753C105.059 43.9977 105.237 45.8258 106.544 46.0508C107.93 46.2894 108.018 48.2726 106.646 48.5813C105.348 48.8731 105.293 50.7072 106.574 51.0651C107.924 51.442 107.774 53.4013 106.383 53.5691L106.199 53.5913C104.886 53.7498 104.653 55.557 105.883 56.0435C107.178 56.5556 106.832 58.4768 105.44 58.5046L105.065 58.5121C103.745 58.5384 103.328 60.3052 104.497 60.9187C105.727 61.5645 105.186 63.4326 103.801 63.3215L103.256 63.2777C101.94 63.1721 101.34 64.8827 102.434 65.6217C103.586 66.4 102.852 68.1988 101.485 67.9489L100.803 67.8243C99.5 67.5863 98.7194 69.2235 99.7247 70.0859C100.784 70.9948 99.858 72.7066 98.5176 72.3171L97.7442 72.0923C96.4647 71.7205 95.505 73.2658 96.4056 74.2478C97.3559 75.2841 96.2393 76.889 94.9372 76.3582L94.1257 76.0273C92.8812 75.5199 91.7457 76.9527 92.524 78.0483C93.3466 79.2064 92.0424 80.682 90.792 80.0078L89.9992 79.5803C88.8034 78.9355 87.4975 80.2332 88.1348 81.4331C88.8098 82.704 87.3237 84.0253 86.1405 83.2062L85.4215 82.7084C84.2901 81.9251 82.8228 83.0635 83.3004 84.354C83.8075 85.7243 82.149 86.8642 81.0515 85.8998L80.453 85.3739C79.4047 84.4527 77.7891 85.4069 78.0897 86.7697C78.4098 88.2205 76.5939 89.1508 75.6034 88.0435L75.157 87.5444C74.2127 86.4888 72.4676 87.234 72.5771 88.646C72.694 90.1535 70.7425 90.8462 69.8828 89.6024L69.5989 89.1916C68.7819 88.0095 66.9319 88.523 66.8412 89.9571C66.7441 91.4922 64.6857 91.922 63.9824 90.5541L63.8472 90.291C63.1813 88.996 61.257 89.2591 60.9633 90.6854C60.6483 92.2157 58.5061 92.3246 57.9841 90.8521C57.492 89.4642 55.508 89.4642 55.0159 90.8521C54.4939 92.3246 52.3517 92.2157 52.0367 90.6854C51.743 89.2591 49.8187 88.996 49.1528 90.291L49.0176 90.5541C48.3143 91.922 46.2559 91.4922 46.1588 89.9571C46.0681 88.523 44.2181 88.0095 43.4011 89.1916L43.1172 89.6024C42.2575 90.8462 40.306 90.1535 40.4229 88.646C40.5324 87.234 38.7873 86.4888 37.843 87.5444L37.3966 88.0435C36.4061 89.1508 34.5902 88.2205 34.9103 86.7697C35.2109 85.4069 33.5953 84.4527 32.547 85.3739L31.9485 85.8998C30.851 86.8642 29.1925 85.7243 29.6996 84.354C30.1772 83.0635 28.7099 81.9251 27.5785 82.7084L26.8595 83.2062C25.6763 84.0253 24.1902 82.704 24.8652 81.4331C25.5025 80.2332 24.1966 78.9355 23.0008 79.5803L22.208 80.0078C20.9576 80.682 19.6534 79.2064 20.476 78.0483C21.2543 76.9527 20.1188 75.5199 18.8743 76.0273L18.0628 76.3582C16.7607 76.889 15.6441 75.2841 16.5944 74.2478C17.495 73.2658 16.5353 71.7205 15.2558 72.0923L14.4825 72.3171C13.142 72.7066 12.2159 70.9948 13.2753 70.0859C14.2806 69.2235 13.5 67.5863 12.1971 67.8243L11.5152 67.9489C10.1476 68.1988 9.4136 66.4 10.5656 65.6217C11.6596 64.8827 11.0601 63.1721 9.74412 63.2777L9.19884 63.3215C7.814 63.4326 7.27323 61.5645 8.50328 60.9187C9.6718 60.3052 9.2548 58.5384 7.93526 58.5121L7.5604 58.5046C6.16779 58.4768 5.82161 56.5556 7.11695 56.0435C8.34744 55.557 8.11449 53.7498 6.80086 53.5913L6.61674 53.5691C5.2258 53.4013 5.07631 51.442 6.42567 51.0651C7.70688 50.7072 7.65197 48.8731 6.35414 48.5813C4.98168 48.2726 5.06965 46.2894 6.45599 46.0508C7.76301 45.8258 7.94082 43.9977 6.68362 43.5753C5.35993 43.1306 5.60809 41.1885 7.00107 41.0909L7.2822 41.0712C8.59998 40.9789 8.92518 39.1899 7.72419 38.6398C6.46001 38.0607 6.90369 36.1641 8.29358 36.2058L8.75708 36.2197C10.076 36.2594 10.5844 34.5187 9.45153 33.8422C8.25879 33.1299 8.8963 31.2944 10.2738 31.4748L10.8923 31.5559C12.203 31.7276 12.8932 30.0515 11.8417 29.2504C10.734 28.4065 11.5642 26.6489 12.9196 26.9684L13.6535 27.1414C14.946 27.4461 15.8164 25.8524 14.8614 24.9296C13.8543 23.9565 14.876 22.2955 16.1987 22.7555L16.9982 23.0335C18.2617 23.4729 19.3098 21.9811 18.4681 20.9414C17.5792 19.8433 18.7902 18.3 20.0682 18.9023L20.8775 19.2838C22.0995 19.8596 23.321 18.4915 22.6109 17.3423C21.8595 16.1264 23.2556 14.7247 24.4745 15.4712L25.237 15.9382C26.4027 16.6521 27.7906 15.431 27.2309 14.1838C26.6373 12.8613 28.2112 11.6271 29.354 12.519L30.0178 13.037C31.1101 13.8895 32.6535 12.84 32.2624 11.5108C31.8466 10.0976 33.586 9.05893 34.6329 10.0953L35.1581 10.6152C36.1572 11.6043 37.8402 10.7516 37.6336 9.36103C37.4134 7.87857 39.3003 7.06369 40.2285 8.24039L40.5935 8.70311C41.4771 9.82328 43.2781 9.19126 43.268 7.76458C43.2571 6.23949 45.2662 5.67531 46.0508 6.9831L46.2571 7.32696C47.0015 8.56764 48.8929 8.17725 49.0852 6.74322C49.2913 5.20638 51.3898 4.91601 52.0054 6.33914L52.0791 6.50945C52.6607 7.85383 54.609 7.72109 55.0029 6.31024Z" fill="white"/>
<path d="M56.724 53.7631C56.724 56.1198 56.0007 57.8581 54.554 58.9781C53.1307 60.0748 51.4157 60.6231 49.409 60.6231C48.149 60.6231 46.959 60.4014 45.839 59.9581C44.719 59.4914 43.7974 58.7448 43.074 57.7181C42.374 56.6914 42.024 55.3731 42.024 53.7631V42.4931C42.024 40.0898 42.6774 38.2698 43.984 37.0331C45.314 35.7964 47.134 35.1781 49.444 35.1781C51.754 35.1781 53.539 35.8314 54.799 37.1381C56.0824 38.4448 56.724 40.2414 56.724 42.5281V53.7631ZM53.539 43.2281C53.539 41.6881 53.2124 40.5214 52.559 39.7281C51.929 38.9348 50.8674 38.5381 49.374 38.5381C47.8807 38.5381 46.8074 38.9348 46.154 39.7281C45.524 40.4981 45.209 41.6531 45.209 43.1931V53.3081C45.209 54.6148 45.5707 55.6298 46.294 56.3531C47.0407 57.0764 48.0674 57.4381 49.374 57.4381C50.634 57.4381 51.6374 57.0764 52.384 56.3531C53.154 55.6064 53.539 54.5798 53.539 53.2731V43.2281ZM61.723 55.1981C62.1197 55.8981 62.6797 56.4698 63.403 56.9131C64.1497 57.3331 64.943 57.5431 65.783 57.5431C67.0663 57.5431 68.1047 57.1231 68.898 56.2831C69.6913 55.4198 70.088 54.3931 70.088 53.2031C70.088 51.8964 69.6097 50.8698 68.653 50.1231C67.6963 49.3531 66.4597 48.9331 64.943 48.8631H61.093L67.708 38.9231H61.163V35.7381H71.243V38.8531L66.623 45.7831L66.763 45.8181C67.883 45.9581 68.9447 46.3548 69.948 47.0081C70.9513 47.6614 71.7563 48.5248 72.363 49.5981C72.9697 50.6714 73.273 51.8731 73.273 53.2031C73.273 54.5564 72.9347 55.8048 72.258 56.9481C71.6047 58.0914 70.7063 59.0014 69.563 59.6781C68.4197 60.3314 67.1713 60.6581 65.818 60.6581C64.558 60.6581 63.3797 60.3664 62.283 59.7831C61.1863 59.1764 60.2997 58.3598 59.623 57.3331L61.723 55.1981Z" fill="#4307ED"/>
</svg>
