<svg width="113" height="96" viewBox="0 0 113 96" fill="none" xmlns="http://www.w3.org/2000/svg">
<path d="M55.0029 6.06732C55.4259 4.5521 57.5741 4.5521 57.9971 6.06732C58.391 7.47817 60.3393 7.61091 60.9209 6.26653L60.9946 6.09622C61.6102 4.67309 63.7087 4.96347 63.9148 6.50031C64.1071 7.93434 65.9985 8.32473 66.7429 7.08405L66.9492 6.74018C67.7338 5.43239 69.7429 5.99656 69.732 7.52165C69.7219 8.94834 71.5229 9.58035 72.4065 8.46019L72.7715 7.99747C73.6997 6.82078 75.5866 7.63565 75.3664 9.11811C75.1598 10.5087 76.8428 11.3614 77.8419 10.3723L78.3671 9.8524C79.414 8.81601 81.1534 9.85466 80.7376 11.2679C80.3465 12.5971 81.8899 13.6466 82.9822 12.7941L83.646 12.2761C84.7888 11.3842 86.3627 12.6183 85.7691 13.9409C85.2094 15.1881 86.5973 16.4092 87.763 15.6953L88.5255 15.2283C89.7444 14.4818 91.1405 15.8835 90.3891 17.0994C89.679 18.2485 90.9005 19.6167 92.1225 19.0408L92.9318 18.6594C94.2098 18.0571 95.4208 19.6003 94.5319 20.6984C93.6902 21.7382 94.7383 23.2299 96.0018 22.7906L96.8013 22.5126C98.124 22.0526 99.1457 23.7136 98.1386 24.6867C97.1836 25.6095 98.054 27.2032 99.3465 26.8985L100.08 26.7255C101.436 26.406 102.266 28.1636 101.158 29.0075C100.107 29.8085 100.797 31.4846 102.108 31.313L102.726 31.2319C104.104 31.0515 104.741 32.887 103.548 33.5992C102.416 34.2758 102.924 36.0165 104.243 35.9768L104.706 35.9629C106.096 35.9211 106.54 37.8177 105.276 38.3969C104.075 38.947 104.4 40.736 105.718 40.8283L105.999 40.848C107.392 40.9455 107.64 42.8877 106.316 43.3324C105.059 43.7547 105.237 45.5829 106.544 45.8079C107.93 46.0465 108.018 48.0297 106.646 48.3384C105.348 48.6302 105.293 50.4643 106.574 50.8222C107.924 51.1991 107.774 53.1584 106.383 53.3262L106.199 53.3484C104.886 53.5069 104.653 55.3141 105.883 55.8006C107.178 56.3127 106.832 58.2339 105.44 58.2617L105.065 58.2691C103.745 58.2954 103.328 60.0622 104.497 60.6758C105.727 61.3216 105.186 63.1897 103.801 63.0786L103.256 63.0348C101.94 62.9292 101.34 64.6397 102.434 65.3788C103.586 66.1571 102.852 67.9559 101.485 67.706L100.803 67.5814C99.5 67.3434 98.7194 68.9806 99.7247 69.843C100.784 70.7519 99.858 72.4637 98.5176 72.0742L97.7442 71.8494C96.4647 71.4776 95.505 73.0229 96.4056 74.0049C97.3559 75.0412 96.2393 76.6461 94.9372 76.1153L94.1257 75.7844C92.8812 75.277 91.7457 76.7098 92.524 77.8054C93.3466 78.9635 92.0424 80.4391 90.792 79.7649L89.9992 79.3374C88.8034 78.6926 87.4975 79.9903 88.1348 81.1901C88.8098 82.4611 87.3237 83.7824 86.1405 82.9632L85.4215 82.4654C84.2901 81.6822 82.8228 82.8206 83.3004 84.1111C83.8075 85.4813 82.149 86.6213 81.0515 85.6569L80.453 85.131C79.4047 84.2098 77.7891 85.1639 78.0897 86.5268C78.4098 87.9776 76.5939 88.9079 75.6034 87.8005L75.157 87.3015C74.2127 86.2459 72.4676 86.9911 72.5771 88.4031C72.694 89.9105 70.7425 90.6032 69.8828 89.3595L69.5989 88.9487C68.7819 87.7666 66.9319 88.2801 66.8412 89.7142C66.7441 91.2493 64.6857 91.6791 63.9824 90.3112L63.8472 90.0481C63.1813 88.753 61.257 89.0162 60.9633 90.4425C60.6483 91.9728 58.5061 92.0817 57.9841 90.6092C57.492 89.2213 55.508 89.2213 55.0159 90.6092C54.4939 92.0817 52.3517 91.9728 52.0367 90.4425C51.743 89.0162 49.8187 88.753 49.1528 90.0481L49.0176 90.3112C48.3143 91.6791 46.2559 91.2493 46.1588 89.7142C46.0681 88.2801 44.2181 87.7666 43.4011 88.9487L43.1172 89.3595C42.2575 90.6032 40.306 89.9105 40.4229 88.4031C40.5324 86.9911 38.7873 86.2459 37.843 87.3015L37.3966 87.8005C36.4061 88.9079 34.5902 87.9776 34.9103 86.5268C35.2109 85.1639 33.5953 84.2098 32.547 85.131L31.9485 85.6569C30.851 86.6213 29.1925 85.4813 29.6996 84.1111C30.1772 82.8206 28.7099 81.6822 27.5785 82.4654L26.8595 82.9632C25.6763 83.7824 24.1902 82.4611 24.8652 81.1901C25.5025 79.9903 24.1966 78.6926 23.0008 79.3374L22.208 79.7649C20.9576 80.4391 19.6534 78.9635 20.476 77.8054C21.2543 76.7098 20.1188 75.277 18.8743 75.7843L18.0628 76.1153C16.7607 76.6461 15.6441 75.0412 16.5944 74.0049C17.495 73.0229 16.5353 71.4776 15.2558 71.8494L14.4825 72.0742C13.142 72.4637 12.2159 70.7519 13.2753 69.843C14.2806 68.9806 13.5 67.3434 12.1971 67.5814L11.5152 67.706C10.1476 67.9559 9.4136 66.1571 10.5656 65.3788C11.6596 64.6397 11.0601 62.9292 9.74412 63.0348L9.19884 63.0786C7.814 63.1897 7.27323 61.3216 8.50328 60.6758C9.6718 60.0622 9.2548 58.2954 7.93526 58.2691L7.5604 58.2617C6.16779 58.2339 5.82161 56.3127 7.11695 55.8006C8.34744 55.3141 8.11449 53.5069 6.80086 53.3484L6.61674 53.3262C5.2258 53.1584 5.07631 51.1991 6.42567 50.8222C7.70688 50.4643 7.65197 48.6302 6.35414 48.3384C4.98168 48.0297 5.06965 46.0465 6.45599 45.8079C7.76301 45.5829 7.94082 43.7547 6.68362 43.3324C5.35993 42.8877 5.60809 40.9455 7.00107 40.848L7.2822 40.8283C8.59998 40.736 8.92518 38.947 7.72419 38.3969C6.46001 37.8177 6.90369 35.9211 8.29358 35.9629L8.75708 35.9768C10.076 36.0165 10.5844 34.2758 9.45153 33.5992C8.25879 32.887 8.8963 31.0515 10.2738 31.2319L10.8923 31.313C12.203 31.4846 12.8932 29.8085 11.8417 29.0075C10.734 28.1636 11.5642 26.406 12.9196 26.7255L13.6535 26.8985C14.946 27.2032 15.8164 25.6095 14.8614 24.6867C13.8543 23.7136 14.876 22.0526 16.1987 22.5126L16.9982 22.7906C18.2617 23.2299 19.3098 21.7382 18.4681 20.6984C17.5792 19.6003 18.7902 18.0571 20.0682 18.6594L20.8775 19.0408C22.0995 19.6167 23.321 18.2485 22.6109 17.0994C21.8595 15.8835 23.2556 14.4818 24.4745 15.2283L25.237 15.6953C26.4027 16.4092 27.7906 15.1881 27.2309 13.9409C26.6373 12.6183 28.2112 11.3842 29.354 12.2761L30.0178 12.7941C31.1101 13.6466 32.6535 12.5971 32.2624 11.2679C31.8466 9.85466 33.586 8.81601 34.6329 9.8524L35.1581 10.3723C36.1572 11.3614 37.8402 10.5087 37.6336 9.11811C37.4134 7.63565 39.3003 6.82077 40.2285 7.99747L40.5935 8.4602C41.4771 9.58036 43.2781 8.94834 43.268 7.52166C43.2571 5.99657 45.2662 5.43239 46.0508 6.74018L46.2571 7.08404C47.0015 8.32472 48.8929 7.93433 49.0852 6.5003C49.2913 4.96346 51.3898 4.67309 52.0054 6.09622L52.0791 6.26653C52.6607 7.61091 54.609 7.47817 55.0029 6.06732Z" fill="white"/>
<path d="M56.724 53.5202C56.724 55.8769 56.0007 57.6152 54.554 58.7352C53.1307 59.8319 51.4157 60.3802 49.409 60.3802C48.149 60.3802 46.959 60.1585 45.839 59.7152C44.719 59.2485 43.7974 58.5019 43.074 57.4752C42.374 56.4485 42.024 55.1302 42.024 53.5202V42.2502C42.024 39.8469 42.6774 38.0269 43.984 36.7902C45.314 35.5535 47.134 34.9352 49.444 34.9352C51.754 34.9352 53.539 35.5885 54.799 36.8952C56.0824 38.2019 56.724 39.9985 56.724 42.2852V53.5202ZM53.539 42.9852C53.539 41.4452 53.2124 40.2785 52.559 39.4852C51.929 38.6919 50.8674 38.2952 49.374 38.2952C47.8807 38.2952 46.8074 38.6919 46.154 39.4852C45.524 40.2552 45.209 41.4102 45.209 42.9502V53.0652C45.209 54.3719 45.5707 55.3869 46.294 56.1102C47.0407 56.8335 48.0674 57.1952 49.374 57.1952C50.634 57.1952 51.6374 56.8335 52.384 56.1102C53.154 55.3635 53.539 54.3369 53.539 53.0302V42.9852ZM59.623 57.0552L67.953 44.6652C68.7463 43.4752 69.143 42.3552 69.143 41.3052C69.143 40.3952 68.8397 39.6602 68.233 39.1002C67.6263 38.5402 66.8797 38.2602 65.993 38.2602C65.2697 38.2602 64.628 38.5052 64.068 38.9952C63.508 39.4852 63.158 40.0802 63.018 40.7802L60.148 39.3452C60.568 38.1319 61.3147 37.1285 62.388 36.3352C63.4613 35.5419 64.733 35.1452 66.203 35.1452C67.393 35.1452 68.4547 35.4019 69.388 35.9152C70.3213 36.4285 71.0447 37.1285 71.558 38.0152C72.0713 38.9019 72.328 39.9052 72.328 41.0252C72.328 42.6352 71.8147 44.2219 70.788 45.7852L63.333 57.0552H72.433V59.9952H59.623V57.0552Z" fill="#4307ED"/>
</svg>
