<svg width="2000" height="1024" viewBox="0 0 2000 1024" fill="none" xmlns="http://www.w3.org/2000/svg">
<path fill-rule="evenodd" clip-rule="evenodd" d="M2000 6.10352e-05L1933.33 42.6667C1866.67 85.3334 1733.33 170.667 1666.67 256C1600 341.333 1600 426.667 1366.67 512C1133.33 597.333 666.667 682.667 566.667 768C466.667 853.333 733.333 938.667 866.667 981.333L1000 1024L2.2683e-05 1024L2.49168e-05 981.333C2.71506e-05 938.667 3.16182e-05 853.333 3.60858e-05 768C4.05533e-05 682.667 4.50209e-05 597.333 4.94885e-05 512C5.39561e-05 426.667 5.84236e-05 341.333 6.28912e-05 256C6.73588e-05 170.667 7.18264e-05 85.3333 7.40602e-05 42.6667L7.62939e-05 -1.19553e-05L2000 6.10352e-05Z" fill="#8F00FF" fill-opacity="0.33"/>
<path d="M979.333 201.837H981.712V202.863H979.333V205.558H978.243V202.863H975.864V201.837H978.243V199.347H979.333V201.837Z" fill="white"/>
<path d="M1184.37 175.92H1188.33V177.629H1184.37V182.121H1182.55V177.629H1178.59V175.92H1182.55V171.769H1184.37V175.92Z" fill="white"/>
<path d="M598.823 643.56H604.77V646.123H598.823V652.861H596.099V646.123H590.151V643.56H596.099V637.334H598.823V643.56Z" fill="white"/>
<path d="M422.814 735.56H428.762V738.123H422.814V744.861H420.09V738.123H414.143V735.56H420.09V729.334H422.814V735.56Z" fill="white"/>
<path d="M915.753 361.306H921.701V363.87H915.753V370.608H913.029V363.87H907.081V361.306H913.029V355.081H915.753V361.306Z" fill="white"/>
<path d="M260.814 158.56H266.762V161.123H260.814V167.861H258.09V161.123H252.143V158.56H258.09V152.334H260.814V158.56Z" fill="white"/>
<path d="M111.179 549.466H116.135V551.603H111.179V557.218H108.908V551.603H103.952V549.466H108.908V544.278H111.179V549.466Z" fill="white"/>
<path d="M272.179 386.466H277.135V388.603H272.179V394.218H269.908V388.603H264.952V386.466H269.908V381.278H272.179V386.466Z" fill="white"/>
<path d="M1011.46 490.413H1014.43V491.695H1011.46V495.064H1010.09V491.695H1007.12V490.413H1010.09V487.3H1011.46V490.413Z" fill="white"/>
<path d="M1540.97 173.573H1546.92V176.136H1540.97V182.875H1538.24V176.136H1532.3V173.573H1538.24V167.347H1540.97V173.573Z" fill="white"/>
<ellipse cx="225.784" cy="162.067" rx="113.784" ry="81.0667" fill="#7029E2" fill-opacity="0.5"/>
<path d="M-0.418864 942C14.3655 942 29.0051 939.905 42.6641 935.834C56.323 931.764 68.7339 925.797 79.188 918.276C89.6421 910.754 97.9348 901.825 103.593 891.997C109.25 882.17 112.162 871.637 112.162 861C112.162 850.363 109.25 839.83 103.593 830.003C97.9348 820.175 89.6421 811.246 79.188 803.724C68.7339 796.203 56.323 790.236 42.6641 786.166C29.0051 782.095 14.3655 780 -0.418864 780L-0.418859 861L-0.418864 942Z" fill="#7029E2" fill-opacity="0.5"/>
</svg>
