<svg width="320" height="130" viewBox="0 0 320 130" fill="none" xmlns="http://www.w3.org/2000/svg">
<path d="M62.4971 48.1167C62.4401 48.2306 62.3831 48.3218 62.3262 48.3901C62.2806 48.4585 62.2407 48.5098 62.2065 48.5439C62.161 48.5895 62.1211 48.618 62.0869 48.6294C61.9958 48.6522 61.8135 48.6864 61.54 48.7319C61.2666 48.7661 60.8963 48.7946 60.4292 48.8174C60.0874 48.8402 59.6203 48.8914 59.0278 48.9712C58.4354 49.0396 57.7575 49.1307 56.9941 49.2446C56.2422 49.3472 55.4219 49.4554 54.5332 49.5693C53.6445 49.6833 52.7217 49.7801 51.7646 49.8599C51.6735 51.4549 51.6051 53.0841 51.5596 54.7476C51.5254 56.411 51.4969 58.0858 51.4741 59.772C51.4513 61.4468 51.4285 63.1216 51.4058 64.7964C51.3944 66.4598 51.3716 68.0947 51.3374 69.7012C51.3374 69.7581 51.3146 69.8151 51.269 69.8721C51.2235 69.9176 51.1893 69.9575 51.1665 69.9917C51.1095 70.2196 51.007 70.4189 50.8589 70.5898C50.7108 70.7493 50.557 70.8291 50.3975 70.8291C49.9189 70.8291 49.5487 70.755 49.2866 70.6069C49.036 70.4588 48.8195 70.2993 48.6372 70.1284C48.5575 70.0259 48.4777 69.8778 48.3979 69.6841C48.3296 69.479 48.2669 69.2568 48.21 69.0176C48.153 68.7669 48.1017 68.5049 48.0562 68.2314C48.0106 67.9466 47.9821 67.6789 47.9707 67.4282C47.9479 67.1776 47.9308 66.9326 47.9194 66.6934C47.908 66.4541 47.9023 66.2091 47.9023 65.9585C47.9023 65.4116 47.9194 64.8761 47.9536 64.3521C47.9878 63.828 48.0163 63.3381 48.0391 62.8823C48.0505 62.5975 48.0675 62.193 48.0903 61.6689C48.1245 61.1449 48.1644 60.5467 48.21 59.8745C48.2555 59.2023 48.3068 58.4845 48.3638 57.7212C48.4207 56.9465 48.4891 56.1717 48.5688 55.397C48.66 54.6222 48.7568 53.8703 48.8594 53.1411C48.9619 52.4006 49.0758 51.7284 49.2012 51.1245C49.2581 50.9422 49.3094 50.7656 49.355 50.5947C49.4006 50.4124 49.4404 50.2244 49.4746 50.0308C48.4264 50.0991 47.401 50.1333 46.3984 50.1333C45.111 50.1333 43.8862 50.0592 42.7241 49.9111C41.562 49.7516 40.5708 49.4782 39.7505 49.0908C39.6479 49.0339 39.591 48.9313 39.5796 48.7832C39.5568 48.6351 39.5112 48.4813 39.4429 48.3218C39.3517 48.1965 39.3175 48.0597 39.3403 47.9116C39.3631 47.7521 39.3745 47.6211 39.3745 47.5186C39.3631 47.416 39.3973 47.3477 39.4771 47.3135C39.5454 47.2793 39.6935 47.2679 39.9214 47.2793C40.1379 47.2793 40.4398 47.2907 40.8271 47.3135C41.2259 47.3363 41.7443 47.3477 42.3823 47.3477C42.8608 47.3477 43.4077 47.3363 44.0229 47.3135C44.6382 47.2907 45.3389 47.2508 46.125 47.1938C46.5124 47.1597 47.0706 47.1084 47.7998 47.04C48.5404 46.9603 49.3721 46.8862 50.2949 46.8179C51.2292 46.7381 52.2204 46.6698 53.2686 46.6128C54.3167 46.5558 55.3535 46.5273 56.3789 46.5273C56.7663 46.5273 57.1992 46.5501 57.6777 46.5957C58.1562 46.6299 58.6291 46.6812 59.0962 46.7495C59.5747 46.8179 60.0133 46.8976 60.4121 46.9888C60.8223 47.0799 61.1584 47.1711 61.4204 47.2622C61.5913 47.3306 61.6938 47.3932 61.728 47.4502C61.7622 47.4958 61.7736 47.5356 61.7622 47.5698C61.7622 47.604 61.7565 47.6325 61.7451 47.6553C61.7337 47.6781 61.7622 47.7008 61.8306 47.7236C61.8989 47.7464 61.973 47.7635 62.0527 47.7749C62.1325 47.7863 62.2065 47.8091 62.2749 47.8433C62.3433 47.866 62.4002 47.9002 62.4458 47.9458C62.4914 47.9914 62.5085 48.0483 62.4971 48.1167ZM65.4194 69.9233C65.4308 70.0828 65.3853 70.2424 65.2827 70.4019C65.1916 70.55 65.0776 70.6867 64.9409 70.812C64.8156 70.9373 64.6846 71.0342 64.5479 71.1025C64.4225 71.1823 64.3257 71.2279 64.2573 71.2393C64.0978 71.262 63.9212 71.245 63.7275 71.188C63.5339 71.131 63.3857 71.057 63.2832 70.9658C63.2035 70.8975 63.1465 70.8177 63.1123 70.7266C63.0895 70.624 63.061 70.4816 63.0269 70.2993C62.9699 70.0373 62.9129 69.8265 62.856 69.667C62.8104 69.4961 62.7705 69.3537 62.7363 69.2397C62.7021 69.1144 62.668 69.0005 62.6338 68.8979C62.611 68.7954 62.5939 68.6701 62.5825 68.522C62.4572 67.132 62.3831 65.7477 62.3604 64.3691C62.3376 62.9792 62.349 61.6462 62.3945 60.3701C62.4401 59.0941 62.5085 57.9092 62.5996 56.8154C62.7021 55.7103 62.799 54.7533 62.8901 53.9443C62.9927 53.124 63.0838 52.4746 63.1636 51.9961C63.2433 51.5176 63.2946 51.2612 63.3174 51.2271C63.3516 51.1359 63.4484 51.0505 63.6079 50.9707C63.7788 50.891 63.9725 50.834 64.189 50.7998C64.3485 50.777 64.4681 50.7542 64.5479 50.7314C64.6276 50.7087 64.696 50.6859 64.7529 50.6631C64.8099 50.6289 64.8726 50.6004 64.9409 50.5776C65.0207 50.5435 65.1403 50.5036 65.2998 50.458C65.4365 50.4238 65.5163 50.4922 65.5391 50.6631C65.5618 50.834 65.5562 51.1473 65.522 51.603C65.4878 52.0588 65.4365 52.6797 65.3682 53.4658C65.3112 54.252 65.2656 55.2432 65.2314 56.4395C65.3568 56.4622 65.4935 56.4736 65.6416 56.4736C65.8011 56.4736 65.972 56.4736 66.1543 56.4736C66.7581 56.4736 67.4588 56.411 68.2563 56.2856C69.0539 56.1603 69.8514 55.9382 70.6489 55.6191C71.4578 55.2887 72.2212 54.8444 72.939 54.2861C73.6567 53.7165 74.2378 52.9987 74.6821 52.1328C74.7505 51.9619 74.7847 51.7625 74.7847 51.5347C74.7847 51.2157 74.6764 50.9023 74.46 50.5947C74.2549 50.2757 73.9245 49.9966 73.4688 49.7573C73.013 49.5067 72.4206 49.3073 71.6914 49.1592C70.9622 48.9997 70.085 48.9199 69.0596 48.9199C68.4557 48.9199 67.8291 48.9655 67.1797 49.0566C66.5303 49.1478 65.8695 49.2959 65.1973 49.501C64.5251 49.7061 63.8472 49.9738 63.1636 50.3042C62.48 50.6346 61.8078 51.0448 61.147 51.5347C61.1128 51.5688 61.0501 51.5973 60.959 51.6201C60.8678 51.6315 60.7767 51.6372 60.6855 51.6372C60.5146 51.6372 60.3494 51.5745 60.1899 51.4492C60.0304 51.3239 59.9507 51.1929 59.9507 51.0562C59.9507 50.9878 59.9735 50.9308 60.019 50.8853C60.0646 50.8283 60.1159 50.777 60.1729 50.7314C60.2412 50.6859 60.2982 50.646 60.3438 50.6118C60.3893 50.5776 60.4121 50.5492 60.4121 50.5264C60.4121 50.4922 60.3893 50.4466 60.3438 50.3896C60.2982 50.3327 60.2754 50.2586 60.2754 50.1675C60.2754 50.1561 60.2469 50.1447 60.1899 50.1333C60.133 50.1219 60.0646 50.1048 59.9849 50.082C59.9165 50.0592 59.8538 50.0251 59.7969 49.9795C59.7399 49.9225 59.7114 49.8485 59.7114 49.7573C59.7114 49.689 59.7456 49.632 59.814 49.5864C59.8937 49.5409 59.9849 49.4782 60.0874 49.3984C60.2241 49.3187 60.4634 49.1649 60.8052 48.937C61.147 48.7091 61.5571 48.4528 62.0356 48.168C62.5256 47.8831 63.0667 47.5869 63.6592 47.2793C64.2516 46.9717 64.8726 46.6925 65.522 46.4419C66.1828 46.1799 66.855 45.9691 67.5386 45.8096C68.2222 45.6387 68.8887 45.5532 69.5381 45.5532C70.1989 45.5532 70.8312 45.6672 71.4351 45.895C72.0389 46.1229 72.6029 46.4248 73.127 46.8008C73.651 47.1768 74.1239 47.6154 74.5454 48.1167C74.967 48.6066 75.3258 49.125 75.6221 49.6719C75.9297 50.2074 76.1632 50.7542 76.3228 51.3125C76.4937 51.8594 76.5791 52.3778 76.5791 52.8677C76.5791 53.4373 76.3911 53.9842 76.0151 54.5083C75.6506 55.0324 75.1777 55.5223 74.5967 55.978C74.027 56.4338 73.4004 56.8496 72.7168 57.2256C72.0332 57.5902 71.3838 57.9092 70.7686 58.1826C70.1875 58.4333 69.5894 58.6156 68.9741 58.7295C68.3703 58.832 67.812 58.8947 67.2993 58.9175C67.869 59.134 68.4671 59.4302 69.0938 59.8062C69.7318 60.1821 70.3584 60.7062 70.9736 61.3784C71.2812 61.7202 71.5832 62.1816 71.8794 62.7627C72.1756 63.3324 72.4718 63.9647 72.7681 64.6597C73.0643 65.3547 73.3605 66.0895 73.6567 66.8643C73.9644 67.639 74.2834 68.408 74.6138 69.1714C74.9556 69.9233 75.3145 70.6411 75.6904 71.3247C76.0778 72.0197 76.488 72.6292 76.9209 73.1533C77.3652 73.6774 77.8381 74.0933 78.3394 74.4009C78.8521 74.7199 79.4103 74.8794 80.0142 74.8794C80.561 74.8794 81.1535 74.737 81.7915 74.4521C82.4409 74.1787 83.1416 73.7059 83.8936 73.0337C84.1784 72.8058 84.3607 72.6235 84.4404 72.4868C84.5316 72.3615 84.5942 72.2988 84.6284 72.2988C84.6626 72.2988 84.6854 72.3216 84.6968 72.3672C84.7196 72.4128 84.731 72.4583 84.731 72.5039C84.7424 72.5609 84.748 72.6121 84.748 72.6577C84.748 72.7033 84.7537 72.7318 84.7651 72.7432V72.7773C84.7651 72.8343 84.7424 72.8856 84.6968 72.9312C84.731 72.9312 84.7537 72.9482 84.7651 72.9824C84.7879 73.028 84.7993 73.0793 84.7993 73.1362C84.7993 73.2274 84.7765 73.3185 84.731 73.4097C84.6512 73.5236 84.5544 73.723 84.4404 74.0078C84.3265 74.304 84.1727 74.6344 83.979 74.999C83.7967 75.3636 83.5688 75.7396 83.2954 76.127C83.022 76.5257 82.6859 76.8903 82.2871 77.2207C81.8997 77.5511 81.4326 77.8188 80.8857 78.0239C80.3389 78.2404 79.7065 78.3486 78.9888 78.3486C78.5558 78.3486 78.1058 78.2917 77.6387 78.1777C77.1829 78.0638 76.7215 77.8644 76.2544 77.5796C75.7987 77.3062 75.3429 76.9416 74.8872 76.4858C74.4315 76.0301 73.9928 75.4604 73.5713 74.7769C73.3548 74.4465 73.127 73.9281 72.8877 73.2217C72.6598 72.5153 72.4149 71.7178 72.1528 70.8291C71.9022 69.929 71.6344 68.9834 71.3496 67.9922C71.0648 67.001 70.7572 66.0496 70.4268 65.1382C70.0964 64.2267 69.7375 63.4064 69.3501 62.6772C68.9741 61.9367 68.5697 61.3727 68.1367 60.9854C67.8975 60.7803 67.6525 60.5809 67.4019 60.3872C67.1512 60.1935 66.9006 60.0283 66.6499 59.8916C66.4106 59.7435 66.1714 59.6296 65.9321 59.5498C65.6929 59.4587 65.4707 59.4131 65.2656 59.4131H65.1973C65.1973 60.0283 65.1973 60.6834 65.1973 61.3784C65.2087 62.0734 65.2144 62.7741 65.2144 63.4805C65.2257 64.1755 65.2371 64.859 65.2485 65.5312C65.2599 66.2035 65.2713 66.8301 65.2827 67.4111C65.3055 67.9808 65.3283 68.4878 65.3511 68.9321C65.3739 69.3651 65.3966 69.6955 65.4194 69.9233ZM97.3945 47.1255C97.4743 47.1255 97.5199 47.1483 97.5312 47.1938C97.5426 47.228 97.4857 47.2907 97.3604 47.3818C97.3376 47.4046 97.3262 47.4274 97.3262 47.4502C97.3262 47.4616 97.3262 47.4787 97.3262 47.5015C97.3262 47.5243 97.3148 47.5584 97.292 47.604C97.2806 47.6382 97.2464 47.6895 97.1895 47.7578C97.0869 47.8717 96.8989 48.0996 96.6255 48.4414C96.3521 48.7832 96.0273 49.1991 95.6514 49.689C95.2754 50.1675 94.8595 50.703 94.4038 51.2954C93.9595 51.8879 93.498 52.4974 93.0195 53.124C92.5524 53.7507 92.0853 54.3773 91.6182 55.0039C91.1624 55.6191 90.7352 56.2002 90.3364 56.7471C89.9377 57.2826 89.5902 57.7611 89.2939 58.1826C88.9977 58.5928 88.7812 58.9118 88.6445 59.1396V59.6865C88.6445 60.1195 88.6331 60.6436 88.6104 61.2588C88.599 61.874 88.5819 62.5291 88.5591 63.2241C88.5363 63.9077 88.5135 64.6027 88.4907 65.3091C88.4679 66.0155 88.4451 66.6706 88.4224 67.2744C88.3996 67.8783 88.3768 68.408 88.354 68.8638C88.3426 69.3195 88.3369 69.6442 88.3369 69.8379C88.3369 69.9974 88.3255 70.117 88.3027 70.1968C88.2913 70.2765 88.2686 70.3335 88.2344 70.3677C88.2002 70.3905 88.1489 70.4019 88.0806 70.4019C88.0236 70.4019 87.9438 70.4019 87.8413 70.4019C87.7388 70.4019 87.6818 70.3677 87.6704 70.2993C87.659 70.231 87.6362 70.1854 87.6021 70.1626C87.5679 70.1512 87.5451 70.174 87.5337 70.231C87.5223 70.2879 87.5166 70.3506 87.5166 70.4189C87.5166 70.4873 87.5109 70.55 87.4995 70.6069C87.4995 70.6639 87.4881 70.6924 87.4653 70.6924C87.397 70.6924 87.3229 70.6753 87.2432 70.6411C87.1748 70.5955 87.1064 70.55 87.0381 70.5044C86.9811 70.4588 86.9242 70.4246 86.8672 70.4019C86.8216 70.3677 86.7874 70.3563 86.7646 70.3677C86.7419 70.3791 86.7362 70.4019 86.7476 70.436C86.759 70.4702 86.7646 70.5044 86.7646 70.5386C86.7646 70.5728 86.759 70.6012 86.7476 70.624C86.7362 70.6354 86.7077 70.6297 86.6621 70.6069C86.6051 70.5955 86.5482 70.5728 86.4912 70.5386C86.4342 70.493 86.383 70.4588 86.3374 70.436C86.2918 70.4019 86.252 70.3905 86.2178 70.4019C86.195 70.4019 86.1779 70.436 86.1665 70.5044C86.1437 70.6639 86.1266 70.8234 86.1152 70.9829C86.1038 71.131 86.064 71.1937 85.9956 71.1709C85.8817 71.1481 85.7336 71.1025 85.5513 71.0342C85.369 70.9658 85.2607 70.8234 85.2266 70.6069C85.2038 70.4702 85.1924 70.2993 85.1924 70.0942C85.1924 69.8892 85.1924 69.6556 85.1924 69.3936C85.1924 68.8125 85.2038 68.1346 85.2266 67.3599C85.2607 66.5851 85.2949 65.7933 85.3291 64.9844C85.3633 64.1755 85.3918 63.395 85.4146 62.6431C85.4487 61.8911 85.4658 61.2474 85.4658 60.7119C85.4658 59.9827 85.4316 59.5498 85.3633 59.4131C85.3063 59.3219 85.1297 59.0428 84.8335 58.5757C84.5373 58.0972 84.167 57.5161 83.7227 56.8325C83.2897 56.1375 82.8055 55.3742 82.27 54.5425C81.7459 53.7108 81.2275 52.8905 80.7148 52.0815C80.2135 51.2612 79.7407 50.4922 79.2964 49.7744C78.8634 49.0566 78.516 48.4642 78.2539 47.9971C78.2083 47.9173 78.1742 47.8319 78.1514 47.7407C78.1286 47.6382 78.1115 47.5413 78.1001 47.4502C78.0887 47.359 78.0887 47.285 78.1001 47.228C78.1115 47.1597 78.1286 47.1141 78.1514 47.0913C78.1969 47.0685 78.2596 47.0457 78.3394 47.0229C78.4077 47.0002 78.4932 46.9888 78.5957 46.9888C78.6982 46.9774 78.8293 46.9774 78.9888 46.9888C79.0343 47.1255 79.0742 47.2109 79.1084 47.2451C79.1426 47.2793 79.1768 47.2907 79.2109 47.2793C79.2451 47.2565 79.2793 47.2223 79.3135 47.1768C79.3477 47.1198 79.3818 47.0799 79.416 47.0571C79.5413 46.9318 79.6211 46.8634 79.6553 46.8521C79.6895 46.8407 79.7692 46.8862 79.8945 46.9888C80.0085 47.0913 80.0939 47.1198 80.1509 47.0742C80.2078 47.0286 80.2876 46.9204 80.3901 46.7495C80.4927 46.6014 80.6066 46.5672 80.7319 46.647C80.8687 46.7153 81.0225 46.8521 81.1934 47.0571L81.4497 47.3477C81.5864 47.5072 81.7972 47.7977 82.082 48.2192C82.3669 48.6294 82.6916 49.1193 83.0562 49.689C83.4321 50.2586 83.8309 50.8853 84.2524 51.5688C84.6854 52.241 85.1126 52.9189 85.5342 53.6025C85.9557 54.2861 86.3602 54.9469 86.7476 55.585C87.1349 56.223 87.4767 56.7869 87.7729 57.2769C88.0122 56.8553 88.3312 56.3312 88.73 55.7046C89.1401 55.0666 89.5788 54.3944 90.0459 53.688C90.513 52.9816 90.9972 52.2695 91.4985 51.5518C91.9998 50.8226 92.4727 50.1504 92.917 49.5352C93.3613 48.9199 93.7544 48.3958 94.0962 47.9629C94.4494 47.5186 94.7114 47.228 94.8823 47.0913C94.9621 47.0229 95.0304 46.9717 95.0874 46.9375C95.1558 46.9033 95.2127 46.8805 95.2583 46.8691C95.3153 46.8464 95.3665 46.835 95.4121 46.835C95.4691 46.835 95.526 46.8293 95.583 46.8179C95.7539 46.8179 95.8621 46.8293 95.9077 46.8521C95.9647 46.8748 95.9989 46.8976 96.0103 46.9204C96.033 46.9432 96.0501 46.966 96.0615 46.9888C96.0843 47.0002 96.1356 47.0002 96.2153 46.9888C96.3862 46.966 96.5514 46.9546 96.7109 46.9546C96.8704 46.9546 96.9616 46.9888 96.9844 47.0571C96.9844 47.0799 97.0015 47.097 97.0356 47.1084C97.0698 47.1198 97.1895 47.1255 97.3945 47.1255Z" fill="white"/>
<path d="M163.11 42.4827C163.318 43.338 163.496 44.2114 163.64 45.1029C163.707 45.5173 163.766 45.9367 163.819 46.3588C164.212 46.1943 164.604 46.0353 164.997 45.886C165.841 45.5652 166.686 45.2827 167.531 45.0355C167.751 43.7532 167.875 42.4334 167.875 41.083C167.875 40.5304 167.853 39.9826 167.813 39.4404C167.325 39.6771 166.839 39.9326 166.36 40.2082C165.19 40.8844 164.109 41.6509 163.11 42.4827Z" fill="white"/>
<path d="M171.876 32.4018C174.392 31.8144 177.069 31.5006 179.893 31.4624C179.408 27.5572 178.534 24.83 178.45 24.5739C178.085 23.4609 177.049 22.7382 175.918 22.7382C175.737 22.7382 175.554 22.7569 175.37 22.7951C175.106 22.8507 172.309 23.4575 168.685 24.9897C169.642 26.7018 170.457 28.4319 171.114 30.1621C171.397 30.9084 171.65 31.6548 171.876 32.4018Z" fill="white"/>
<path d="M153.718 82.1362C153.146 82.836 152.555 83.5032 151.947 84.1406C152.398 85.3597 152.95 86.565 153.626 87.7348C153.902 88.2139 154.195 88.677 154.5 89.1268C154.805 88.677 155.098 88.2139 155.375 87.7348C156.05 86.565 156.602 85.3604 157.053 84.1406C156.445 83.5032 155.854 82.836 155.283 82.1362C155.018 81.8106 154.757 81.4766 154.5 81.1378C154.243 81.4766 153.983 81.8106 153.718 82.1362Z" fill="white"/>
<path d="M159.992 34.5992C160.466 35.4198 160.899 36.271 161.293 37.1486C162.073 36.5855 162.874 36.0648 163.694 35.5913C164.691 35.0157 165.73 34.5027 166.804 34.0465C166.078 31.6221 165.047 29.3775 163.911 27.3766C161.927 28.5409 159.912 29.9691 158.071 31.7054C158.777 32.6392 159.418 33.605 159.992 34.5992Z" fill="white"/>
<path d="M155.283 42.8638C155.854 42.164 156.445 41.4968 157.053 40.8601C156.602 39.6396 156.05 38.435 155.375 37.2652C155.098 36.7861 154.805 36.3231 154.5 35.8732C154.195 36.3231 153.902 36.7861 153.625 37.2652C152.95 38.435 152.398 39.6396 151.947 40.8595C152.555 41.4968 153.146 42.164 153.718 42.8638C153.983 43.1894 154.243 43.5234 154.5 43.8622C154.757 43.5234 155.018 43.1894 155.283 42.8638Z" fill="white"/>
<path d="M173.207 41.083C173.207 42.0307 173.157 42.9839 173.058 43.942C174.016 43.8435 174.969 43.7935 175.917 43.7935C177.065 43.7935 178.221 43.8657 179.384 44.0094C179.967 41.5475 180.196 39.0884 180.212 36.7875C177.911 36.8042 175.453 37.0326 172.99 37.6158C173.134 38.778 173.207 39.9347 173.207 41.083Z" fill="white"/>
<path d="M137.886 30.1621C138.543 28.4319 139.358 26.7018 140.315 24.9897C136.691 23.4582 133.894 22.8507 133.63 22.7951C133.447 22.7562 133.263 22.7382 133.081 22.7382C132.607 22.7382 132.149 22.8659 131.75 23.0957C131.199 23.4137 130.761 23.9282 130.55 24.5732C130.466 24.83 129.593 27.5565 129.108 31.4618C131.931 31.5006 134.608 31.8144 137.124 32.4011C137.35 31.6548 137.603 30.9084 137.886 30.1621Z" fill="white"/>
<path d="M176.792 50.6397C177.068 50.1607 177.322 49.676 177.559 49.1866C177.017 49.1477 176.47 49.1255 175.917 49.1255C174.566 49.1255 173.246 49.2491 171.964 49.4692C171.717 50.3141 171.435 51.1597 171.114 52.004C170.965 52.3962 170.806 52.7885 170.641 53.1807C171.973 53.3488 173.268 53.5827 174.52 53.8875C175.35 52.8878 176.116 51.8082 176.792 50.6397Z" fill="white"/>
<path d="M171.114 94.8379C170.457 96.5687 169.642 98.2982 168.685 100.01C172.31 101.543 175.106 102.149 175.37 102.205C175.553 102.243 175.737 102.262 175.918 102.262C177.049 102.262 178.085 101.539 178.45 100.426C178.534 100.17 179.408 97.4428 179.892 93.5375C177.069 93.4994 174.392 93.1855 171.876 92.5989C171.65 93.3452 171.397 94.0923 171.114 94.8379Z" fill="white"/>
<path d="M154.5 97.2533C153.931 97.7879 153.338 98.3079 152.719 98.8119C151.284 99.9825 149.714 101.073 148.029 102.077C150.402 105.216 152.521 107.14 152.721 107.32C153.227 107.774 153.864 108 154.5 108C155.136 108 155.772 107.774 156.279 107.32C156.479 107.14 158.598 105.216 160.971 102.077C159.286 101.073 157.716 99.9825 156.281 98.8126C155.662 98.3079 155.069 97.7879 154.5 97.2533Z" fill="white"/>
<path d="M154.5 27.746C155.069 27.2121 155.662 26.6921 156.281 26.1873C157.715 25.0175 159.286 23.9261 160.971 22.9222C158.598 19.784 156.479 17.8602 156.279 17.6797C155.772 17.2263 155.136 17 154.5 17C153.864 17 153.228 17.2263 152.721 17.6797C152.521 17.8602 150.402 19.784 148.029 22.9222C149.714 23.9268 151.284 25.0175 152.719 26.1873C153.338 26.6921 153.931 27.2128 154.5 27.746Z" fill="white"/>
<path d="M137.123 92.5989C134.608 93.1855 131.931 93.4994 129.108 93.5375C129.593 97.4428 130.466 100.169 130.55 100.426C130.761 101.072 131.199 101.586 131.75 101.904C132.149 102.134 132.607 102.262 133.082 102.262C133.263 102.262 133.446 102.243 133.63 102.205C133.894 102.149 136.691 101.542 140.315 100.01C139.358 98.2982 138.543 96.5687 137.886 94.8379C137.603 94.0923 137.35 93.3452 137.123 92.5989Z" fill="white"/>
<path d="M192.01 48.3153C193.542 44.6912 194.149 41.8939 194.205 41.6301C194.483 40.2999 193.718 38.9731 192.426 38.5496C192.17 38.4656 189.444 37.5929 185.54 37.1076C185.513 39.0689 185.353 40.974 185.057 42.8013C184.929 43.5893 184.775 44.3635 184.598 45.123C185.345 45.35 186.092 45.6027 186.838 45.8867C188.569 46.5442 190.298 47.3579 192.01 48.3153Z" fill="white"/>
<path d="M170.641 71.8193C170.806 72.2115 170.965 72.6038 171.114 72.9961C171.435 73.841 171.717 74.6859 171.964 75.5309C173.246 75.7509 174.567 75.8745 175.917 75.8745C176.47 75.8745 177.017 75.853 177.56 75.8134C177.322 75.3247 177.067 74.8394 176.792 74.3603C176.116 73.1918 175.35 72.1122 174.52 71.1125C173.268 71.4173 171.973 71.6512 170.641 71.8193Z" fill="white"/>
<path d="M181.127 62.5C180.677 62.1945 180.215 61.9022 179.736 61.6252C178.566 60.9504 177.361 60.3971 176.141 59.9465C175.504 60.5547 174.837 61.1462 174.136 61.7169C173.811 61.9821 173.477 62.2424 173.138 62.5C173.477 62.7569 173.811 63.0173 174.136 63.2832C174.837 63.8539 175.504 64.4447 176.141 65.0529C177.36 64.603 178.566 64.0496 179.736 63.3741C180.214 63.0978 180.677 62.8055 181.127 62.5Z" fill="white"/>
<path d="M182.401 57.0083C183.395 57.5818 184.36 58.2233 185.295 58.928C187.031 57.0881 188.459 55.0733 189.623 53.0891C187.622 51.9519 185.379 50.9216 182.955 50.1961C182.498 51.2736 181.983 52.3115 181.409 53.3057C180.935 54.1264 180.415 54.9268 179.851 55.7072C180.727 56.1016 181.578 56.5327 182.401 57.0083Z" fill="white"/>
<path d="M199.32 60.7213C199.14 60.5199 197.216 58.4017 194.078 56.0294C193.074 57.7144 191.983 59.2841 190.813 60.7192C190.308 61.3378 189.787 61.9307 189.254 62.5C189.788 63.0693 190.308 63.6622 190.813 64.2808C191.983 65.7159 193.073 67.2856 194.077 68.9706C197.216 66.5983 199.14 64.4794 199.32 64.2787C200.226 63.2658 200.226 61.7342 199.32 60.7213Z" fill="white"/>
<path d="M116.99 76.6847C115.458 80.3088 114.851 83.1061 114.795 83.3699C114.656 84.0343 114.778 84.6987 115.096 85.25C115.414 85.8006 115.928 86.2379 116.574 86.4504C116.83 86.5344 119.556 87.4071 123.46 87.8924C123.487 85.9311 123.647 84.0253 123.943 82.198C124.071 81.41 124.225 80.6372 124.402 79.877C123.655 79.6507 122.908 79.3973 122.162 79.1133C120.431 78.4565 118.702 77.6421 116.99 76.6847Z" fill="white"/>
<path d="M116.99 48.3153C118.702 47.3579 120.431 46.5442 122.162 45.8867C122.908 45.6027 123.655 45.3493 124.402 45.123C124.225 44.3635 124.071 43.5893 123.943 42.8013C123.647 40.974 123.487 39.0689 123.46 37.1076C119.556 37.5922 116.83 38.4656 116.574 38.5496C115.928 38.7607 115.414 39.1987 115.096 39.75C114.778 40.3006 114.656 40.965 114.795 41.6294C114.851 41.8939 115.458 44.6912 116.99 48.3153Z" fill="white"/>
<path d="M126.599 67.9917C125.605 67.4183 124.64 66.7767 123.705 66.0721C121.969 67.9119 120.541 69.9267 119.377 71.9109C121.378 73.0481 123.621 74.0784 126.046 74.8039C126.502 73.7264 127.018 72.6878 127.591 71.6936C128.065 70.873 128.585 70.0725 129.149 69.2921C128.273 68.8991 127.422 68.4666 126.599 67.9917Z" fill="white"/>
<path d="M135.793 83.917C135.793 82.9693 135.843 82.0161 135.942 81.0587C134.984 81.1566 134.031 81.2066 133.083 81.2066C131.935 81.2066 130.779 81.1343 129.617 80.9906C129.034 83.4525 128.804 85.9117 128.788 88.2125C131.089 88.1958 133.547 87.9681 136.01 87.3842C135.866 86.222 135.793 85.0653 135.793 83.917Z" fill="white"/>
<path d="M161.293 87.8514C160.899 88.729 160.466 89.5802 159.992 90.4008C159.418 91.395 158.777 92.3601 158.072 93.2946C159.912 95.0309 161.927 96.4591 163.912 97.6234C165.048 95.6218 166.079 93.3779 166.805 90.9535C165.73 90.4973 164.691 89.9849 163.694 89.4087C162.874 88.9352 162.073 88.4145 161.293 87.8514Z" fill="white"/>
<path d="M149.008 90.4008C148.534 89.5802 148.101 88.7297 147.707 87.8514C146.927 88.4145 146.126 88.9352 145.306 89.4087C144.309 89.9849 143.27 90.4973 142.196 90.9535C142.922 93.3779 143.953 95.6224 145.089 97.6227C147.073 96.4584 149.088 95.0309 150.928 93.2945C150.223 92.3601 149.582 91.395 149.008 90.4008Z" fill="white"/>
<path d="M164.996 79.114C164.604 78.9647 164.212 78.8057 163.819 78.6412C163.766 79.0633 163.707 79.482 163.64 79.8965C163.495 80.7886 163.317 81.662 163.11 82.5173C164.109 83.3491 165.19 84.1163 166.36 84.7911C166.839 85.0681 167.325 85.3229 167.813 85.5597C167.853 85.0174 167.875 84.4703 167.875 83.917C167.875 82.5666 167.751 81.2468 167.531 79.9645C166.686 79.7166 165.841 79.4348 164.996 79.114Z" fill="white"/>
<path d="M192.01 76.6847C190.298 77.6421 188.569 78.4565 186.838 79.114C186.092 79.3973 185.345 79.6507 184.598 79.877C184.775 80.6372 184.929 81.4107 185.057 82.1987C185.353 84.026 185.513 85.9311 185.54 87.8924C189.444 87.4071 192.17 86.5344 192.426 86.4504C193.717 86.0262 194.483 84.7001 194.204 83.3699C194.149 83.1054 193.542 80.3088 192.01 76.6847Z" fill="white"/>
<path d="M185.295 66.0721C184.361 66.7767 183.395 67.4183 182.402 67.9917C181.578 68.4673 180.727 68.8991 179.851 69.2928C180.414 70.0732 180.935 70.8737 181.409 71.6943C181.983 72.6885 182.498 73.7264 182.955 74.8039C185.379 74.0784 187.623 73.0474 189.623 71.9116C188.459 69.9267 187.031 67.9119 185.295 66.0721Z" fill="white"/>
<path d="M175.917 81.2066C174.969 81.2066 174.016 81.1566 173.058 81.0587C173.157 82.0161 173.207 82.9693 173.207 83.917C173.207 85.0653 173.134 86.222 172.991 87.3842C175.453 87.9674 177.912 88.1958 180.212 88.2125C180.196 85.9117 179.967 83.4525 179.384 80.9906C178.221 81.1343 177.065 81.2066 175.917 81.2066Z" fill="white"/>
<path d="M145.891 82.5173C145.683 81.6613 145.504 80.7879 145.36 79.8964C145.293 79.482 145.234 79.0626 145.181 78.6405C144.788 78.8057 144.396 78.9647 144.004 79.1133C143.16 79.4341 142.314 79.7166 141.469 79.9645C141.249 81.2461 141.125 82.5659 141.125 83.917C141.125 84.4696 141.147 85.0174 141.187 85.5596C141.676 85.3222 142.161 85.0674 142.64 84.7911C143.81 84.1156 144.891 83.3491 145.891 82.5173Z" fill="white"/>
<path d="M144.004 45.8867C144.396 46.0353 144.788 46.1943 145.181 46.3595C145.234 45.9374 145.293 45.518 145.36 45.1036C145.505 44.2114 145.683 43.338 145.89 42.4827C144.891 41.6509 143.81 40.8844 142.64 40.2089C142.161 39.9326 141.676 39.6771 141.187 39.4404C141.147 39.9826 141.125 40.5304 141.125 41.083C141.125 42.4341 141.249 43.7539 141.469 45.0355C142.314 45.2834 143.16 45.5659 144.004 45.8867Z" fill="white"/>
<path d="M147.707 37.1486C148.101 36.271 148.534 35.4198 149.008 34.5992C149.582 33.605 150.223 32.6399 150.928 31.7054C149.087 29.9691 147.073 28.5409 145.088 27.3766C143.952 29.3775 142.921 31.6221 142.195 34.0465C143.269 34.5027 144.309 35.0157 145.306 35.5913C146.126 36.0648 146.927 36.5855 147.707 37.1486Z" fill="white"/>
<path d="M137.886 52.004C137.565 51.1597 137.283 50.3141 137.036 49.4692C135.753 49.2491 134.433 49.1255 133.083 49.1255C132.53 49.1255 131.983 49.1477 131.441 49.1866C131.678 49.676 131.933 50.1607 132.208 50.6397C132.884 51.8082 133.65 52.8885 134.48 53.8875C135.732 53.5827 137.027 53.3488 138.359 53.1807C138.194 52.7885 138.035 52.3962 137.886 52.004Z" fill="white"/>
<path d="M123.705 58.928C124.64 58.2233 125.605 57.5825 126.599 57.0083C127.422 56.5334 128.273 56.1016 129.149 55.7079C128.585 54.9268 128.065 54.1264 127.591 53.3057C127.017 52.3115 126.502 51.2736 126.045 50.1961C123.621 50.9216 121.378 51.9526 119.377 53.0891C120.541 55.0733 121.969 57.0881 123.705 58.928Z" fill="white"/>
<path d="M133.083 43.7935C134.031 43.7935 134.984 43.8435 135.942 43.9413C135.843 42.9839 135.793 42.0307 135.793 41.083C135.793 39.9347 135.866 38.778 136.01 37.6158C133.547 37.0326 131.088 36.8042 128.788 36.7875C128.804 39.0884 129.033 41.5475 129.617 44.0094C130.779 43.8657 131.935 43.7935 133.083 43.7935Z" fill="white"/>
<path d="M134.864 63.2832C135.189 63.0179 135.523 62.7576 135.862 62.5C135.523 62.2431 135.189 61.9828 134.864 61.7169C134.164 61.1462 133.496 60.5554 132.859 59.9465C131.64 60.3971 130.435 60.9504 129.265 61.6259C128.786 61.9022 128.323 62.1952 127.873 62.5C128.323 62.8055 128.786 63.0978 129.264 63.3741C130.434 64.0496 131.639 64.603 132.859 65.0536C133.496 64.4454 134.164 63.8539 134.864 63.2832Z" fill="white"/>
<path d="M118.188 64.2808C118.692 63.6622 119.213 63.0693 119.747 62.5C119.213 61.9307 118.692 61.3378 118.188 60.7192C117.018 59.2841 115.927 57.7144 114.923 56.0294C111.785 58.4017 109.86 60.5206 109.68 60.7213C109.226 61.2281 109 61.864 109 62.5C109 63.136 109.226 63.7719 109.68 64.2787C109.86 64.4794 111.784 66.5983 114.923 68.9699C115.927 67.2856 117.017 65.7159 118.188 64.2808Z" fill="white"/>
<path d="M137.036 75.5309C137.283 74.6859 137.565 73.841 137.886 72.9961C138.035 72.6038 138.194 72.2115 138.359 71.8193C137.027 71.6512 135.732 71.4173 134.48 71.1125C133.65 72.1115 132.884 73.1911 132.209 74.3596C131.933 74.8387 131.678 75.324 131.441 75.8134C131.983 75.853 132.53 75.8745 133.083 75.8745C134.434 75.8745 135.753 75.7509 137.036 75.5309Z" fill="white"/>
<path d="M170.116 58.3135C170.036 58.3059 169.956 58.2982 169.875 58.2906C167.527 58.0712 165.184 57.8671 162.847 57.6796C163.854 55.5614 164.848 53.4293 165.833 51.2854C165.866 51.2125 165.899 51.1389 165.933 51.066C165.859 51.1 165.785 51.1333 165.713 51.1666C163.569 52.1504 161.437 53.1453 159.32 54.1506C159.132 51.8137 158.928 49.4698 158.708 47.1211C158.701 47.0413 158.693 46.9614 158.686 46.8809C158.639 46.9468 158.592 47.0128 158.545 47.0788C157.18 49.0033 155.83 50.932 154.499 52.8628C153.168 50.9341 151.82 49.0081 150.457 47.085C150.409 47.0191 150.363 46.9531 150.316 46.8871C150.308 46.9663 150.3 47.0461 150.293 47.126C150.073 49.474 149.869 51.8172 149.682 54.1541C147.565 53.1488 145.434 52.1546 143.292 51.1715C143.219 51.1375 143.145 51.1042 143.072 51.0708C143.105 51.143 143.138 51.2159 143.172 51.2888C144.155 53.4321 145.15 55.5635 146.156 57.6817C143.82 57.8692 141.478 58.0733 139.131 58.2927C139.05 58.3003 138.97 58.3087 138.89 58.3156C138.954 58.3621 139.02 58.4086 139.085 58.4545C141.009 59.8194 142.936 61.1677 144.866 62.4986C142.937 63.8288 141.011 65.1771 139.088 66.5407C139.022 66.5879 138.957 66.6344 138.891 66.6809C138.97 66.6885 139.05 66.6962 139.129 66.7038C141.477 66.9239 143.821 67.128 146.158 67.3155C145.152 69.4323 144.158 71.5631 143.175 73.7056C143.142 73.7785 143.108 73.8521 143.074 73.9257C143.147 73.8923 143.219 73.859 143.292 73.8257C145.436 72.8419 147.567 71.8477 149.685 70.8417C149.873 73.1772 150.077 75.519 150.296 77.8664C150.304 77.9469 150.311 78.0268 150.319 78.1073C150.366 78.042 150.412 77.9775 150.458 77.9122C151.821 75.9897 153.17 74.0638 154.499 72.1351C155.831 74.0652 157.179 75.9925 158.544 77.9164C158.591 77.9816 158.637 78.0476 158.684 78.1128C158.691 78.0323 158.699 77.9518 158.707 77.8712C158.926 75.5232 159.131 73.1807 159.318 70.8438C161.436 71.8498 163.569 72.8447 165.713 73.8285C165.785 73.8625 165.858 73.8958 165.931 73.9291C165.898 73.8555 165.865 73.782 165.831 73.7084C164.847 71.5651 163.853 69.4344 162.847 67.3169C165.184 67.1287 167.527 66.9246 169.876 66.7045C169.956 66.6969 170.036 66.6892 170.116 66.6816C170.05 66.6351 169.984 66.5886 169.919 66.5414C167.995 65.1771 166.069 63.8288 164.139 62.4979C166.069 61.167 167.997 59.818 169.921 58.4531C169.986 58.4072 170.051 58.3607 170.116 58.3135Z" fill="white"/>
<path d="M233.637 50.0229C233.66 50.228 233.671 50.6553 233.671 51.3047C233.671 51.9427 233.66 52.7288 233.637 53.6631C233.626 54.5973 233.603 55.6398 233.569 56.7905C233.546 57.9412 233.512 59.1375 233.466 60.3794C233.421 61.6099 233.369 62.8517 233.312 64.105C233.267 65.3468 233.216 66.526 233.159 67.6426C233.102 68.7591 233.039 69.7788 232.971 70.7017C232.902 71.6131 232.834 72.3537 232.766 72.9233C232.766 72.9917 232.731 73.0544 232.663 73.1113C232.606 73.1569 232.543 73.2424 232.475 73.3677C232.407 73.4816 232.338 73.5443 232.27 73.5557C232.202 73.5671 232.145 73.5671 232.099 73.5557C232.054 73.5443 232.019 73.5443 231.997 73.5557C231.974 73.5671 231.974 73.624 231.997 73.7266C232.019 73.7949 231.979 73.8519 231.877 73.8975C231.786 73.9316 231.706 73.9202 231.638 73.8633C231.547 73.7949 231.438 73.7152 231.313 73.624C231.188 73.5215 231.108 73.4702 231.074 73.4702C231.005 73.4588 230.983 73.4873 231.005 73.5557C231.028 73.624 231.057 73.6981 231.091 73.7778C231.136 73.8576 231.165 73.9316 231.176 74C231.199 74.0798 231.165 74.1253 231.074 74.1367C230.903 74.1595 230.703 74.1196 230.476 74.0171C230.259 73.9146 230.054 73.7949 229.86 73.6582C229.701 73.5329 229.462 73.2537 229.143 72.8208C228.824 72.3879 228.442 71.841 227.998 71.1802C227.565 70.508 227.08 69.7446 226.545 68.8901C226.021 68.0356 225.474 67.1242 224.904 66.1558C224.335 65.1873 223.754 64.1847 223.161 63.1479C222.569 62.1112 221.993 61.0801 221.435 60.0547C220.877 59.0179 220.341 58.0096 219.829 57.0298C219.316 56.05 218.854 55.1385 218.444 54.2954C218.399 54.7739 218.359 55.429 218.325 56.2607C218.291 57.0811 218.256 57.9982 218.222 59.0122C218.199 60.0148 218.177 61.0744 218.154 62.1909C218.131 63.3075 218.108 64.4069 218.085 65.4893C218.074 66.5716 218.063 67.597 218.051 68.5654C218.04 69.5339 218.028 70.3656 218.017 71.0605C218.017 71.5163 218.006 71.841 217.983 72.0347C217.972 72.217 217.954 72.3423 217.932 72.4106C217.92 72.479 217.903 72.5303 217.88 72.5645C217.869 72.5872 217.869 72.667 217.88 72.8037C217.88 73.1683 217.858 73.5044 217.812 73.812C217.766 74.1082 217.664 74.2734 217.504 74.3076C217.413 74.3532 217.328 74.3361 217.248 74.2563C217.168 74.188 217.066 74.1709 216.94 74.2051C216.906 74.2051 216.861 74.2336 216.804 74.2905C216.758 74.3589 216.673 74.3931 216.547 74.3931C216.445 74.3931 216.319 74.3475 216.171 74.2563C216.023 74.1652 215.926 74 215.881 73.7607L215.812 73.1284C215.801 73.0601 215.784 73.0145 215.761 72.9917C215.75 72.9689 215.733 72.9347 215.71 72.8892C215.699 72.8436 215.687 72.7695 215.676 72.667C215.664 72.5531 215.653 72.3651 215.642 72.103C215.642 72.0347 215.653 71.7157 215.676 71.146C215.699 70.5649 215.727 69.8187 215.761 68.9072C215.807 67.9958 215.852 66.959 215.898 65.7969C215.955 64.6348 216.012 63.4328 216.069 62.1909C216.137 60.9491 216.2 59.7129 216.257 58.4824C216.325 57.252 216.394 56.1126 216.462 55.0645C216.542 54.0163 216.616 53.1048 216.684 52.3301C216.752 51.5439 216.815 50.9857 216.872 50.6553C216.815 50.5186 216.77 50.3875 216.735 50.2622C216.713 50.1369 216.701 50.0229 216.701 49.9204C216.69 49.8521 216.695 49.8065 216.718 49.7837C216.752 49.7609 216.792 49.7438 216.838 49.7324C216.895 49.7096 216.952 49.6868 217.009 49.6641C217.066 49.6413 217.123 49.5957 217.18 49.5273C217.202 49.4932 217.22 49.4134 217.231 49.2881C217.254 49.1514 217.294 49.083 217.351 49.083C217.51 49.083 217.641 49.0488 217.744 48.9805C217.846 48.9007 217.989 48.8494 218.171 48.8267C218.171 48.633 218.222 48.5076 218.325 48.4507C218.37 48.4165 218.422 48.4051 218.479 48.4165C218.672 48.4393 218.82 48.519 218.923 48.6558C219.037 48.7811 219.122 48.9007 219.179 49.0146C219.236 49.1514 219.282 49.2539 219.316 49.3223C219.35 49.3906 219.396 49.4875 219.453 49.6128C219.532 49.7381 219.686 50.0059 219.914 50.416C220.153 50.8262 220.444 51.3389 220.786 51.9541C221.127 52.5693 221.515 53.2643 221.948 54.0391C222.381 54.8024 222.831 55.617 223.298 56.4829C223.776 57.3374 224.266 58.2147 224.768 59.1147C225.269 60.0034 225.759 60.875 226.237 61.7295C226.716 62.584 227.172 63.3986 227.604 64.1733C228.037 64.9481 228.431 65.6488 228.784 66.2754C229.137 66.8906 229.433 67.409 229.672 67.8306C229.912 68.2407 230.077 68.5142 230.168 68.6509C230.396 68.9813 230.555 69.1693 230.646 69.2148C230.738 69.249 230.846 69.1408 230.971 68.8901C231.028 68.7762 231.079 68.5142 231.125 68.104C231.182 67.6825 231.233 67.1527 231.279 66.5146C231.336 65.8766 231.381 65.1532 231.416 64.3442C231.461 63.5353 231.501 62.6865 231.535 61.7979C231.569 60.9092 231.598 59.9977 231.621 59.0635C231.643 58.1292 231.655 57.2235 231.655 56.3462C231.666 55.4689 231.666 54.6429 231.655 53.8682C231.655 53.0934 231.638 52.4098 231.604 51.8174C231.592 51.4984 231.586 51.2135 231.586 50.9629C231.586 50.7464 231.598 50.547 231.621 50.3647C231.643 50.1825 231.683 50.0913 231.74 50.0913C231.82 50.0343 231.888 50.0002 231.945 49.9888C232.014 49.966 232.065 49.9603 232.099 49.9717C232.145 49.9717 232.185 49.9774 232.219 49.9888C232.253 50.0002 232.281 50.0002 232.304 49.9888C232.327 49.9774 232.338 49.9603 232.338 49.9375C232.338 49.9147 232.338 49.8862 232.338 49.8521C232.35 49.8179 232.367 49.7837 232.39 49.7495C232.412 49.7039 232.464 49.6698 232.543 49.647C232.635 49.6128 232.703 49.5957 232.749 49.5957C232.806 49.5843 232.851 49.5843 232.885 49.5957C232.919 49.6071 232.948 49.6185 232.971 49.6299C232.993 49.6413 233.028 49.6356 233.073 49.6128C233.164 49.5672 233.238 49.5273 233.295 49.4932C233.352 49.4476 233.404 49.4305 233.449 49.4419C233.495 49.4533 233.529 49.5046 233.552 49.5957C233.586 49.6755 233.614 49.8179 233.637 50.0229ZM258.845 59.3027C258.856 59.4281 258.862 59.5477 258.862 59.6616C258.862 59.7756 258.862 59.8952 258.862 60.0205C258.862 61.251 258.691 62.5156 258.349 63.8145C258.019 65.1133 257.546 66.3494 256.931 67.5229C256.315 68.6851 255.569 69.7446 254.692 70.7017C253.815 71.6473 252.835 72.3879 251.752 72.9233C251.114 73.231 250.425 73.4588 249.685 73.6069C248.944 73.755 248.198 73.8291 247.446 73.8291C246.899 73.8291 246.358 73.7892 245.822 73.7095C245.298 73.6297 244.797 73.5272 244.318 73.4019C243.247 73.0942 242.285 72.6214 241.43 71.9834C240.587 71.334 239.864 70.5877 239.26 69.7446C238.656 68.9015 238.177 67.9958 237.824 67.0273C237.482 66.0475 237.283 65.0791 237.226 64.1221C237.215 63.9854 237.203 63.8486 237.192 63.7119C237.192 63.5752 237.192 63.4385 237.192 63.3018C237.192 62.2422 237.323 61.1883 237.585 60.1401C237.847 59.0806 238.2 58.0723 238.645 57.1152C239.1 56.1468 239.624 55.241 240.217 54.3979C240.821 53.5549 241.459 52.8143 242.131 52.1763C242.814 51.5382 243.509 51.0199 244.216 50.6211C244.934 50.2109 245.634 49.9546 246.318 49.8521C246.409 49.8407 246.466 49.835 246.489 49.835C246.523 49.8236 246.546 49.8179 246.557 49.8179C246.569 49.8179 246.58 49.8236 246.591 49.835C246.603 49.835 246.631 49.8293 246.677 49.8179C246.939 49.7951 247.127 49.7894 247.241 49.8008C247.355 49.8122 247.423 49.8293 247.446 49.8521C247.469 49.8862 247.463 49.909 247.429 49.9204C247.406 49.9318 247.366 49.9546 247.309 49.9888C247.286 49.9888 247.258 49.9945 247.224 50.0059C247.201 50.0173 247.201 50.0343 247.224 50.0571C247.246 50.1141 247.224 50.1654 247.155 50.2109C247.087 50.2565 247.041 50.2907 247.019 50.3135C246.996 50.3363 246.99 50.3534 247.001 50.3647C247.013 50.3761 247.019 50.3818 247.019 50.3818C247.03 50.3818 247.03 50.3875 247.019 50.3989C247.019 50.4103 246.996 50.4274 246.95 50.4502C246.813 50.5413 246.665 50.6268 246.506 50.7065C246.358 50.7749 246.204 50.8604 246.044 50.9629C245.224 51.5553 244.501 52.3187 243.874 53.2529C243.247 54.1872 242.723 55.2183 242.302 56.3462C241.88 57.4741 241.561 58.6647 241.345 59.918C241.128 61.1598 241.02 62.3903 241.02 63.6094C241.02 63.7689 241.02 63.9284 241.02 64.0879C241.02 64.236 241.026 64.3898 241.037 64.5493C241.06 65.0392 241.14 65.5747 241.276 66.1558C241.413 66.7368 241.595 67.3179 241.823 67.8989C242.062 68.4686 242.347 69.0212 242.678 69.5566C243.02 70.0921 243.407 70.5706 243.84 70.9922C244.273 71.4023 244.757 71.7384 245.292 72.0005C245.828 72.2511 246.415 72.3822 247.053 72.3936C248.01 72.4277 248.87 72.2739 249.633 71.9321C250.397 71.5903 251.069 71.1346 251.65 70.5649C252.242 69.9839 252.749 69.3231 253.171 68.5825C253.592 67.8306 253.94 67.0615 254.213 66.2754C254.498 65.4779 254.72 64.6974 254.88 63.9341C255.039 63.1593 255.148 62.4644 255.205 61.8491C255.227 61.6099 255.244 61.3706 255.256 61.1313C255.267 60.8807 255.273 60.6414 255.273 60.4136C255.273 58.9552 255.079 57.6564 254.692 56.5171C254.316 55.3778 253.809 54.415 253.171 53.6289C252.544 52.8428 251.821 52.2389 251 51.8174C250.18 51.3844 249.331 51.1509 248.454 51.1167C248.363 51.1053 248.255 51.1053 248.129 51.1167C248.004 51.1167 247.873 51.1167 247.736 51.1167C247.611 51.1167 247.497 51.1224 247.395 51.1338C247.303 51.1338 247.246 51.1281 247.224 51.1167C247.076 51.0483 246.984 50.9971 246.95 50.9629L246.916 50.9287C246.916 50.8376 246.939 50.7692 246.984 50.7236L247.155 50.6382C247.212 50.6154 247.264 50.5926 247.309 50.5698C247.366 50.5356 247.412 50.5072 247.446 50.4844C247.469 50.4502 247.463 50.4274 247.429 50.416C247.395 50.3932 247.377 50.342 247.377 50.2622C247.355 50.2052 247.372 50.154 247.429 50.1084C247.486 50.0514 247.526 50.0229 247.548 50.0229C247.651 49.9888 247.719 49.9717 247.753 49.9717C247.799 49.9603 247.856 49.9546 247.924 49.9546C248.038 49.9432 248.129 49.9318 248.198 49.9204C248.278 49.8976 248.346 49.8748 248.403 49.8521C248.471 49.8293 248.545 49.8122 248.625 49.8008C248.705 49.778 248.813 49.7609 248.95 49.7495C249.052 49.7267 249.166 49.7153 249.292 49.7153C249.417 49.7153 249.605 49.7039 249.855 49.6812C250.835 49.6584 251.73 49.7723 252.539 50.0229C253.359 50.2622 254.094 50.6097 254.743 51.0654C255.404 51.5212 255.979 52.0623 256.469 52.689C256.959 53.3042 257.369 53.9764 257.7 54.7056C258.042 55.4233 258.304 56.1753 258.486 56.9614C258.68 57.7476 258.799 58.528 258.845 59.3027ZM293.452 50.9629C293.452 51.0085 293.355 51.2477 293.161 51.6807C292.967 52.1136 292.705 52.689 292.375 53.4067C292.045 54.1131 291.652 54.9391 291.196 55.8848C290.751 56.8304 290.273 57.833 289.76 58.8926C289.248 59.9521 288.718 61.0459 288.171 62.1738C287.624 63.3018 287.083 64.4069 286.547 65.4893C286.023 66.5716 285.516 67.6084 285.026 68.5996C284.548 69.5794 284.115 70.4567 283.728 71.2314C283.352 72.0062 283.033 72.6556 282.771 73.1797C282.52 73.6924 282.355 74.0228 282.275 74.1709C282.241 74.262 282.189 74.3133 282.121 74.3247C282.064 74.3361 281.99 74.3418 281.899 74.3418C281.831 74.3418 281.779 74.3247 281.745 74.2905C281.722 74.2677 281.694 74.2734 281.66 74.3076C281.58 74.3532 281.5 74.3475 281.42 74.2905C281.352 74.245 281.301 74.2393 281.267 74.2734C281.141 74.3874 281.044 74.45 280.976 74.4614C280.908 74.4842 280.874 74.4215 280.874 74.2734C280.885 73.9886 280.839 73.5329 280.737 72.9062C280.646 72.2682 280.509 71.522 280.327 70.6675C280.156 69.8016 279.951 68.8617 279.711 67.8477C279.472 66.8337 279.222 65.7969 278.959 64.7373C278.697 63.6777 278.435 62.6296 278.173 61.5928C277.911 60.556 277.661 59.5933 277.421 58.7046C277.182 57.8045 276.971 57.007 276.789 56.312C276.607 55.617 276.464 55.0872 276.362 54.7227C276.191 55.1556 275.963 55.748 275.678 56.5C275.393 57.2406 275.08 58.078 274.738 59.0122C274.396 59.9465 274.038 60.9434 273.662 62.0029C273.286 63.0511 272.91 64.0936 272.534 65.1304C272.158 66.1672 271.799 67.1698 271.457 68.1382C271.127 69.0952 270.83 69.9497 270.568 70.7017C270.306 71.4422 270.096 72.0461 269.936 72.5132C269.777 72.9803 269.691 73.2424 269.68 73.2993C269.657 73.3335 269.628 73.3791 269.594 73.436C269.56 73.493 269.52 73.5614 269.475 73.6411C269.429 73.7095 269.361 73.7949 269.27 73.8975C269.19 73.9202 269.121 73.9373 269.064 73.9487C269.019 73.9601 268.968 73.9658 268.911 73.9658C268.831 74.0114 268.763 74.0513 268.706 74.0854C268.649 74.131 268.597 74.1652 268.552 74.188C268.506 74.2222 268.461 74.2507 268.415 74.2734C268.358 74.3304 268.301 74.376 268.244 74.4102C268.187 74.4443 268.13 74.4728 268.073 74.4956C268.05 74.4956 267.999 74.4842 267.919 74.4614C267.851 74.4386 267.777 74.4102 267.697 74.376C267.629 74.3418 267.561 74.3019 267.492 74.2563C267.424 74.2222 267.384 74.1823 267.373 74.1367C267.316 73.9772 267.224 73.681 267.099 73.248C266.974 72.8151 266.82 72.2796 266.638 71.6416C266.467 71.0036 266.273 70.2801 266.057 69.4712C265.852 68.6623 265.624 67.8078 265.373 66.9077C265.134 66.0076 264.883 65.0791 264.621 64.1221C264.37 63.165 264.12 62.2137 263.869 61.2681C263.675 60.5275 263.47 59.7699 263.254 58.9951C263.037 58.2204 262.821 57.457 262.604 56.7051C262.388 55.9531 262.177 55.2354 261.972 54.5518C261.778 53.8682 261.596 53.2529 261.425 52.7061C261.266 52.1478 261.129 51.6807 261.015 51.3047C260.901 50.9173 260.827 50.6553 260.793 50.5186C260.77 50.416 260.799 50.3363 260.878 50.2793C260.97 50.2109 261.066 50.2223 261.169 50.3135C261.249 50.3704 261.311 50.3761 261.357 50.3306C261.414 50.285 261.471 50.2622 261.528 50.2622C261.562 50.2622 261.613 50.2736 261.682 50.2964C261.761 50.3192 261.841 50.3477 261.921 50.3818C262.001 50.4046 262.075 50.4331 262.143 50.4673C262.223 50.5015 262.285 50.5299 262.331 50.5527C262.377 50.5755 262.405 50.5812 262.417 50.5698C262.439 50.5584 262.456 50.5356 262.468 50.5015C262.491 50.4673 262.508 50.4331 262.519 50.3989C262.542 50.3647 262.582 50.3363 262.639 50.3135C262.764 50.2679 262.884 50.2736 262.998 50.3306C263.111 50.3875 263.214 50.4274 263.305 50.4502C263.374 50.4616 263.408 50.4559 263.408 50.4331C263.408 50.3989 263.402 50.3647 263.391 50.3306C263.391 50.285 263.396 50.2508 263.408 50.228C263.431 50.1938 263.493 50.1825 263.596 50.1938C263.755 50.1938 263.886 50.2337 263.989 50.3135C264.103 50.3818 264.205 50.5983 264.296 50.9629C264.319 51.054 264.393 51.3332 264.519 51.8003C264.655 52.256 264.82 52.8428 265.014 53.5605C265.219 54.2783 265.447 55.0929 265.698 56.0044C265.948 56.9159 266.21 57.8672 266.484 58.8584C266.757 59.8382 267.031 60.8294 267.304 61.832C267.589 62.8232 267.857 63.7689 268.107 64.6689C268.358 65.569 268.58 66.3836 268.774 67.1128C268.979 67.842 269.144 68.4344 269.27 68.8901C269.589 68.2635 269.947 67.4774 270.346 66.5317C270.745 65.5747 271.155 64.5493 271.577 63.4556C271.998 62.3618 272.42 61.2453 272.841 60.106C273.263 58.9552 273.656 57.8672 274.021 56.8418C274.396 55.8164 274.727 54.8936 275.012 54.0732C275.297 53.2529 275.513 52.6263 275.661 52.1934C275.752 51.9313 275.815 51.6978 275.849 51.4927C275.895 51.2762 275.952 51.0768 276.02 50.8945C276.088 50.7578 276.185 50.604 276.311 50.4331C276.436 50.2622 276.527 50.1597 276.584 50.1255C276.743 50.0571 276.875 50.0343 276.977 50.0571C277.091 50.0685 277.228 50.0913 277.387 50.1255C277.444 50.1369 277.478 50.1255 277.49 50.0913C277.513 50.0571 277.53 50.0173 277.541 49.9717C277.552 49.9147 277.569 49.8577 277.592 49.8008C277.615 49.7438 277.672 49.6925 277.763 49.647C278.048 49.4989 278.225 49.4362 278.293 49.459C278.361 49.4818 278.43 49.6242 278.498 49.8862C278.509 49.9432 278.566 50.2052 278.669 50.6724C278.783 51.1281 278.925 51.7205 279.096 52.4497C279.278 53.1789 279.478 54.0163 279.694 54.9619C279.922 55.9076 280.161 56.8931 280.412 57.9185C280.674 58.9438 280.931 59.9806 281.181 61.0288C281.443 62.0656 281.694 63.0511 281.933 63.9854C282.184 64.9082 282.412 65.7513 282.617 66.5146C282.833 67.2666 283.015 67.8704 283.164 68.3262C283.312 68.0072 283.522 67.5685 283.796 67.0103C284.081 66.452 284.4 65.814 284.753 65.0962C285.106 64.367 285.493 63.5809 285.915 62.7378C286.337 61.8833 286.764 61.006 287.197 60.106C287.63 59.2059 288.057 58.3058 288.479 57.4058C288.911 56.4943 289.316 55.617 289.692 54.7739C290.068 53.9308 290.41 53.1447 290.717 52.4155C291.036 51.675 291.293 51.0312 291.486 50.4844C291.521 50.3818 291.577 50.2793 291.657 50.1768C291.737 50.0742 291.817 49.9831 291.896 49.9033C291.988 49.8122 292.067 49.7438 292.136 49.6982C292.215 49.6413 292.267 49.6128 292.29 49.6128C292.381 49.6356 292.466 49.6641 292.546 49.6982C292.626 49.7324 292.683 49.7837 292.717 49.8521C292.762 49.8976 292.785 49.9432 292.785 49.9888C292.797 50.0229 292.802 50.0571 292.802 50.0913C292.814 50.1255 292.831 50.154 292.854 50.1768C292.876 50.1882 292.922 50.1938 292.99 50.1938C293.104 50.1938 293.178 50.2223 293.212 50.2793C293.247 50.3363 293.264 50.3932 293.264 50.4502C293.275 50.5072 293.281 50.5641 293.281 50.6211C293.281 50.6667 293.304 50.6781 293.349 50.6553C293.406 50.6553 293.435 50.7008 293.435 50.792C293.446 50.8717 293.452 50.9287 293.452 50.9629Z" fill="white"/>
<rect x="0.5" y="0.5" width="319" height="129" rx="37.5" stroke="white"/>
</svg>
