<svg width="136" height="107" viewBox="0 0 136 107" fill="none" xmlns="http://www.w3.org/2000/svg">
<g filter="url(#filter0_d)">
<rect x="22" y="32" width="90" height="65" rx="19" fill="url(#paint0_linear)"/>
<path d="M72.0148 92.0711C69.1923 95.6055 63.8091 95.5754 61.0264 92.0095L30.8234 53.3065C27.2365 48.7102 30.5116 42 36.3419 42L97.4519 42C103.319 42 106.583 48.7837 102.922 53.3681L72.0148 92.0711Z" fill="white" fill-opacity="0.74"/>
<path d="M13.9766 10.5176C13.9831 10.5436 13.9863 10.5827 13.9863 10.6348C13.9863 10.6868 13.9798 10.7422 13.9668 10.8008C13.9603 10.8594 13.9505 10.918 13.9375 10.9766C13.9245 11.0286 13.9049 11.0645 13.8789 11.084C13.7161 11.2012 13.5306 11.3932 13.3223 11.6602C13.1139 11.9271 12.8991 12.2559 12.6777 12.6465C12.4564 13.0306 12.2383 13.4668 12.0234 13.9551C11.8086 14.4368 11.6165 14.9544 11.4473 15.5078C11.278 16.0547 11.1413 16.6276 11.0371 17.2266C10.9329 17.819 10.8809 18.418 10.8809 19.0234C10.8809 19.4531 10.9004 19.9056 10.9395 20.3809C10.9785 20.8496 11.0339 21.3118 11.1055 21.7676C11.1836 22.2233 11.2812 22.6595 11.3984 23.0762C11.5156 23.4863 11.6523 23.8542 11.8086 24.1797C11.9648 24.5052 12.1406 24.7721 12.3359 24.9805C12.5312 25.1823 12.7461 25.3027 12.9805 25.3418C13.1628 25.3743 13.3125 25.4167 13.4297 25.4688C13.5534 25.5208 13.6543 25.5762 13.7324 25.6348C13.8105 25.6934 13.8659 25.7487 13.8984 25.8008C13.9375 25.8529 13.9635 25.8919 13.9766 25.918C14.0156 25.9961 14.0026 26.0579 13.9375 26.1035C13.8724 26.1491 13.7845 26.1816 13.6738 26.2012C13.5632 26.2207 13.4395 26.2305 13.3027 26.2305C13.166 26.237 13.0391 26.2402 12.9219 26.2402C12.6419 26.2402 12.349 26.1491 12.043 25.9668C11.737 25.7845 11.4375 25.5306 11.1445 25.2051C10.8581 24.8861 10.5846 24.502 10.3242 24.0527C10.0638 23.6035 9.83268 23.1152 9.63086 22.5879C9.43555 22.054 9.2793 21.4909 9.16211 20.8984C9.05143 20.2995 8.99609 19.6875 8.99609 19.0625C8.99609 18.1315 9.10026 17.2689 9.30859 16.4746C9.52344 15.6803 9.79362 14.9609 10.1191 14.3164C10.4447 13.6719 10.7995 13.1022 11.1836 12.6074C11.5677 12.1061 11.9355 11.6862 12.2871 11.3477C12.6387 11.0091 12.9447 10.752 13.2051 10.5762C13.4655 10.4004 13.6315 10.3092 13.7031 10.3027C13.7552 10.2897 13.8138 10.3125 13.8789 10.3711C13.944 10.4297 13.9766 10.4785 13.9766 10.5176ZM21.1445 17.3242C21.1641 17.3633 21.1738 17.4023 21.1738 17.4414C21.1803 17.4805 21.1836 17.526 21.1836 17.5781C21.1836 17.7865 21.0729 18.0046 20.8516 18.2324C20.6367 18.4603 20.2949 18.6686 19.8262 18.8574C19.7285 18.8965 19.6406 18.916 19.5625 18.916C19.4648 18.916 19.3802 18.89 19.3086 18.8379C19.2435 18.7793 19.2109 18.7207 19.2109 18.6621C19.2109 18.623 19.2337 18.5775 19.2793 18.5254C19.3314 18.4733 19.3835 18.4212 19.4355 18.3691C19.4941 18.3171 19.5462 18.2682 19.5918 18.2227C19.6439 18.1771 19.6699 18.1413 19.6699 18.1152C19.6699 18.0632 19.6276 18.0371 19.543 18.0371C19.4128 18.0371 19.2467 18.0762 19.0449 18.1543C18.8431 18.2259 18.6283 18.3236 18.4004 18.4473C18.179 18.5645 17.9512 18.6947 17.7168 18.8379C17.4889 18.9746 17.2839 19.1113 17.1016 19.248C16.9193 19.3783 16.7695 19.4954 16.6523 19.5996C16.5417 19.7038 16.4863 19.7786 16.4863 19.8242C16.4863 19.8503 16.5124 19.8633 16.5645 19.8633H16.8477C17.0234 19.8633 17.248 19.873 17.5215 19.8926C17.8014 19.9121 18.0944 19.9512 18.4004 20.0098C18.7064 20.0618 19.0124 20.14 19.3184 20.2441C19.6309 20.3418 19.9076 20.4753 20.1484 20.6445C20.3958 20.8138 20.5977 21.0189 20.7539 21.2598C20.9102 21.5007 20.9883 21.7871 20.9883 22.1191C20.9883 22.2884 20.959 22.4707 20.9004 22.666C20.8483 22.8548 20.7507 23.0501 20.6074 23.252C20.4707 23.4473 20.2819 23.6491 20.041 23.8574C19.8001 24.0592 19.4941 24.2611 19.123 24.4629C18.5632 24.7624 18.0391 24.9837 17.5508 25.127C17.069 25.2702 16.6328 25.3418 16.2422 25.3418C15.7344 25.3418 15.334 25.2279 15.041 25C14.748 24.7721 14.6016 24.4466 14.6016 24.0234C14.6016 23.7109 14.6602 23.444 14.7773 23.2227C14.901 23.0013 15.0443 22.819 15.207 22.6758C15.3698 22.526 15.5326 22.4186 15.6953 22.3535C15.8581 22.2819 15.9818 22.2428 16.0664 22.2363C16.1055 22.2363 16.138 22.2331 16.1641 22.2266C16.1966 22.2201 16.2292 22.2168 16.2617 22.2168C16.3203 22.2168 16.3496 22.2526 16.3496 22.3242V22.4219C16.3496 22.4609 16.3594 22.4967 16.3789 22.5293C16.3984 22.5553 16.4082 22.5846 16.4082 22.6172C16.4082 22.6562 16.3594 22.7148 16.2617 22.793C16.1706 22.8711 16.0697 22.9622 15.959 23.0664C15.8483 23.1706 15.7441 23.2812 15.6465 23.3984C15.5553 23.5156 15.5098 23.6296 15.5098 23.7402C15.5098 23.8704 15.6139 23.9355 15.8223 23.9355C16.0827 23.9355 16.3561 23.8867 16.6426 23.7891C16.9355 23.6849 17.2188 23.5547 17.4922 23.3984C17.7721 23.2422 18.0358 23.0664 18.2832 22.8711C18.5371 22.6693 18.7585 22.474 18.9473 22.2852C19.1361 22.0964 19.2858 21.9206 19.3965 21.7578C19.5072 21.5885 19.5625 21.4551 19.5625 21.3574C19.5625 21.2402 19.4941 21.1458 19.3574 21.0742C19.2272 21.0026 19.0449 20.944 18.8105 20.8984C18.5827 20.8529 18.3158 20.8236 18.0098 20.8105C17.7038 20.791 17.3815 20.7812 17.043 20.7812C16.6914 20.7812 16.3984 20.7975 16.1641 20.8301C15.9362 20.8626 15.7962 20.8789 15.7441 20.8789C15.7051 20.8789 15.64 20.8757 15.5488 20.8691C15.4642 20.8561 15.3763 20.8268 15.2852 20.7812C15.2005 20.7292 15.1257 20.6543 15.0605 20.5566C14.9954 20.459 14.9629 20.319 14.9629 20.1367C14.9629 20.013 14.9889 19.873 15.041 19.7168C15.0996 19.5605 15.1973 19.3945 15.334 19.2188C15.4772 19.0365 15.6693 18.8411 15.9102 18.6328C16.1576 18.4245 16.4701 18.2064 16.8477 17.9785C17.2448 17.7376 17.6159 17.5423 17.9609 17.3926C18.3125 17.2363 18.6283 17.1159 18.9082 17.0312C19.1947 16.9466 19.4453 16.8913 19.6602 16.8652C19.875 16.8327 20.0443 16.8164 20.168 16.8164C20.4609 16.8164 20.679 16.8555 20.8223 16.9336C20.9655 17.0052 21.0729 17.1354 21.1445 17.3242ZM29.1719 22.002C29.1719 22.373 29.0905 22.7507 28.9277 23.1348C28.765 23.5189 28.5339 23.8704 28.2344 24.1895C27.9414 24.502 27.5833 24.7591 27.1602 24.9609C26.737 25.1628 26.2617 25.2637 25.7344 25.2637C25.3047 25.2637 24.8685 25.1725 24.4258 24.9902C23.9896 24.8079 23.5957 24.5475 23.2441 24.209C22.8926 23.8639 22.6061 23.4473 22.3848 22.959C22.1634 22.4707 22.0527 21.9238 22.0527 21.3184C22.0527 20.7194 22.1667 20.153 22.3945 19.6191C22.6289 19.0788 22.9349 18.61 23.3125 18.2129C23.6901 17.8092 24.1198 17.4902 24.6016 17.2559C25.0898 17.0215 25.5911 16.9043 26.1055 16.9043C26.5807 16.9043 26.9811 16.9694 27.3066 17.0996C27.6387 17.2233 27.9056 17.373 28.1074 17.5488C28.3092 17.7181 28.4525 17.8939 28.5371 18.0762C28.6283 18.2585 28.6738 18.4049 28.6738 18.5156C28.6738 18.763 28.6217 18.9648 28.5176 19.1211C28.4134 19.2773 28.293 19.3945 28.1562 19.4727C28.026 19.5508 27.8991 19.5964 27.7754 19.6094C27.6582 19.6159 27.5833 19.5931 27.5508 19.541C27.5247 19.515 27.4954 19.502 27.4629 19.502C27.4368 19.502 27.4076 19.5085 27.375 19.5215C27.3424 19.5345 27.3099 19.5475 27.2773 19.5605C27.2513 19.5736 27.2285 19.5736 27.209 19.5605C27.1764 19.5475 27.1732 19.5182 27.1992 19.4727C27.2318 19.4271 27.248 19.388 27.248 19.3555C27.248 19.2969 27.2448 19.2318 27.2383 19.1602C27.2383 19.082 27.2546 19.0007 27.2871 18.916C27.3457 18.7988 27.3685 18.6719 27.3555 18.5352C27.349 18.3919 27.3001 18.2585 27.209 18.1348C27.1243 18.0111 26.9876 17.9069 26.7988 17.8223C26.6165 17.7376 26.3789 17.6953 26.0859 17.6953C25.8776 17.6953 25.6302 17.7637 25.3438 17.9004C25.0573 18.0371 24.7839 18.252 24.5234 18.5449C24.2695 18.8314 24.0514 19.1992 23.8691 19.6484C23.6934 20.0911 23.6055 20.6217 23.6055 21.2402C23.6055 21.5072 23.638 21.7871 23.7031 22.0801C23.7747 22.373 23.8984 22.6432 24.0742 22.8906C24.25 23.138 24.4876 23.3431 24.7871 23.5059C25.0866 23.6621 25.4674 23.7402 25.9297 23.7402C26.2357 23.7402 26.5156 23.6979 26.7695 23.6133C27.0299 23.5286 27.2643 23.4212 27.4727 23.291C27.681 23.1608 27.8665 23.0176 28.0293 22.8613C28.1921 22.7051 28.3288 22.5586 28.4395 22.4219C28.5501 22.2786 28.6348 22.1549 28.6934 22.0508C28.7585 21.9466 28.7975 21.8815 28.8105 21.8555C28.8366 21.8229 28.8691 21.8001 28.9082 21.7871C28.9473 21.7676 28.9863 21.7643 29.0254 21.7773C29.0645 21.7839 29.097 21.8066 29.123 21.8457C29.1556 21.8783 29.1719 21.9303 29.1719 22.002ZM35.0996 17.9785C35.0931 18.1673 35.0736 18.3561 35.041 18.5449C35.015 18.7272 34.9759 18.903 34.9238 19.0723C34.8717 19.235 34.8066 19.3815 34.7285 19.5117C34.6569 19.6419 34.5755 19.7461 34.4844 19.8242C34.4062 19.8893 34.3444 19.9219 34.2988 19.9219C34.2533 19.9219 34.2142 19.9089 34.1816 19.8828C34.1556 19.8568 34.1328 19.8275 34.1133 19.7949C34.0938 19.7624 34.0677 19.7428 34.0352 19.7363C34.0091 19.7298 33.9733 19.7331 33.9277 19.7461C33.8887 19.7526 33.8464 19.7526 33.8008 19.7461C33.7617 19.7396 33.7227 19.7168 33.6836 19.6777C33.651 19.6322 33.6283 19.554 33.6152 19.4434C33.6022 19.3197 33.6055 19.1602 33.625 18.9648C33.651 18.763 33.6641 18.5677 33.6641 18.3789C33.6641 18.2096 33.6445 18.0697 33.6055 17.959C33.5729 17.8418 33.5111 17.7832 33.4199 17.7832C33.3743 17.7832 33.293 17.819 33.1758 17.8906C33.0651 17.9557 32.9414 18.099 32.8047 18.3203C32.668 18.5417 32.5312 18.8639 32.3945 19.2871C32.2578 19.7038 32.1471 20.2604 32.0625 20.957C32.0625 21.8555 32.069 22.5781 32.082 23.125C32.0951 23.6719 32.1016 24.0983 32.1016 24.4043C32.1016 24.6647 32.0951 24.8503 32.082 24.9609C32.069 25.0716 32.0365 25.1432 31.9844 25.1758C31.9518 25.1953 31.8867 25.2181 31.7891 25.2441C31.6979 25.2767 31.597 25.306 31.4863 25.332C31.3822 25.3581 31.2812 25.3809 31.1836 25.4004C31.0859 25.4199 31.0241 25.4264 30.998 25.4199C30.9785 25.4134 30.9427 25.3906 30.8906 25.3516C30.8385 25.319 30.7832 25.2767 30.7246 25.2246C30.6725 25.1725 30.6237 25.1172 30.5781 25.0586C30.5326 25.0065 30.5065 24.9609 30.5 24.9219C30.487 24.8568 30.4805 24.7103 30.4805 24.4824C30.487 24.248 30.4902 23.9681 30.4902 23.6426C30.4967 23.3171 30.5033 22.9622 30.5098 22.5781C30.5163 22.1875 30.5195 21.8001 30.5195 21.416C30.5195 21.1686 30.526 20.8952 30.5391 20.5957C30.5586 20.2897 30.5781 19.9805 30.5977 19.668C30.6237 19.3555 30.6497 19.0495 30.6758 18.75C30.7018 18.4505 30.7246 18.1836 30.7441 17.9492C30.7702 17.7083 30.7897 17.5098 30.8027 17.3535C30.8223 17.1908 30.8353 17.0931 30.8418 17.0605C30.8483 17.0085 30.8711 16.9889 30.9102 17.002C30.9557 17.015 31.0013 17.0378 31.0469 17.0703C31.099 17.1029 31.1445 17.1322 31.1836 17.1582C31.2227 17.1842 31.2487 17.1842 31.2617 17.1582C31.2747 17.0996 31.3236 17.0931 31.4082 17.1387C31.4928 17.1777 31.571 17.2233 31.6426 17.2754C31.6686 17.3079 31.6979 17.3372 31.7305 17.3633C31.7695 17.3828 31.8053 17.4121 31.8379 17.4512C31.8704 17.4837 31.8965 17.5293 31.916 17.5879C31.9421 17.6465 31.9551 17.7246 31.9551 17.8223C31.9551 17.9134 31.9616 18.0501 31.9746 18.2324C31.9876 18.4147 32.0039 18.6296 32.0234 18.877C32.0951 18.6426 32.1797 18.3952 32.2773 18.1348C32.3815 17.8743 32.5052 17.6367 32.6484 17.4219C32.7917 17.2005 32.9609 17.0182 33.1562 16.875C33.3516 16.7318 33.5859 16.6602 33.8594 16.6602C34.0091 16.6602 34.1589 16.6895 34.3086 16.748C34.4583 16.8066 34.5918 16.8945 34.709 17.0117C34.8327 17.1224 34.9303 17.2591 35.002 17.4219C35.0736 17.5846 35.1061 17.7702 35.0996 17.9785ZM42.3945 20.8789C42.3945 21.5625 42.2936 22.1777 42.0918 22.7246C41.8965 23.2715 41.6263 23.737 41.2812 24.1211C40.9427 24.5052 40.5488 24.8014 40.0996 25.0098C39.6504 25.2181 39.1751 25.3223 38.6738 25.3223C38.4655 25.3223 38.2376 25.2962 37.9902 25.2441C37.7428 25.1986 37.4954 25.1204 37.248 25.0098C37.0007 24.8991 36.7598 24.7526 36.5254 24.5703C36.291 24.388 36.0827 24.1634 35.9004 23.8965C35.7181 23.6296 35.5716 23.3171 35.4609 22.959C35.3568 22.6009 35.3079 22.1875 35.3145 21.7188C35.3145 21.1849 35.3796 20.6999 35.5098 20.2637C35.64 19.821 35.806 19.4271 36.0078 19.082C36.2161 18.7305 36.4505 18.4277 36.7109 18.1738C36.9714 17.9199 37.2318 17.7083 37.4922 17.5391C37.7526 17.3633 38.0033 17.2331 38.2441 17.1484C38.485 17.0638 38.6934 17.015 38.8691 17.002C38.9603 16.9954 38.9993 17.0052 38.9863 17.0312C38.9798 17.0573 38.957 17.0866 38.918 17.1191C38.8789 17.1517 38.8431 17.1842 38.8105 17.2168C38.7845 17.2493 38.7975 17.2689 38.8496 17.2754C38.8952 17.2884 38.931 17.3014 38.957 17.3145C38.9896 17.3275 39.0221 17.3438 39.0547 17.3633L39.1328 17.2754C39.1784 17.2428 39.2207 17.2266 39.2598 17.2266C39.3053 17.2266 39.3444 17.2331 39.377 17.2461C39.4095 17.2526 39.4355 17.2559 39.4551 17.2559C39.4746 17.2559 39.4876 17.2363 39.4941 17.1973C39.5072 17.1257 39.5299 17.0866 39.5625 17.0801C39.6016 17.0671 39.6862 17.0605 39.8164 17.0605C39.8945 17.0605 40.0117 17.0833 40.168 17.1289C40.3307 17.1745 40.5065 17.2526 40.6953 17.3633C40.8906 17.474 41.0859 17.6237 41.2812 17.8125C41.4831 17.9948 41.6654 18.2292 41.8281 18.5156C41.9974 18.7956 42.1341 19.1309 42.2383 19.5215C42.3424 19.9121 42.3945 20.3646 42.3945 20.8789ZM38.8691 18.0176C38.6413 18.1543 38.4167 18.3398 38.1953 18.5742C37.974 18.8086 37.7721 19.0788 37.5898 19.3848C37.4141 19.6908 37.2708 20.0326 37.1602 20.4102C37.0495 20.7878 36.9941 21.1849 36.9941 21.6016C36.9941 22.0508 37.0332 22.4577 37.1113 22.8223C37.196 23.1868 37.3164 23.4993 37.4727 23.7598C37.6289 24.0137 37.8177 24.2122 38.0391 24.3555C38.2669 24.4922 38.5241 24.5605 38.8105 24.5605C39.0645 24.5605 39.3151 24.4889 39.5625 24.3457C39.8164 24.2025 40.041 23.9876 40.2363 23.7012C40.4316 23.4147 40.5879 23.0599 40.7051 22.6367C40.8288 22.2135 40.8906 21.722 40.8906 21.1621C40.8906 20.5957 40.8158 20.1204 40.666 19.7363C40.5163 19.3522 40.347 19.043 40.1582 18.8086C39.9759 18.5677 39.8001 18.3984 39.6309 18.3008C39.4616 18.1966 39.3574 18.1445 39.3184 18.1445C39.2272 18.1445 39.1556 18.1445 39.1035 18.1445C39.0579 18.1445 38.9798 18.1022 38.8691 18.0176ZM45.7344 11.9629C45.7344 12.054 45.7279 12.2331 45.7148 12.5C45.7018 12.7669 45.6855 13.0892 45.666 13.4668C45.6465 13.8379 45.6237 14.248 45.5977 14.6973C45.5781 15.14 45.5553 15.5859 45.5293 16.0352C45.5033 16.4779 45.4805 16.9076 45.4609 17.3242C45.4414 17.7409 45.4284 18.1055 45.4219 18.418C45.4089 18.6068 45.3991 18.8151 45.3926 19.043C45.3926 19.2708 45.3926 19.515 45.3926 19.7754C45.3926 20.1204 45.3926 20.4818 45.3926 20.8594C45.3991 21.2305 45.4056 21.5983 45.4121 21.9629C45.4186 22.3275 45.4251 22.679 45.4316 23.0176C45.4447 23.3496 45.4544 23.6491 45.4609 23.916C45.4674 24.1829 45.4707 24.4076 45.4707 24.5898C45.4772 24.7656 45.4805 24.8763 45.4805 24.9219C45.4805 25.013 45.4642 25.0814 45.4316 25.127C45.4056 25.179 45.3698 25.2116 45.3242 25.2246C45.2852 25.2441 45.2428 25.2474 45.1973 25.2344C45.1517 25.2279 45.1126 25.2148 45.0801 25.1953C45.041 25.1758 45.0085 25.153 44.9824 25.127C44.9629 25.1009 44.9466 25.0814 44.9336 25.0684C44.9206 25.0553 44.9076 25.0521 44.8945 25.0586C44.888 25.0651 44.8815 25.0911 44.875 25.1367C44.8555 25.306 44.8164 25.4329 44.7578 25.5176C44.7057 25.6022 44.6471 25.6576 44.582 25.6836C44.5234 25.7161 44.4681 25.7259 44.416 25.7129C44.3639 25.6999 44.3314 25.6771 44.3184 25.6445C44.3053 25.612 44.2826 25.5924 44.25 25.5859C44.224 25.5794 44.1947 25.5729 44.1621 25.5664C44.1296 25.5664 44.097 25.5566 44.0645 25.5371C44.0384 25.5241 44.0221 25.4915 44.0156 25.4395C43.9635 25.2181 43.931 24.9382 43.918 24.5996C43.9049 24.2546 43.8984 23.8672 43.8984 23.4375C43.8984 23.0664 43.9017 22.666 43.9082 22.2363C43.9147 21.8066 43.918 21.3672 43.918 20.918C43.918 20.6576 43.918 20.4004 43.918 20.1465C43.918 19.8861 43.9115 19.6224 43.8984 19.3555V18.7402C43.8984 18.2129 43.9115 17.6855 43.9375 17.1582C43.9635 16.6243 43.9961 16.1133 44.0352 15.625C44.0742 15.1367 44.1165 14.6777 44.1621 14.248C44.2077 13.8184 44.2467 13.4375 44.2793 13.1055C44.3118 12.7734 44.3379 12.5033 44.3574 12.2949C44.377 12.0866 44.3835 11.9564 44.377 11.9043C44.3704 11.8587 44.3737 11.8262 44.3867 11.8066C44.4062 11.7871 44.429 11.7773 44.4551 11.7773C44.4876 11.7708 44.5202 11.7676 44.5527 11.7676C44.5853 11.7611 44.6146 11.7513 44.6406 11.7383C44.6862 11.7122 44.722 11.7057 44.748 11.7188C44.7806 11.7253 44.8066 11.7383 44.8262 11.7578C44.8457 11.7773 44.862 11.8001 44.875 11.8262C44.8945 11.8457 44.9206 11.8555 44.9531 11.8555C44.9922 11.849 45.0215 11.8392 45.041 11.8262C45.0671 11.8066 45.0866 11.7904 45.0996 11.7773C45.1191 11.7578 45.1354 11.7415 45.1484 11.7285C45.168 11.7155 45.1908 11.7122 45.2168 11.7188C45.2689 11.7318 45.3177 11.7415 45.3633 11.748C45.4154 11.748 45.4414 11.7383 45.4414 11.7188C45.4544 11.6667 45.474 11.6439 45.5 11.6504C45.526 11.6504 45.5586 11.6667 45.5977 11.6992C45.6367 11.7318 45.6693 11.7676 45.6953 11.8066C45.7214 11.8392 45.7344 11.8913 45.7344 11.9629ZM49.1133 11.9629C49.1133 12.054 49.1068 12.2331 49.0938 12.5C49.0807 12.7669 49.0645 13.0892 49.0449 13.4668C49.0254 13.8379 49.0026 14.248 48.9766 14.6973C48.957 15.14 48.9342 15.5859 48.9082 16.0352C48.8822 16.4779 48.8594 16.9076 48.8398 17.3242C48.8203 17.7409 48.8073 18.1055 48.8008 18.418C48.7878 18.6068 48.778 18.8151 48.7715 19.043C48.7715 19.2708 48.7715 19.515 48.7715 19.7754C48.7715 20.1204 48.7715 20.4818 48.7715 20.8594C48.778 21.2305 48.7845 21.5983 48.791 21.9629C48.7975 22.3275 48.804 22.679 48.8105 23.0176C48.8236 23.3496 48.8333 23.6491 48.8398 23.916C48.8464 24.1829 48.8496 24.4076 48.8496 24.5898C48.8561 24.7656 48.8594 24.8763 48.8594 24.9219C48.8594 25.013 48.8431 25.0814 48.8105 25.127C48.7845 25.179 48.7487 25.2116 48.7031 25.2246C48.6641 25.2441 48.6217 25.2474 48.5762 25.2344C48.5306 25.2279 48.4915 25.2148 48.459 25.1953C48.4199 25.1758 48.3874 25.153 48.3613 25.127C48.3418 25.1009 48.3255 25.0814 48.3125 25.0684C48.2995 25.0553 48.2865 25.0521 48.2734 25.0586C48.2669 25.0651 48.2604 25.0911 48.2539 25.1367C48.2344 25.306 48.1953 25.4329 48.1367 25.5176C48.0846 25.6022 48.026 25.6576 47.9609 25.6836C47.9023 25.7161 47.847 25.7259 47.7949 25.7129C47.7428 25.6999 47.7103 25.6771 47.6973 25.6445C47.6842 25.612 47.6615 25.5924 47.6289 25.5859C47.6029 25.5794 47.5736 25.5729 47.541 25.5664C47.5085 25.5664 47.4759 25.5566 47.4434 25.5371C47.4173 25.5241 47.401 25.4915 47.3945 25.4395C47.3424 25.2181 47.3099 24.9382 47.2969 24.5996C47.2839 24.2546 47.2773 23.8672 47.2773 23.4375C47.2773 23.0664 47.2806 22.666 47.2871 22.2363C47.2936 21.8066 47.2969 21.3672 47.2969 20.918C47.2969 20.6576 47.2969 20.4004 47.2969 20.1465C47.2969 19.8861 47.2904 19.6224 47.2773 19.3555V18.7402C47.2773 18.2129 47.2904 17.6855 47.3164 17.1582C47.3424 16.6243 47.375 16.1133 47.4141 15.625C47.4531 15.1367 47.4954 14.6777 47.541 14.248C47.5866 13.8184 47.6257 13.4375 47.6582 13.1055C47.6908 12.7734 47.7168 12.5033 47.7363 12.2949C47.7559 12.0866 47.7624 11.9564 47.7559 11.9043C47.7493 11.8587 47.7526 11.8262 47.7656 11.8066C47.7852 11.7871 47.8079 11.7773 47.834 11.7773C47.8665 11.7708 47.8991 11.7676 47.9316 11.7676C47.9642 11.7611 47.9935 11.7513 48.0195 11.7383C48.0651 11.7122 48.1009 11.7057 48.127 11.7188C48.1595 11.7253 48.1855 11.7383 48.2051 11.7578C48.2246 11.7773 48.2409 11.8001 48.2539 11.8262C48.2734 11.8457 48.2995 11.8555 48.332 11.8555C48.3711 11.849 48.4004 11.8392 48.4199 11.8262C48.446 11.8066 48.4655 11.7904 48.4785 11.7773C48.498 11.7578 48.5143 11.7415 48.5273 11.7285C48.5469 11.7155 48.5697 11.7122 48.5957 11.7188C48.6478 11.7318 48.6966 11.7415 48.7422 11.748C48.7943 11.748 48.8203 11.7383 48.8203 11.7188C48.8333 11.6667 48.8529 11.6439 48.8789 11.6504C48.9049 11.6504 48.9375 11.6667 48.9766 11.6992C49.0156 11.7318 49.0482 11.7676 49.0742 11.8066C49.1003 11.8392 49.1133 11.8913 49.1133 11.9629ZM56.9844 13.5156C56.9844 13.5547 56.9779 13.6589 56.9648 13.8281C56.9518 13.9909 56.9323 14.209 56.9062 14.4824C56.8867 14.7559 56.8607 15.0749 56.8281 15.4395C56.7956 15.7975 56.763 16.1849 56.7305 16.6016C57.1406 16.5495 57.528 16.5104 57.8926 16.4844C58.2637 16.4518 58.5762 16.4355 58.8301 16.4355C58.9147 16.4355 58.9896 16.4518 59.0547 16.4844C59.1198 16.5169 59.1719 16.556 59.2109 16.6016C59.2565 16.6406 59.2923 16.6862 59.3184 16.7383C59.3444 16.7839 59.3607 16.8229 59.3672 16.8555C59.3672 16.888 59.3704 16.9206 59.377 16.9531C59.3835 16.9792 59.3867 17.0085 59.3867 17.041C59.3867 17.1712 59.3281 17.3014 59.2109 17.4316C59.1003 17.5618 58.931 17.6432 58.7031 17.6758L56.623 17.9004C56.5905 18.3691 56.5612 18.8509 56.5352 19.3457C56.5091 19.8405 56.4831 20.3353 56.457 20.8301C56.4375 21.3184 56.4212 21.8001 56.4082 22.2754C56.3952 22.7507 56.3887 23.1999 56.3887 23.623C56.3887 23.8965 56.3952 24.1178 56.4082 24.2871C56.4212 24.4564 56.4277 24.5671 56.4277 24.6191C56.4277 24.7298 56.4049 24.8405 56.3594 24.9512C56.3203 25.0553 56.2715 25.1497 56.2129 25.2344C56.1608 25.3255 56.1022 25.3971 56.0371 25.4492C55.9785 25.5078 55.9297 25.5371 55.8906 25.5371C55.6562 25.5371 55.4707 25.4622 55.334 25.3125C55.1973 25.1693 55.0931 24.974 55.0215 24.7266C54.9564 24.4792 54.9141 24.196 54.8945 23.877C54.875 23.5579 54.8652 23.2259 54.8652 22.8809C54.8652 22.0671 54.888 21.2533 54.9336 20.4395C54.9792 19.6191 55.0443 18.8314 55.1289 18.0762L53.9082 18.2227C53.8887 18.2227 53.8691 18.2259 53.8496 18.2324C53.8301 18.2389 53.8073 18.2422 53.7812 18.2422C53.6576 18.2422 53.5599 18.2129 53.4883 18.1543C53.4102 18.0957 53.3516 18.0273 53.3125 17.9492C53.2734 17.8711 53.2507 17.793 53.2441 17.7148C53.2311 17.6302 53.2246 17.5651 53.2246 17.5195C53.2246 17.4284 53.2376 17.3438 53.2637 17.2656C53.2897 17.1875 53.3385 17.1387 53.4102 17.1191C53.5469 17.0671 53.7845 17.0117 54.123 16.9531C54.4681 16.888 54.8555 16.8229 55.2852 16.7578C55.3568 16.2305 55.4284 15.7487 55.5 15.3125C55.5781 14.8698 55.653 14.4889 55.7246 14.1699C55.7962 13.8444 55.8613 13.5938 55.9199 13.418C55.985 13.2357 56.0404 13.1445 56.0859 13.1445C56.099 13.1445 56.1152 13.1478 56.1348 13.1543C56.1543 13.1608 56.1706 13.1641 56.1836 13.1641C56.2227 13.1641 56.252 13.1445 56.2715 13.1055C56.2975 13.0599 56.3431 13.0371 56.4082 13.0371C56.4668 13.0371 56.5286 13.0566 56.5938 13.0957C56.6654 13.1283 56.7272 13.1706 56.7793 13.2227C56.8379 13.2747 56.8867 13.3301 56.9258 13.3887C56.9648 13.4408 56.9844 13.4831 56.9844 13.5156ZM65.9102 20.8789C65.9102 21.5625 65.8092 22.1777 65.6074 22.7246C65.4121 23.2715 65.1419 23.737 64.7969 24.1211C64.4583 24.5052 64.0645 24.8014 63.6152 25.0098C63.166 25.2181 62.6908 25.3223 62.1895 25.3223C61.9811 25.3223 61.7533 25.2962 61.5059 25.2441C61.2585 25.1986 61.0111 25.1204 60.7637 25.0098C60.5163 24.8991 60.2754 24.7526 60.041 24.5703C59.8066 24.388 59.5983 24.1634 59.416 23.8965C59.2337 23.6296 59.0872 23.3171 58.9766 22.959C58.8724 22.6009 58.8236 22.1875 58.8301 21.7188C58.8301 21.1849 58.8952 20.6999 59.0254 20.2637C59.1556 19.821 59.3216 19.4271 59.5234 19.082C59.7318 18.7305 59.9661 18.4277 60.2266 18.1738C60.487 17.9199 60.7474 17.7083 61.0078 17.5391C61.2682 17.3633 61.5189 17.2331 61.7598 17.1484C62.0007 17.0638 62.209 17.015 62.3848 17.002C62.4759 16.9954 62.515 17.0052 62.502 17.0312C62.4954 17.0573 62.4727 17.0866 62.4336 17.1191C62.3945 17.1517 62.3587 17.1842 62.3262 17.2168C62.3001 17.2493 62.3132 17.2689 62.3652 17.2754C62.4108 17.2884 62.4466 17.3014 62.4727 17.3145C62.5052 17.3275 62.5378 17.3438 62.5703 17.3633L62.6484 17.2754C62.694 17.2428 62.7363 17.2266 62.7754 17.2266C62.821 17.2266 62.86 17.2331 62.8926 17.2461C62.9251 17.2526 62.9512 17.2559 62.9707 17.2559C62.9902 17.2559 63.0033 17.2363 63.0098 17.1973C63.0228 17.1257 63.0456 17.0866 63.0781 17.0801C63.1172 17.0671 63.2018 17.0605 63.332 17.0605C63.4102 17.0605 63.5273 17.0833 63.6836 17.1289C63.8464 17.1745 64.0221 17.2526 64.2109 17.3633C64.4062 17.474 64.6016 17.6237 64.7969 17.8125C64.9987 17.9948 65.181 18.2292 65.3438 18.5156C65.513 18.7956 65.6497 19.1309 65.7539 19.5215C65.8581 19.9121 65.9102 20.3646 65.9102 20.8789ZM62.3848 18.0176C62.1569 18.1543 61.9323 18.3398 61.7109 18.5742C61.4896 18.8086 61.2878 19.0788 61.1055 19.3848C60.9297 19.6908 60.7865 20.0326 60.6758 20.4102C60.5651 20.7878 60.5098 21.1849 60.5098 21.6016C60.5098 22.0508 60.5488 22.4577 60.627 22.8223C60.7116 23.1868 60.832 23.4993 60.9883 23.7598C61.1445 24.0137 61.3333 24.2122 61.5547 24.3555C61.7826 24.4922 62.0397 24.5605 62.3262 24.5605C62.5801 24.5605 62.8307 24.4889 63.0781 24.3457C63.332 24.2025 63.5566 23.9876 63.752 23.7012C63.9473 23.4147 64.1035 23.0599 64.2207 22.6367C64.3444 22.2135 64.4062 21.722 64.4062 21.1621C64.4062 20.5957 64.3314 20.1204 64.1816 19.7363C64.0319 19.3522 63.8626 19.043 63.6738 18.8086C63.4915 18.5677 63.3158 18.3984 63.1465 18.3008C62.9772 18.1966 62.873 18.1445 62.834 18.1445C62.7428 18.1445 62.6712 18.1445 62.6191 18.1445C62.5736 18.1445 62.4954 18.1022 62.3848 18.0176ZM77.4043 21.4355C77.4043 21.5072 77.4076 21.5918 77.4141 21.6895C77.4206 21.7871 77.4238 21.8978 77.4238 22.0215C77.4238 22.1777 77.401 22.373 77.3555 22.6074C77.3099 22.8353 77.235 23.0762 77.1309 23.3301C77.0332 23.584 76.8997 23.8379 76.7305 24.0918C76.5612 24.3457 76.3529 24.5736 76.1055 24.7754C75.8581 24.9772 75.5651 25.14 75.2266 25.2637C74.8945 25.3939 74.5137 25.459 74.084 25.459C73.6999 25.459 73.306 25.3841 72.9023 25.2344C72.5052 25.0911 72.1406 24.8665 71.8086 24.5605C71.4831 24.248 71.2129 23.8542 70.998 23.3789C70.7897 22.8971 70.6855 22.3242 70.6855 21.6602C70.6855 21.2435 70.7376 20.8333 70.8418 20.4297C70.9525 20.026 71.0957 19.6452 71.2715 19.2871C71.4538 18.929 71.6654 18.6003 71.9062 18.3008C72.1536 17.9948 72.4108 17.7344 72.6777 17.5195C72.9512 17.2982 73.2311 17.1257 73.5176 17.002C73.8105 16.8783 74.0938 16.8164 74.3672 16.8164C74.8424 16.8164 75.2331 16.8913 75.5391 17.041C75.8516 17.1908 76.099 17.3763 76.2812 17.5977C76.4635 17.819 76.5905 18.0566 76.6621 18.3105C76.7402 18.5579 76.7793 18.7826 76.7793 18.9844C76.7793 19.1797 76.7305 19.4043 76.6328 19.6582C76.5417 19.9056 76.3887 20.1432 76.1738 20.3711C75.959 20.5924 75.679 20.7812 75.334 20.9375C74.9889 21.0872 74.5658 21.1621 74.0645 21.1621C73.7975 21.1621 73.5566 21.1263 73.3418 21.0547C73.1335 20.9766 72.9479 20.8822 72.7852 20.7715C72.6224 20.6543 72.4824 20.5306 72.3652 20.4004C72.2546 20.2637 72.1602 20.1367 72.082 20.0195C71.9648 20.4232 71.9062 20.8952 71.9062 21.4355C71.9062 21.8066 71.9583 22.1419 72.0625 22.4414C72.1732 22.7344 72.3229 22.985 72.5117 23.1934C72.7005 23.4017 72.9251 23.5612 73.1855 23.6719C73.446 23.7826 73.7324 23.8379 74.0449 23.8379C74.4355 23.8379 74.7773 23.7728 75.0703 23.6426C75.3633 23.5059 75.6172 23.3366 75.832 23.1348C76.0534 22.9329 76.2422 22.7148 76.3984 22.4805C76.5612 22.2396 76.7012 22.0215 76.8184 21.8262C76.9355 21.6243 77.0365 21.4583 77.1211 21.3281C77.2122 21.1979 77.3001 21.1361 77.3848 21.1426C77.4238 21.1426 77.4434 21.1751 77.4434 21.2402C77.4434 21.2728 77.4401 21.3053 77.4336 21.3379C77.4271 21.3704 77.4173 21.403 77.4043 21.4355ZM74.4648 17.8027C74.3477 17.8027 74.1947 17.8288 74.0059 17.8809C73.8236 17.9264 73.6283 18.0111 73.4199 18.1348C73.2181 18.2585 73.0163 18.4277 72.8145 18.6426C72.6126 18.8509 72.4368 19.1178 72.2871 19.4434C72.3783 19.3978 72.4564 19.3587 72.5215 19.3262C72.5931 19.2936 72.6419 19.2773 72.668 19.2773C72.681 19.2773 72.7005 19.2904 72.7266 19.3164C72.8763 19.5703 73.0618 19.7526 73.2832 19.8633C73.5111 19.9674 73.765 20.0195 74.0449 20.0195C74.2663 20.0195 74.4551 19.9837 74.6113 19.9121C74.7741 19.834 74.9076 19.7363 75.0117 19.6191C75.1159 19.502 75.1908 19.375 75.2363 19.2383C75.2819 19.0951 75.3047 18.9551 75.3047 18.8184C75.3047 18.5254 75.2298 18.2845 75.0801 18.0957C74.9303 17.9004 74.7253 17.8027 74.4648 17.8027ZM84.6992 24.3359C84.7448 24.3945 84.7611 24.4531 84.748 24.5117C84.735 24.5703 84.709 24.6224 84.6699 24.668C84.6309 24.7135 84.582 24.7493 84.5234 24.7754C84.4714 24.7949 84.4225 24.7949 84.377 24.7754C84.2858 24.7559 84.1882 24.7656 84.084 24.8047C83.9863 24.8372 83.918 24.8698 83.8789 24.9023C83.8398 24.9414 83.8301 24.9837 83.8496 25.0293C83.8757 25.0749 83.9049 25.1237 83.9375 25.1758C83.9896 25.2409 83.9928 25.3092 83.9473 25.3809C83.9017 25.459 83.8333 25.4915 83.7422 25.4785C83.7031 25.4785 83.6283 25.4167 83.5176 25.293C83.4134 25.1758 83.2865 25.0228 83.1367 24.834C82.9935 24.6452 82.8372 24.4303 82.668 24.1895C82.4987 23.9421 82.3262 23.6947 82.1504 23.4473C81.9811 23.1934 81.8151 22.946 81.6523 22.7051C81.4961 22.4642 81.3594 22.2493 81.2422 22.0605C81.099 22.2363 80.9362 22.4316 80.7539 22.6465C80.5781 22.8548 80.3991 23.0697 80.2168 23.291C80.041 23.5059 79.8652 23.7174 79.6895 23.9258C79.5202 24.1276 79.3672 24.3099 79.2305 24.4727C79.0938 24.6289 78.9798 24.7591 78.8887 24.8633C78.7975 24.9609 78.7422 25.013 78.7227 25.0195C78.651 25.0586 78.5892 25.1107 78.5371 25.1758C78.4915 25.2409 78.4199 25.2832 78.3223 25.3027C78.2767 25.3092 78.2344 25.3027 78.1953 25.2832C78.1628 25.2702 78.1302 25.2507 78.0977 25.2246C78.0651 25.2051 78.0326 25.1855 78 25.166C77.9674 25.153 77.9349 25.1497 77.9023 25.1562C77.8372 25.1562 77.7884 25.1042 77.7559 25C77.7233 24.9023 77.7526 24.7884 77.8438 24.6582C77.8503 24.6452 77.9023 24.5801 78 24.4629C78.0977 24.3392 78.2214 24.1829 78.3711 23.9941C78.5273 23.7988 78.7031 23.5807 78.8984 23.3398C79.0938 23.099 79.2956 22.8548 79.5039 22.6074C79.7122 22.3535 79.9173 22.1061 80.1191 21.8652C80.321 21.6243 80.5065 21.4095 80.6758 21.2207C80.474 20.9277 80.2526 20.599 80.0117 20.2344C79.7708 19.8698 79.5365 19.5215 79.3086 19.1895C79.0807 18.8509 78.8757 18.5547 78.6934 18.3008C78.5176 18.0469 78.3939 17.8809 78.3223 17.8027C78.2507 17.7311 78.1953 17.666 78.1562 17.6074C78.1237 17.5553 78.1042 17.5098 78.0977 17.4707C78.0911 17.4316 78.1172 17.4089 78.1758 17.4023C78.2083 17.3958 78.2279 17.3796 78.2344 17.3535C78.2474 17.321 78.2572 17.2917 78.2637 17.2656C78.2767 17.2331 78.2897 17.2038 78.3027 17.1777C78.3158 17.1517 78.3418 17.1322 78.3809 17.1191C78.4525 17.0996 78.5469 17.0898 78.6641 17.0898C78.7878 17.0898 78.8854 17.0736 78.957 17.041C79.0417 17.0215 79.097 17.0215 79.123 17.041C79.1556 17.0605 79.2012 17.0996 79.2598 17.1582C79.2793 17.1842 79.2891 17.194 79.2891 17.1875C79.2956 17.181 79.2988 17.168 79.2988 17.1484C79.2988 17.1289 79.3021 17.1094 79.3086 17.0898C79.3151 17.0638 79.3314 17.0475 79.3574 17.041C79.416 17.0215 79.4583 17.0085 79.4844 17.002C79.5169 16.9954 79.543 16.9629 79.5625 16.9043C79.5755 16.8327 79.5853 16.8001 79.5918 16.8066C79.6048 16.8066 79.6471 16.8392 79.7188 16.9043C79.7448 16.9368 79.8294 17.0508 79.9727 17.2461C80.1159 17.4349 80.2884 17.6758 80.4902 17.9688C80.6921 18.2552 80.9036 18.571 81.125 18.916C81.3529 19.2546 81.5645 19.5898 81.7598 19.9219C81.9551 19.6549 82.1732 19.3587 82.4141 19.0332C82.6549 18.7012 82.8893 18.3854 83.1172 18.0859C83.3516 17.7865 83.5664 17.5293 83.7617 17.3145C83.957 17.0931 84.1035 16.9564 84.2012 16.9043C84.2728 16.8587 84.3249 16.8294 84.3574 16.8164C84.39 16.8034 84.416 16.7969 84.4355 16.7969C84.4681 16.7969 84.5039 16.8164 84.543 16.8555C84.6016 16.888 84.6569 16.9141 84.709 16.9336C84.7676 16.9466 84.8164 16.9824 84.8555 17.041C84.9076 17.0996 84.9368 17.1615 84.9434 17.2266C84.9499 17.2852 84.9434 17.3503 84.9238 17.4219C84.9108 17.4544 84.8522 17.5488 84.748 17.7051C84.6504 17.8613 84.4941 18.0794 84.2793 18.3594C84.071 18.6393 83.8008 18.9844 83.4688 19.3945C83.1432 19.7982 82.7461 20.2734 82.2773 20.8203C82.4076 21.0482 82.554 21.2891 82.7168 21.543C82.8796 21.7969 83.0456 22.0508 83.2148 22.3047C83.3906 22.5521 83.5599 22.793 83.7227 23.0273C83.8854 23.2552 84.0352 23.4635 84.1719 23.6523C84.3086 23.8346 84.4225 23.9876 84.5137 24.1113C84.6113 24.235 84.6732 24.3099 84.6992 24.3359ZM88.0488 16.7969C88.0358 16.8424 88.026 16.9336 88.0195 17.0703C88.013 17.207 88.0033 17.3763 87.9902 17.5781C88.2702 17.5 88.5566 17.4382 88.8496 17.3926C89.1426 17.347 89.4421 17.3242 89.748 17.3242C90.0866 17.3242 90.4251 17.3633 90.7637 17.4414C91.1022 17.513 91.418 17.64 91.7109 17.8223C91.9388 17.959 92.1309 18.1771 92.2871 18.4766C92.4499 18.776 92.5833 19.0983 92.6875 19.4434C92.7461 19.6452 92.8047 19.8698 92.8633 20.1172C92.9219 20.3581 92.9512 20.625 92.9512 20.918C92.9512 21.1654 92.9186 21.4225 92.8535 21.6895C92.7949 21.9564 92.6875 22.2331 92.5312 22.5195C92.375 22.7995 92.1634 23.0892 91.8965 23.3887C91.6296 23.6816 91.2878 23.9779 90.8711 24.2773C90.4674 24.5703 90.1061 24.7949 89.7871 24.9512C89.4746 25.1009 89.2077 25.2051 88.9863 25.2637C88.765 25.3223 88.5924 25.3483 88.4688 25.3418C88.3516 25.3418 88.2832 25.3353 88.2637 25.3223C88.2051 25.2832 88.1465 25.2083 88.0879 25.0977C88.0293 24.9935 87.9479 24.8796 87.8438 24.7559C87.8112 24.7168 87.7819 24.6777 87.7559 24.6387C87.7298 24.5931 87.7005 24.541 87.668 24.4824C87.6484 25.1074 87.6322 25.7194 87.6191 26.3184C87.6126 26.9173 87.6094 27.4772 87.6094 27.998C87.6094 28.3236 87.6126 28.6263 87.6191 28.9062C87.6257 29.1927 87.6354 29.4499 87.6484 29.6777C87.6484 29.7624 87.6517 29.8438 87.6582 29.9219C87.6712 30.0065 87.6745 30.0814 87.668 30.1465C87.668 30.2116 87.6549 30.2637 87.6289 30.3027C87.6029 30.3418 87.554 30.3613 87.4824 30.3613C87.3522 30.3613 87.2513 30.3906 87.1797 30.4492C87.1146 30.5143 87.0365 30.612 86.9453 30.7422C86.8932 30.8008 86.8379 30.8431 86.7793 30.8691C86.7207 30.9017 86.6589 30.9017 86.5938 30.8691C86.5352 30.8431 86.4733 30.7812 86.4082 30.6836C86.3496 30.5924 86.2943 30.4525 86.2422 30.2637C86.2227 30.1855 86.2031 30.0814 86.1836 29.9512C86.1706 29.8275 86.1576 29.668 86.1445 29.4727C86.138 29.2839 86.1315 29.0527 86.125 28.7793C86.125 28.5124 86.125 28.1934 86.125 27.8223L86.1641 24.4434C86.1771 23.5905 86.2096 22.7604 86.2617 21.9531C86.3138 21.1458 86.3757 20.3874 86.4473 19.6777C86.2845 19.7428 86.1348 19.7917 85.998 19.8242C85.8613 19.8568 85.7767 19.8633 85.7441 19.8438C85.679 19.8177 85.6367 19.7884 85.6172 19.7559C85.5977 19.7233 85.5846 19.694 85.5781 19.668C85.5716 19.6354 85.5618 19.6094 85.5488 19.5898C85.5423 19.5638 85.5163 19.5475 85.4707 19.541C85.4251 19.5345 85.3861 19.515 85.3535 19.4824C85.321 19.4499 85.2982 19.4173 85.2852 19.3848C85.2786 19.3522 85.2819 19.3229 85.2949 19.2969C85.3145 19.2643 85.3503 19.2448 85.4023 19.2383C85.4479 19.2318 85.4544 19.2155 85.4219 19.1895C85.3893 19.1569 85.3568 19.1178 85.3242 19.0723C85.2982 19.0202 85.2917 18.9583 85.3047 18.8867C85.3177 18.8086 85.3991 18.7207 85.5488 18.623C85.627 18.5579 85.7637 18.4766 85.959 18.3789C86.1543 18.2747 86.3887 18.1608 86.6621 18.0371C86.7337 17.5293 86.8053 17.1159 86.877 16.7969C86.9551 16.4714 87.0234 16.2728 87.082 16.2012C87.1146 16.1686 87.1374 16.1393 87.1504 16.1133C87.1634 16.0872 87.1764 16.0645 87.1895 16.0449C87.2025 16.0254 87.2188 16.0091 87.2383 15.9961C87.2578 15.9831 87.2936 15.9701 87.3457 15.957C87.3913 15.9505 87.4303 15.9603 87.4629 15.9863C87.4954 16.0124 87.5247 16.0482 87.5508 16.0938C87.5833 16.1328 87.6159 16.1719 87.6484 16.2109C87.681 16.25 87.7201 16.2728 87.7656 16.2793C87.8568 16.2923 87.9284 16.3411 87.9805 16.4258C88.0391 16.5039 88.0618 16.6276 88.0488 16.7969ZM89.9238 18.7012C89.6309 18.7012 89.3184 18.7337 88.9863 18.7988C88.6543 18.8639 88.2865 18.9714 87.8828 19.1211L87.707 23.3594C87.7656 23.3789 87.8307 23.3919 87.9023 23.3984C87.974 23.3984 88.0553 23.3984 88.1465 23.3984C88.3613 23.3984 88.6087 23.3691 88.8887 23.3105C89.1751 23.252 89.4648 23.1641 89.7578 23.0469C90.0508 22.9232 90.3405 22.7767 90.627 22.6074C90.9134 22.4316 91.1673 22.2298 91.3887 22.002C91.6165 21.7741 91.7988 21.5202 91.9355 21.2402C92.0723 20.9603 92.1439 20.6543 92.1504 20.3223C92.1569 20.127 92.1113 19.9349 92.0137 19.7461C91.9225 19.5508 91.7826 19.375 91.5938 19.2188C91.4115 19.0625 91.1803 18.9388 90.9004 18.8477C90.6204 18.75 90.2949 18.7012 89.9238 18.7012ZM96.2227 11.9629C96.2227 12.054 96.2161 12.2331 96.2031 12.5C96.1901 12.7669 96.1738 13.0892 96.1543 13.4668C96.1348 13.8379 96.112 14.248 96.0859 14.6973C96.0664 15.14 96.0436 15.5859 96.0176 16.0352C95.9915 16.4779 95.9688 16.9076 95.9492 17.3242C95.9297 17.7409 95.9167 18.1055 95.9102 18.418C95.8971 18.6068 95.8874 18.8151 95.8809 19.043C95.8809 19.2708 95.8809 19.515 95.8809 19.7754C95.8809 20.1204 95.8809 20.4818 95.8809 20.8594C95.8874 21.2305 95.8939 21.5983 95.9004 21.9629C95.9069 22.3275 95.9134 22.679 95.9199 23.0176C95.9329 23.3496 95.9427 23.6491 95.9492 23.916C95.9557 24.1829 95.959 24.4076 95.959 24.5898C95.9655 24.7656 95.9688 24.8763 95.9688 24.9219C95.9688 25.013 95.9525 25.0814 95.9199 25.127C95.8939 25.179 95.8581 25.2116 95.8125 25.2246C95.7734 25.2441 95.7311 25.2474 95.6855 25.2344C95.64 25.2279 95.6009 25.2148 95.5684 25.1953C95.5293 25.1758 95.4967 25.153 95.4707 25.127C95.4512 25.1009 95.4349 25.0814 95.4219 25.0684C95.4089 25.0553 95.3958 25.0521 95.3828 25.0586C95.3763 25.0651 95.3698 25.0911 95.3633 25.1367C95.3438 25.306 95.3047 25.4329 95.2461 25.5176C95.194 25.6022 95.1354 25.6576 95.0703 25.6836C95.0117 25.7161 94.9564 25.7259 94.9043 25.7129C94.8522 25.6999 94.8197 25.6771 94.8066 25.6445C94.7936 25.612 94.7708 25.5924 94.7383 25.5859C94.7122 25.5794 94.6829 25.5729 94.6504 25.5664C94.6178 25.5664 94.5853 25.5566 94.5527 25.5371C94.5267 25.5241 94.5104 25.4915 94.5039 25.4395C94.4518 25.2181 94.4193 24.9382 94.4062 24.5996C94.3932 24.2546 94.3867 23.8672 94.3867 23.4375C94.3867 23.0664 94.39 22.666 94.3965 22.2363C94.403 21.8066 94.4062 21.3672 94.4062 20.918C94.4062 20.6576 94.4062 20.4004 94.4062 20.1465C94.4062 19.8861 94.3997 19.6224 94.3867 19.3555V18.7402C94.3867 18.2129 94.3997 17.6855 94.4258 17.1582C94.4518 16.6243 94.4844 16.1133 94.5234 15.625C94.5625 15.1367 94.6048 14.6777 94.6504 14.248C94.696 13.8184 94.735 13.4375 94.7676 13.1055C94.8001 12.7734 94.8262 12.5033 94.8457 12.2949C94.8652 12.0866 94.8717 11.9564 94.8652 11.9043C94.8587 11.8587 94.862 11.8262 94.875 11.8066C94.8945 11.7871 94.9173 11.7773 94.9434 11.7773C94.9759 11.7708 95.0085 11.7676 95.041 11.7676C95.0736 11.7611 95.1029 11.7513 95.1289 11.7383C95.1745 11.7122 95.2103 11.7057 95.2363 11.7188C95.2689 11.7253 95.2949 11.7383 95.3145 11.7578C95.334 11.7773 95.3503 11.8001 95.3633 11.8262C95.3828 11.8457 95.4089 11.8555 95.4414 11.8555C95.4805 11.849 95.5098 11.8392 95.5293 11.8262C95.5553 11.8066 95.5749 11.7904 95.5879 11.7773C95.6074 11.7578 95.6237 11.7415 95.6367 11.7285C95.6562 11.7155 95.679 11.7122 95.7051 11.7188C95.7572 11.7318 95.806 11.7415 95.8516 11.748C95.9036 11.748 95.9297 11.7383 95.9297 11.7188C95.9427 11.6667 95.9622 11.6439 95.9883 11.6504C96.0143 11.6504 96.0469 11.6667 96.0859 11.6992C96.125 11.7318 96.1576 11.7676 96.1836 11.8066C96.2096 11.8392 96.2227 11.8913 96.2227 11.9629ZM104.445 20.8789C104.445 21.5625 104.344 22.1777 104.143 22.7246C103.947 23.2715 103.677 23.737 103.332 24.1211C102.993 24.5052 102.6 24.8014 102.15 25.0098C101.701 25.2181 101.226 25.3223 100.725 25.3223C100.516 25.3223 100.288 25.2962 100.041 25.2441C99.7936 25.1986 99.5462 25.1204 99.2988 25.0098C99.0514 24.8991 98.8105 24.7526 98.5762 24.5703C98.3418 24.388 98.1335 24.1634 97.9512 23.8965C97.7689 23.6296 97.6224 23.3171 97.5117 22.959C97.4076 22.6009 97.3587 22.1875 97.3652 21.7188C97.3652 21.1849 97.4303 20.6999 97.5605 20.2637C97.6908 19.821 97.8568 19.4271 98.0586 19.082C98.2669 18.7305 98.5013 18.4277 98.7617 18.1738C99.0221 17.9199 99.2826 17.7083 99.543 17.5391C99.8034 17.3633 100.054 17.2331 100.295 17.1484C100.536 17.0638 100.744 17.015 100.92 17.002C101.011 16.9954 101.05 17.0052 101.037 17.0312C101.031 17.0573 101.008 17.0866 100.969 17.1191C100.93 17.1517 100.894 17.1842 100.861 17.2168C100.835 17.2493 100.848 17.2689 100.9 17.2754C100.946 17.2884 100.982 17.3014 101.008 17.3145C101.04 17.3275 101.073 17.3438 101.105 17.3633L101.184 17.2754C101.229 17.2428 101.271 17.2266 101.311 17.2266C101.356 17.2266 101.395 17.2331 101.428 17.2461C101.46 17.2526 101.486 17.2559 101.506 17.2559C101.525 17.2559 101.538 17.2363 101.545 17.1973C101.558 17.1257 101.581 17.0866 101.613 17.0801C101.652 17.0671 101.737 17.0605 101.867 17.0605C101.945 17.0605 102.062 17.0833 102.219 17.1289C102.382 17.1745 102.557 17.2526 102.746 17.3633C102.941 17.474 103.137 17.6237 103.332 17.8125C103.534 17.9948 103.716 18.2292 103.879 18.5156C104.048 18.7956 104.185 19.1309 104.289 19.5215C104.393 19.9121 104.445 20.3646 104.445 20.8789ZM100.92 18.0176C100.692 18.1543 100.467 18.3398 100.246 18.5742C100.025 18.8086 99.8229 19.0788 99.6406 19.3848C99.4648 19.6908 99.3216 20.0326 99.2109 20.4102C99.1003 20.7878 99.0449 21.1849 99.0449 21.6016C99.0449 22.0508 99.084 22.4577 99.1621 22.8223C99.2467 23.1868 99.3672 23.4993 99.5234 23.7598C99.6797 24.0137 99.8685 24.2122 100.09 24.3555C100.318 24.4922 100.575 24.5605 100.861 24.5605C101.115 24.5605 101.366 24.4889 101.613 24.3457C101.867 24.2025 102.092 23.9876 102.287 23.7012C102.482 23.4147 102.639 23.0599 102.756 22.6367C102.88 22.2135 102.941 21.722 102.941 21.1621C102.941 20.5957 102.867 20.1204 102.717 19.7363C102.567 19.3522 102.398 19.043 102.209 18.8086C102.027 18.5677 101.851 18.3984 101.682 18.3008C101.512 18.1966 101.408 18.1445 101.369 18.1445C101.278 18.1445 101.206 18.1445 101.154 18.1445C101.109 18.1445 101.031 18.1022 100.92 18.0176ZM110.588 17.9785C110.581 18.1673 110.562 18.3561 110.529 18.5449C110.503 18.7272 110.464 18.903 110.412 19.0723C110.36 19.235 110.295 19.3815 110.217 19.5117C110.145 19.6419 110.064 19.7461 109.973 19.8242C109.895 19.8893 109.833 19.9219 109.787 19.9219C109.742 19.9219 109.702 19.9089 109.67 19.8828C109.644 19.8568 109.621 19.8275 109.602 19.7949C109.582 19.7624 109.556 19.7428 109.523 19.7363C109.497 19.7298 109.462 19.7331 109.416 19.7461C109.377 19.7526 109.335 19.7526 109.289 19.7461C109.25 19.7396 109.211 19.7168 109.172 19.6777C109.139 19.6322 109.117 19.554 109.104 19.4434C109.09 19.3197 109.094 19.1602 109.113 18.9648C109.139 18.763 109.152 18.5677 109.152 18.3789C109.152 18.2096 109.133 18.0697 109.094 17.959C109.061 17.8418 108.999 17.7832 108.908 17.7832C108.863 17.7832 108.781 17.819 108.664 17.8906C108.553 17.9557 108.43 18.099 108.293 18.3203C108.156 18.5417 108.02 18.8639 107.883 19.2871C107.746 19.7038 107.635 20.2604 107.551 20.957C107.551 21.8555 107.557 22.5781 107.57 23.125C107.583 23.6719 107.59 24.0983 107.59 24.4043C107.59 24.6647 107.583 24.8503 107.57 24.9609C107.557 25.0716 107.525 25.1432 107.473 25.1758C107.44 25.1953 107.375 25.2181 107.277 25.2441C107.186 25.2767 107.085 25.306 106.975 25.332C106.87 25.3581 106.77 25.3809 106.672 25.4004C106.574 25.4199 106.512 25.4264 106.486 25.4199C106.467 25.4134 106.431 25.3906 106.379 25.3516C106.327 25.319 106.271 25.2767 106.213 25.2246C106.161 25.1725 106.112 25.1172 106.066 25.0586C106.021 25.0065 105.995 24.9609 105.988 24.9219C105.975 24.8568 105.969 24.7103 105.969 24.4824C105.975 24.248 105.979 23.9681 105.979 23.6426C105.985 23.3171 105.992 22.9622 105.998 22.5781C106.005 22.1875 106.008 21.8001 106.008 21.416C106.008 21.1686 106.014 20.8952 106.027 20.5957C106.047 20.2897 106.066 19.9805 106.086 19.668C106.112 19.3555 106.138 19.0495 106.164 18.75C106.19 18.4505 106.213 18.1836 106.232 17.9492C106.258 17.7083 106.278 17.5098 106.291 17.3535C106.311 17.1908 106.324 17.0931 106.33 17.0605C106.337 17.0085 106.359 16.9889 106.398 17.002C106.444 17.015 106.49 17.0378 106.535 17.0703C106.587 17.1029 106.633 17.1322 106.672 17.1582C106.711 17.1842 106.737 17.1842 106.75 17.1582C106.763 17.0996 106.812 17.0931 106.896 17.1387C106.981 17.1777 107.059 17.2233 107.131 17.2754C107.157 17.3079 107.186 17.3372 107.219 17.3633C107.258 17.3828 107.294 17.4121 107.326 17.4512C107.359 17.4837 107.385 17.5293 107.404 17.5879C107.43 17.6465 107.443 17.7246 107.443 17.8223C107.443 17.9134 107.45 18.0501 107.463 18.2324C107.476 18.4147 107.492 18.6296 107.512 18.877C107.583 18.6426 107.668 18.3952 107.766 18.1348C107.87 17.8743 107.993 17.6367 108.137 17.4219C108.28 17.2005 108.449 17.0182 108.645 16.875C108.84 16.7318 109.074 16.6602 109.348 16.6602C109.497 16.6602 109.647 16.6895 109.797 16.748C109.947 16.8066 110.08 16.8945 110.197 17.0117C110.321 17.1224 110.419 17.2591 110.49 17.4219C110.562 17.5846 110.594 17.7702 110.588 17.9785ZM117.678 21.4355C117.678 21.5072 117.681 21.5918 117.688 21.6895C117.694 21.7871 117.697 21.8978 117.697 22.0215C117.697 22.1777 117.674 22.373 117.629 22.6074C117.583 22.8353 117.508 23.0762 117.404 23.3301C117.307 23.584 117.173 23.8379 117.004 24.0918C116.835 24.3457 116.626 24.5736 116.379 24.7754C116.132 24.9772 115.839 25.14 115.5 25.2637C115.168 25.3939 114.787 25.459 114.357 25.459C113.973 25.459 113.579 25.3841 113.176 25.2344C112.779 25.0911 112.414 24.8665 112.082 24.5605C111.757 24.248 111.486 23.8542 111.271 23.3789C111.063 22.8971 110.959 22.3242 110.959 21.6602C110.959 21.2435 111.011 20.8333 111.115 20.4297C111.226 20.026 111.369 19.6452 111.545 19.2871C111.727 18.929 111.939 18.6003 112.18 18.3008C112.427 17.9948 112.684 17.7344 112.951 17.5195C113.225 17.2982 113.505 17.1257 113.791 17.002C114.084 16.8783 114.367 16.8164 114.641 16.8164C115.116 16.8164 115.507 16.8913 115.812 17.041C116.125 17.1908 116.372 17.3763 116.555 17.5977C116.737 17.819 116.864 18.0566 116.936 18.3105C117.014 18.5579 117.053 18.7826 117.053 18.9844C117.053 19.1797 117.004 19.4043 116.906 19.6582C116.815 19.9056 116.662 20.1432 116.447 20.3711C116.232 20.5924 115.952 20.7812 115.607 20.9375C115.262 21.0872 114.839 21.1621 114.338 21.1621C114.071 21.1621 113.83 21.1263 113.615 21.0547C113.407 20.9766 113.221 20.8822 113.059 20.7715C112.896 20.6543 112.756 20.5306 112.639 20.4004C112.528 20.2637 112.434 20.1367 112.355 20.0195C112.238 20.4232 112.18 20.8952 112.18 21.4355C112.18 21.8066 112.232 22.1419 112.336 22.4414C112.447 22.7344 112.596 22.985 112.785 23.1934C112.974 23.4017 113.199 23.5612 113.459 23.6719C113.719 23.7826 114.006 23.8379 114.318 23.8379C114.709 23.8379 115.051 23.7728 115.344 23.6426C115.637 23.5059 115.891 23.3366 116.105 23.1348C116.327 22.9329 116.516 22.7148 116.672 22.4805C116.835 22.2396 116.975 22.0215 117.092 21.8262C117.209 21.6243 117.31 21.4583 117.395 21.3281C117.486 21.1979 117.574 21.1361 117.658 21.1426C117.697 21.1426 117.717 21.1751 117.717 21.2402C117.717 21.2728 117.714 21.3053 117.707 21.3379C117.701 21.3704 117.691 21.403 117.678 21.4355ZM114.738 17.8027C114.621 17.8027 114.468 17.8288 114.279 17.8809C114.097 17.9264 113.902 18.0111 113.693 18.1348C113.492 18.2585 113.29 18.4277 113.088 18.6426C112.886 18.8509 112.71 19.1178 112.561 19.4434C112.652 19.3978 112.73 19.3587 112.795 19.3262C112.867 19.2936 112.915 19.2773 112.941 19.2773C112.954 19.2773 112.974 19.2904 113 19.3164C113.15 19.5703 113.335 19.7526 113.557 19.8633C113.785 19.9674 114.038 20.0195 114.318 20.0195C114.54 20.0195 114.729 19.9837 114.885 19.9121C115.048 19.834 115.181 19.7363 115.285 19.6191C115.389 19.502 115.464 19.375 115.51 19.2383C115.555 19.0951 115.578 18.9551 115.578 18.8184C115.578 18.5254 115.503 18.2845 115.354 18.0957C115.204 17.9004 114.999 17.8027 114.738 17.8027ZM123.508 17.8027C123.508 18.4473 123.456 19.1081 123.352 19.7852C123.254 20.4557 123.107 21.1068 122.912 21.7383C122.717 22.3633 122.473 22.9557 122.18 23.5156C121.887 24.069 121.548 24.554 121.164 24.9707C120.78 25.3874 120.347 25.7161 119.865 25.957C119.383 26.1979 118.859 26.3184 118.293 26.3184C118.111 26.3184 117.977 26.2923 117.893 26.2402C117.808 26.1947 117.756 26.1263 117.736 26.0352C117.71 25.9701 117.72 25.9017 117.766 25.8301C117.805 25.765 117.867 25.7031 117.951 25.6445C118.036 25.5859 118.137 25.5371 118.254 25.498C118.371 25.459 118.492 25.4395 118.615 25.4395C118.947 25.4395 119.247 25.3451 119.514 25.1562C119.781 24.974 120.018 24.7266 120.227 24.4141C120.441 24.1016 120.63 23.7435 120.793 23.3398C120.956 22.9297 121.096 22.5033 121.213 22.0605C121.337 21.6178 121.438 21.1751 121.516 20.7324C121.6 20.2897 121.665 19.8763 121.711 19.4922C121.763 19.1081 121.799 18.7695 121.818 18.4766C121.838 18.1836 121.848 17.9655 121.848 17.8223C121.848 17.1842 121.809 16.5723 121.73 15.9863C121.652 15.4004 121.555 14.8568 121.438 14.3555C121.32 13.8477 121.187 13.3887 121.037 12.9785C120.894 12.5618 120.754 12.207 120.617 11.9141C120.48 11.6211 120.354 11.3932 120.236 11.2305C120.126 11.0677 120.044 10.9831 119.992 10.9766C119.862 10.9635 119.758 10.9342 119.68 10.8887C119.602 10.8431 119.562 10.7975 119.562 10.752C119.562 10.6999 119.608 10.6543 119.699 10.6152C119.797 10.5762 119.953 10.5566 120.168 10.5566C120.324 10.5566 120.516 10.6217 120.744 10.752C120.972 10.8822 121.21 11.0807 121.457 11.3477C121.704 11.6146 121.949 11.9499 122.189 12.3535C122.437 12.7507 122.658 13.2194 122.854 13.7598C123.049 14.2936 123.205 14.8991 123.322 15.5762C123.446 16.2467 123.508 16.9889 123.508 17.8027Z" fill="white"/>
</g>
<defs>
<filter id="filter0_d" x="0.996094" y="0.299194" width="134.512" height="106.701" filterUnits="userSpaceOnUse" color-interpolation-filters="sRGB">
<feFlood flood-opacity="0" result="BackgroundImageFix"/>
<feColorMatrix in="SourceAlpha" type="matrix" values="0 0 0 0 0 0 0 0 0 0 0 0 0 0 0 0 0 0 127 0"/>
<feOffset dx="2"/>
<feGaussianBlur stdDeviation="5"/>
<feColorMatrix type="matrix" values="0 0 0 0 0 0 0 0 0 0 0 0 0 0 0 0 0 0 0.25 0"/>
<feBlend mode="normal" in2="BackgroundImageFix" result="effect1_dropShadow"/>
<feBlend mode="normal" in="SourceGraphic" in2="effect1_dropShadow" result="shape"/>
</filter>
<linearGradient id="paint0_linear" x1="28.6502" y1="44.5" x2="117.143" y2="55.4562" gradientUnits="userSpaceOnUse">
<stop stop-color="#6423EE"/>
<stop offset="1" stop-color="#DB00FF"/>
</linearGradient>
</defs>
</svg>
