<svg width="93" height="93" viewBox="0 0 93 93" fill="none" xmlns="http://www.w3.org/2000/svg">
<g clip-path="url(#clip0)">
<path d="M2.1137 59.1819C0.946381 59.1819 0 58.2356 0 57.0682V35.9318C0 34.7645 0.946381 33.8181 2.1137 33.8181C3.28103 33.8181 4.22741 34.7645 4.22741 35.9318V57.0682C4.22721 58.2356 3.28103 59.1819 2.1137 59.1819Z" fill="white"/>
<path d="M14.7955 76.091C13.6282 76.091 12.6818 75.1446 12.6818 73.9773V19.0228C12.6818 17.8554 13.6282 16.9091 14.7955 16.9091C15.9629 16.9091 16.9092 17.8554 16.9092 19.0228V73.9773C16.909 75.1446 15.9629 76.091 14.7955 76.091Z" fill="white"/>
<path d="M27.4774 93C26.31 93 25.3636 92.0536 25.3636 90.8863V2.11351C25.3636 0.946381 26.31 0 27.4774 0C28.6447 0 29.5911 0.946381 29.5911 2.1137V90.8865C29.5909 92.0538 28.6447 93 27.4774 93Z" fill="white"/>
<path d="M40.1592 88.7728C38.9919 88.7728 38.0455 87.8264 38.0455 86.6591V6.34091C38.0455 5.17358 38.9919 4.2272 40.1592 4.2272C41.3265 4.2272 42.2727 5.17358 42.2727 6.34091V86.6591C42.2727 87.8264 41.3265 88.7728 40.1592 88.7728Z" fill="white"/>
<path d="M52.841 71.8637C51.6737 71.8637 50.7273 70.9174 50.7273 69.75V23.2499C50.7273 22.0826 51.6737 21.1362 52.841 21.1362C54.0083 21.1362 54.9547 22.0826 54.9547 23.2499V69.75C54.9545 70.9174 54.0083 71.8637 52.841 71.8637Z" fill="white"/>
<path d="M65.5228 88.7728C64.3555 88.7728 63.4091 87.8264 63.4091 86.6591V6.34091C63.4091 5.17358 64.3555 4.2272 65.5228 4.2272C66.6901 4.2272 67.6365 5.17358 67.6365 6.34091V86.6591C67.6363 87.8264 66.6901 88.7728 65.5228 88.7728Z" fill="white"/>
<path d="M78.2046 71.8637C77.0373 71.8637 76.0909 70.9174 76.0909 69.75V23.2499C76.0909 22.0826 77.0373 21.1362 78.2046 21.1362C79.372 21.1362 80.3183 22.0826 80.3183 23.2499V69.75C80.3181 70.9174 79.372 71.8637 78.2046 71.8637Z" fill="white"/>
<path d="M90.8865 59.1819C89.7192 59.1819 88.7728 58.2356 88.7728 57.0682V35.9318C88.7728 34.7645 89.7192 33.8181 90.8865 33.8181C92.0538 33.8181 93.0002 34.7645 93.0002 35.9318V57.0682C93 58.2356 92.0538 59.1819 90.8865 59.1819Z" fill="white"/>
</g>
<defs>
<clipPath id="clip0">
<rect width="93" height="93" fill="white"/>
</clipPath>
</defs>
</svg>
