<svg width="27" height="27" viewBox="0 0 27 27" fill="none" xmlns="http://www.w3.org/2000/svg">
<g clip-path="url(#clip0)">
<path d="M15.6906 0.988696C15.3774 0.839296 15.0084 0.878896 14.7384 1.0967L5.9832 8.1005H1.8C0.8082 8.1005 0 8.9087 0 9.9005V17.1005C0 18.0941 0.8082 18.9005 1.8 18.9005H5.9832L14.7366 25.9043C14.9004 26.0339 15.1002 26.1005 15.3 26.1005C15.4332 26.1005 15.5664 26.0699 15.6906 26.0105C16.002 25.8611 16.2 25.5461 16.2 25.2005V1.8005C16.2 1.4549 16.002 1.1399 15.6906 0.988696Z" fill="white"/>
<path d="M20.7558 7.13567C20.4012 6.78647 19.8324 6.79187 19.4832 7.14287C19.134 7.49747 19.1376 8.06628 19.4904 8.41728C20.8512 9.76008 21.6 11.5655 21.6 13.5005C21.6 15.4355 20.8512 17.2409 19.4904 18.5837C19.1376 18.9311 19.134 19.5017 19.4832 19.8563C19.6596 20.0345 19.8918 20.1227 20.1222 20.1227C20.3508 20.1227 20.5794 20.0363 20.7558 19.8617C22.4622 18.1823 23.4 15.9215 23.4 13.5005C23.4 11.0795 22.4622 8.81868 20.7558 7.13567Z" fill="white"/>
<path d="M23.2956 4.59949C22.941 4.24849 22.3722 4.25209 22.0212 4.60489C21.672 4.95769 21.6756 5.52829 22.0266 5.87749C24.0732 7.90609 25.2 10.6133 25.2 13.5005C25.2 16.3877 24.0732 19.0931 22.0266 21.1217C21.6756 21.4727 21.672 22.0433 22.0212 22.3961C22.1994 22.5725 22.4298 22.6607 22.6602 22.6607C22.8888 22.6607 23.1192 22.5743 23.2956 22.3997C25.686 20.0327 27 16.8719 27 13.5005C27 10.1291 25.686 6.96829 23.2956 4.59949Z" fill="white"/>
</g>
<defs>
<clipPath id="clip0">
<rect width="27" height="27" fill="white"/>
</clipPath>
</defs>
</svg>
